<?xml version="1.0" encoding="utf-8"?>
<!-- Generator: Adobe Illustrator 16.0.0, SVG Export Plug-In . SVG Version: 6.00 Build 0)  -->
<svg version="1.2" baseProfile="tiny" id="Ebene_1" xmlns="http://www.w3.org/2000/svg" xmlns:xlink="http://www.w3.org/1999/xlink"
	 x="0px" y="0px" width="483.307px" height="85.04px" viewBox="0 0 483.307 85.04" xml:space="preserve">
<g>
	<path fill="#FE5000" d="M110.4,15.302c-16.518,0-20.648,7.79-20.648,15.674v3.19c0,5.068,1.783,10.137,7.696,13.047
		c-2.44,1.595-3.66,3.941-3.66,7.227c0,2.252,0.47,4.223,1.595,5.819c-4.974,2.346-7.319,5.912-7.319,10.229v1.126
		c0,7.696,3.19,13.327,22.713,13.327c19.052,0,22.806-7.508,22.806-15.298v-1.126c0-9.104-3.472-13.703-19.896-14.078l-5.068-0.188
		c-3.191,0-3.754-0.563-3.754-2.254c0-1.688,0.563-2.346,4.036-2.346h0.563h1.221c16.331,0,19.896-7.884,19.896-15.298v-1.971
		c0-1.69-0.563-3.849-1.502-5.726h4.505V15.864h-15.955C115.563,15.489,113.122,15.302,110.4,15.302z M111.245,64.95
		c8.729,0.282,9.949,1.502,9.949,4.881v0.845c0,3.285-1.784,5.068-10.418,5.068c-8.635,0-10.231-2.064-10.231-5.256v-0.845
		c0-1.408,0.377-3.379,2.348-4.974h0.094L111.245,64.95z M118.566,33.697c0,4.224-2.159,7.133-8.166,7.133
		c-6.1,0-7.979-2.628-7.979-6.945v-1.877c0-3.754,1.879-6.663,7.979-6.663c6.007,0,8.166,2.909,8.166,6.663V33.697z"/>
	<path fill="#FE5000" d="M153.733,21.966v-6.102h-13.515v50.307h13.515v-32.38c0-5.068,5.537-7.133,12.013-7.133h1.877V15.302
		h-1.877C160.397,15.396,156.455,17.836,153.733,21.966z"/>
	<path fill="#FE5000" d="M482.599,45.054v-9.01c0-12.577-4.787-20.931-20.648-20.931c-15.674,0-21.024,8.447-21.024,19.147v13.515
		c0,10.418,5.444,19.146,21.024,19.146s19.709-7.509,20.648-15.018l-12.858-1.971c-0.563,4.506-1.408,6.852-7.79,6.852
		c-6.476,0-7.884-3.285-7.884-7.602v-4.13H482.599z M454.066,33.04c0-4.41,1.971-7.415,7.884-7.415c5.726,0,7.603,2.534,7.603,7.415
		v2.534h-15.486V33.04z"/>
	<path fill="#FE5000" d="M423.937,0.379h-13.421v15.485h-7.134v11.075h7.134v23.182c0,11.075,3.003,16.05,15.955,16.05h9.197V55.096
		h-7.415c-3.754,0-4.316-1.596-4.316-5.35V26.939h11.731V15.864h-11.731V0.379z"/>
	<path fill="#FE5000" d="M325.813,15.113c-15.674,0-21.024,8.447-21.024,19.147v13.515c0,10.418,5.444,19.146,21.024,19.146
		s19.709-7.509,20.647-15.018l-12.857-1.971c-0.563,4.506-1.408,6.852-7.79,6.852c-6.477,0-7.884-3.285-7.884-7.602v-4.13h28.531
		v-9.01C346.46,23.467,341.673,15.113,325.813,15.113z M333.414,35.574h-15.485V33.04c0-4.41,1.971-7.415,7.884-7.415
		c5.725,0,7.602,2.534,7.602,7.415V35.574z"/>
	<path fill="#FE5000" d="M383.186,49.09c0,4.034-3.942,6.382-8.165,6.382c-5.069,0-7.604-2.159-7.604-5.631V15.864h-13.515v36.229
		c0,8.259,3.473,14.829,15.768,14.829c6.008,0,10.419-2.065,13.516-6.57v5.819H396.7V15.864h-13.515V49.09z"/>
	<path fill="#FE5000" d="M233.885,21.966v-6.102h-13.516v50.307h13.516v-32.38c0-5.068,5.536-7.133,12.013-7.133h1.877V15.302
		h-1.877C240.548,15.396,236.606,17.836,233.885,21.966z"/>
	<path fill="#FE5000" d="M282.008,15.113c-6.1,0-10.418,2.065-13.515,6.664V0.099h-13.866v66.072h13.866V32.57
		c0-3.66,4.036-6.006,8.072-6.006c5.067,0,7.696,2.158,7.696,5.631v33.976h13.515V29.943
		C297.776,21.684,294.304,15.113,282.008,15.113z"/>
	<path fill="#FE5000" d="M192.873,15.12c-13.506,0-18.651,3.764-20.812,12.89l12.562,3.398l0.272,0.043
		c0.845-4.317,2.065-5.632,7.509-5.632c5.255,0,6.101,2.253,6.101,6.007V35.3h-6.194c-16.801,0-22.526,5.256-22.526,15.955
		c0,10.512,5.162,15.58,15.769,15.58c7.32,0,10.605-2.44,12.952-6.008v5.351h13.233V32.202
		C211.738,20.846,207.515,15.12,192.873,15.12z M198.599,49.378c0,4.692-2.253,7.133-7.228,7.133c-6.288,0-8.541-1.408-8.541-6.102
		c0-4.223,2.253-5.913,9.01-5.913h6.759V49.378z"/>
	<path fill="#FE5000" d="M43.117,0.099c-23.422,0-42.409,18.987-42.409,42.408c0,23.422,18.987,42.409,42.409,42.409
		c14.656,0,27.574-7.435,35.192-18.739h-1.286H63.79v-5.349c-2.347,3.566-5.631,6.006-12.951,6.006
		c-10.606,0-15.769-5.068-15.769-15.58c0-10.699,5.725-15.955,22.525-15.955h6.194v-3.472c0-3.755-0.845-6.007-6.101-6.007
		c-5.443,0-6.663,1.313-7.508,5.631l-0.273-0.043l-12.561-3.399c2.16-9.125,7.306-12.889,20.812-12.889
		c14.642,0,18.864,5.726,18.864,17.082v24.366h6.105c1.547-4.401,2.396-9.131,2.396-14.062C85.525,19.086,66.538,0.099,43.117,0.099
		z"/>
	<path fill="#FE5000" d="M48.116,50.41c0,4.692,2.253,6.1,8.541,6.1c4.427,0,6.688-1.943,7.133-5.677v-6.336h-6.664
		C50.369,44.497,48.116,46.187,48.116,50.41z"/>
</g>
</svg>
