<?xml version="1.0" encoding="utf-8"?>
<!-- Generator: Adobe Illustrator 24.3.0, SVG Export Plug-In . SVG Version: 6.00 Build 0)  -->
<svg version="1.1" id="Ebene_1" xmlns="http://www.w3.org/2000/svg" xmlns:xlink="http://www.w3.org/1999/xlink" x="0px" y="0px"
	 viewBox="0 0 524.4 99.2" style="enable-background:new 0 0 524.4 99.2;" xml:space="preserve">
<style type="text/css">
	.st0{fill:#3CA9E6;}
	.st1{fill:#006831;}
	.st2{fill:none;stroke:#006831;stroke-width:0.974;stroke-linecap:round;}
	.st3{fill:none;stroke:#3CA9E6;stroke-width:0.974;stroke-linecap:round;}
</style>
<g>
	<g>
		<path class="st0" d="M495.4,18.1c0,0.8,0.2,1.5,0.6,2.1c0.3,0.5,0.8,1,1.3,1.3c0.5,0.3,1.1,0.6,1.8,0.7c0.7,0.1,1.4,0.2,2.1,0.2
			c1.8,0,3.1-0.4,4-1.1c0.9-0.7,1.3-1.6,1.3-2.8c0-0.5-0.1-1-0.2-1.5c-0.1-0.4-0.4-0.8-0.7-1.2c-0.3-0.3-0.8-0.6-1.3-0.8
			c-0.6-0.2-1.3-0.4-2.1-0.6l-1.6-0.3c-0.4-0.1-0.8-0.2-1.1-0.2c-0.3-0.1-0.5-0.2-0.7-0.3c-0.2-0.1-0.3-0.3-0.4-0.4
			c-0.1-0.2-0.1-0.4-0.1-0.7c0-0.2,0-0.4,0.1-0.5c0.1-0.2,0.2-0.3,0.4-0.5c0.2-0.1,0.5-0.3,0.8-0.4c0.3-0.1,0.8-0.1,1.3-0.1
			c0.9,0,1.6,0.2,2,0.5c0.4,0.3,0.7,0.8,0.9,1.4l2.5-0.3c-0.1-0.5-0.3-0.9-0.5-1.4c-0.2-0.4-0.5-0.8-0.9-1.2
			c-0.4-0.3-0.9-0.6-1.6-0.8c-0.6-0.2-1.5-0.3-2.4-0.3c-0.8,0-1.5,0.1-2.1,0.3c-0.6,0.2-1.2,0.4-1.7,0.8c-0.5,0.3-0.8,0.7-1.1,1.2
			c-0.3,0.5-0.4,1-0.4,1.6c0,0.8,0.1,1.4,0.4,1.8c0.3,0.4,0.6,0.8,1.2,1.1c0.5,0.3,1.2,0.5,1.9,0.7c0.8,0.2,1.6,0.3,2.6,0.5
			c0.8,0.1,1.3,0.3,1.5,0.6c0.3,0.3,0.4,0.6,0.4,1.1c0,0.5-0.2,0.9-0.6,1.2c-0.4,0.3-1.1,0.4-2,0.4c-0.4,0-0.8,0-1.1-0.1
			c-0.4-0.1-0.7-0.2-0.9-0.3c-0.3-0.2-0.5-0.4-0.7-0.6c-0.2-0.3-0.3-0.6-0.3-1H495.4z M484.4,14.4c0.1-1,0.4-1.8,0.9-2.4
			c0.5-0.6,1.3-0.9,2.3-0.9c1.1,0,1.8,0.3,2.3,0.9c0.5,0.6,0.7,1.4,0.7,2.5H484.4z M490.6,18.2c-0.1,0.6-0.4,1.1-0.9,1.5
			c-0.4,0.3-1.1,0.5-2,0.5c-1.1,0-2-0.4-2.5-1.1c-0.6-0.7-0.8-1.6-0.9-2.8h9.1v-1.2c0-0.9-0.1-1.8-0.3-2.5c-0.2-0.8-0.6-1.4-1-1.9
			c-0.5-0.5-1.1-1-1.8-1.3c-0.7-0.3-1.6-0.5-2.5-0.5c-0.9,0-1.7,0.1-2.5,0.5c-0.8,0.3-1.4,0.7-1.9,1.3c-0.5,0.6-1,1.3-1.3,2.1
			c-0.3,0.8-0.5,1.8-0.5,2.9c0,2.1,0.5,3.7,1.6,4.9c1,1.2,2.6,1.7,4.6,1.7c1.7,0,2.9-0.4,3.8-1.1c0.9-0.7,1.4-1.7,1.7-3H490.6z
			 M467.9,4.6v17.3h2.7v-7.5c0-0.4,0.1-0.8,0.2-1.2c0.2-0.4,0.4-0.7,0.7-1c0.3-0.3,0.6-0.5,1.1-0.7c0.4-0.2,0.9-0.3,1.4-0.3
			c0.7,0,1.3,0.2,1.7,0.6c0.4,0.4,0.6,1.1,0.6,2.1v7.9h2.8v-8.4c0-3.1-1.4-4.7-4.2-4.7c-0.8,0-1.5,0.2-2.2,0.5
			c-0.7,0.3-1.3,0.9-1.9,1.6V4.6H467.9z M462.6,17.5c-0.1,0.8-0.4,1.5-0.8,1.9c-0.4,0.4-1.1,0.7-1.9,0.7c-0.6,0-1.1-0.1-1.5-0.4
			c-0.4-0.2-0.7-0.6-1-0.9c-0.2-0.4-0.4-0.9-0.5-1.4c-0.1-0.6-0.2-1.1-0.2-1.8c0-0.6,0.1-1.1,0.2-1.6c0.1-0.5,0.3-1,0.5-1.4
			c0.2-0.4,0.6-0.7,1-1c0.4-0.3,0.9-0.4,1.5-0.4c0.9,0,1.5,0.2,1.8,0.7c0.4,0.5,0.6,1.1,0.7,1.8l2.7-0.4c-0.1-0.6-0.3-1.1-0.5-1.6
			c-0.2-0.5-0.5-1-0.9-1.4c-0.4-0.4-0.9-0.7-1.5-0.9c-0.6-0.2-1.4-0.4-2.3-0.4c-1,0-1.8,0.2-2.6,0.5c-0.8,0.3-1.4,0.8-1.9,1.4
			c-0.5,0.6-0.9,1.3-1.2,2.1c-0.3,0.8-0.4,1.8-0.4,2.8c0,1,0.1,1.9,0.4,2.7c0.2,0.8,0.6,1.5,1.1,2.1c0.5,0.6,1.1,1,1.9,1.3
			c0.8,0.3,1.6,0.5,2.7,0.5c1.7,0,3-0.4,3.9-1.3c0.9-0.9,1.5-2,1.6-3.5H462.6z M448.3,21.9h2.8V9.3h-2.8V21.9z M448.2,7.3h2.9V4.6
			h-2.9V7.3z M442.3,21.9h2.8V4.6h-2.8V21.9z M434.2,11.5v6.4c0,1.4,0.3,2.5,0.8,3.2c0.5,0.7,1.5,1.1,2.9,1.1c0.9,0,1.7-0.1,2.5-0.4
			l-0.4-2.1c-0.2,0.1-0.5,0.1-0.7,0.2c-0.3,0-0.5,0-0.8,0c-0.5,0-0.9-0.1-1.2-0.4c-0.3-0.3-0.4-0.8-0.4-1.4v-6.6h3.1V9.3H437V5.9
			h-2.7v3.4h-2v2.2H434.2z M425.2,21.9h2.8V11.5h3.1V9.3H428V8.5c0-0.6,0.2-1.1,0.5-1.4c0.3-0.3,0.8-0.5,1.4-0.5
			c0.5,0,1,0.1,1.5,0.2l0.4-2.1c-0.7-0.2-1.5-0.3-2.4-0.3c-1.3,0-2.3,0.4-3,1.1s-1.1,1.8-1.1,3.1v0.7h-2v2.2h2V21.9z M418.8,21.9
			h2.6V14c0-0.7-0.1-1.4-0.2-2.1c-0.2-0.6-0.4-1.2-0.8-1.6c-0.4-0.5-0.9-0.8-1.6-1.1c-0.7-0.3-1.5-0.4-2.5-0.4
			c-1.6,0-2.8,0.3-3.7,0.9c-0.9,0.6-1.5,1.5-1.7,2.7l2.5,0.3c0.1-0.5,0.4-1,0.8-1.3c0.4-0.3,1-0.4,1.9-0.4c0.7,0,1.3,0.2,1.8,0.5
			c0.5,0.4,0.7,1,0.7,2v0.5l-1.9,0.1c-0.8,0-1.6,0.1-2.3,0.2c-0.8,0.1-1.5,0.3-2.1,0.6c-0.6,0.3-1.1,0.7-1.5,1.3
			c-0.4,0.5-0.6,1.3-0.6,2.1c0,0.6,0.1,1.2,0.3,1.7c0.2,0.5,0.5,0.9,0.9,1.2c0.4,0.3,0.8,0.5,1.3,0.7c0.5,0.2,1.1,0.2,1.7,0.2
			c1,0,1.8-0.2,2.5-0.6c0.7-0.4,1.3-0.8,1.7-1.4V21.9z M418.7,16v0.7c0,1.1-0.3,1.9-0.9,2.5c-0.6,0.6-1.5,0.9-2.7,0.9
			c-0.7,0-1.2-0.2-1.5-0.5c-0.3-0.3-0.5-0.7-0.5-1.3c0-0.3,0-0.6,0.1-0.9c0.1-0.3,0.3-0.5,0.5-0.7c0.3-0.2,0.7-0.4,1.2-0.5
			c0.5-0.1,1.2-0.2,2-0.3L418.7,16z M397,4.6v17.3h2.7v-7.5c0-0.4,0.1-0.8,0.2-1.2c0.2-0.4,0.4-0.7,0.7-1c0.3-0.3,0.6-0.5,1.1-0.7
			c0.4-0.2,0.9-0.3,1.4-0.3c0.7,0,1.3,0.2,1.7,0.6c0.4,0.4,0.6,1.1,0.6,2.1v7.9h2.8v-8.4c0-3.1-1.4-4.7-4.2-4.7
			c-0.8,0-1.5,0.2-2.2,0.5c-0.7,0.3-1.3,0.9-1.9,1.6V4.6H397z M391.6,17.5c-0.1,0.8-0.4,1.5-0.8,1.9c-0.4,0.4-1.1,0.7-1.9,0.7
			c-0.6,0-1.1-0.1-1.5-0.4c-0.4-0.2-0.7-0.6-1-0.9c-0.2-0.4-0.4-0.9-0.5-1.4c-0.1-0.6-0.2-1.1-0.2-1.8c0-0.6,0.1-1.1,0.2-1.6
			c0.1-0.5,0.3-1,0.5-1.4c0.2-0.4,0.6-0.7,1-1c0.4-0.3,0.9-0.4,1.5-0.4c0.9,0,1.5,0.2,1.8,0.7c0.4,0.5,0.6,1.1,0.7,1.8l2.7-0.4
			c-0.1-0.6-0.3-1.1-0.5-1.6c-0.2-0.5-0.5-1-0.9-1.4c-0.4-0.4-0.9-0.7-1.5-0.9c-0.6-0.2-1.4-0.4-2.3-0.4c-1,0-1.8,0.2-2.6,0.5
			c-0.8,0.3-1.4,0.8-1.9,1.4c-0.5,0.6-0.9,1.3-1.2,2.1c-0.3,0.8-0.4,1.8-0.4,2.8c0,1,0.1,1.9,0.4,2.7c0.2,0.8,0.6,1.5,1.1,2.1
			c0.5,0.6,1.1,1,1.9,1.3c0.8,0.3,1.6,0.5,2.7,0.5c1.7,0,3-0.4,3.9-1.3c0.9-0.9,1.5-2,1.6-3.5H391.6z M369.9,18.1
			c0,0.8,0.2,1.5,0.6,2.1c0.3,0.5,0.8,1,1.3,1.3c0.5,0.3,1.1,0.6,1.8,0.7c0.7,0.1,1.4,0.2,2.1,0.2c1.8,0,3.1-0.4,4-1.1
			c0.9-0.7,1.3-1.6,1.3-2.8c0-0.5-0.1-1-0.2-1.5c-0.1-0.4-0.4-0.8-0.7-1.2c-0.3-0.3-0.8-0.6-1.3-0.8c-0.6-0.2-1.3-0.4-2.1-0.6
			l-1.6-0.3c-0.4-0.1-0.8-0.2-1.1-0.2c-0.3-0.1-0.5-0.2-0.7-0.3c-0.2-0.1-0.3-0.3-0.4-0.4c-0.1-0.2-0.1-0.4-0.1-0.7
			c0-0.2,0-0.4,0.1-0.5c0.1-0.2,0.2-0.3,0.4-0.5c0.2-0.1,0.5-0.3,0.8-0.4c0.3-0.1,0.8-0.1,1.3-0.1c0.9,0,1.6,0.2,2,0.5
			c0.4,0.3,0.7,0.8,0.9,1.4l2.5-0.3c-0.1-0.5-0.3-0.9-0.5-1.4c-0.2-0.4-0.5-0.8-0.9-1.2c-0.4-0.3-0.9-0.6-1.6-0.8
			c-0.6-0.2-1.5-0.3-2.4-0.3c-0.8,0-1.5,0.1-2.1,0.3c-0.6,0.2-1.2,0.4-1.7,0.8c-0.5,0.3-0.8,0.7-1.1,1.2c-0.3,0.5-0.4,1-0.4,1.6
			c0,0.8,0.1,1.4,0.4,1.8c0.3,0.4,0.6,0.8,1.2,1.1c0.5,0.3,1.2,0.5,1.9,0.7c0.8,0.2,1.6,0.3,2.6,0.5c0.8,0.1,1.3,0.3,1.5,0.6
			c0.3,0.3,0.4,0.6,0.4,1.1c0,0.5-0.2,0.9-0.6,1.2c-0.4,0.3-1.1,0.4-2,0.4c-0.4,0-0.8,0-1.1-0.1c-0.4-0.1-0.7-0.2-0.9-0.3
			c-0.3-0.2-0.5-0.4-0.7-0.6c-0.2-0.3-0.3-0.6-0.3-1H369.9z M362.6,11.5v6.4c0,1.4,0.3,2.5,0.8,3.2c0.6,0.7,1.5,1.1,2.9,1.1
			c0.9,0,1.8-0.1,2.5-0.4l-0.4-2.1c-0.2,0.1-0.5,0.1-0.7,0.2c-0.3,0-0.5,0-0.8,0c-0.5,0-0.9-0.1-1.2-0.4c-0.3-0.3-0.4-0.8-0.4-1.4
			v-6.6h3.1V9.3h-3.1V5.9h-2.7v3.4h-2v2.2H362.6z M351.8,9.3v12.6h2.7v-7.4c0-0.4,0.1-0.7,0.2-1.1c0.1-0.3,0.3-0.7,0.6-0.9
			c0.3-0.3,0.6-0.5,1-0.7c0.4-0.2,0.8-0.3,1.4-0.3c0.2,0,0.4,0,0.7,0c0.2,0,0.4,0,0.6,0.1l0.3-2.5c-0.2,0-0.4-0.1-0.5-0.1
			c-0.2,0-0.4,0-0.7,0c-0.7,0-1.4,0.2-2,0.5c-0.6,0.4-1.1,0.9-1.6,1.5V9.3H351.8z M345.8,21.9h2.8V9.3h-2.8V21.9z M345.8,7.3h2.9
			V4.6h-2.9V7.3z M326.1,9.3l3.7,12.6h2.7l2.6-9.2l2.6,9.2h2.7l3.7-12.6h-2.9l-2.1,9.2l-2.6-9.1h-2.5l-2.7,9.1l-2.1-9.2H326.1z
			 M321.7,21.9h2.7V4.6h-2.7v6.1c-0.5-0.6-1-1-1.5-1.3c-0.5-0.3-1.1-0.4-1.6-0.5c-0.2,0-0.3,0-0.5,0c-0.2,0-0.3,0-0.5,0
			c-0.8,0-1.6,0.2-2.2,0.6c-0.6,0.4-1.2,0.8-1.6,1.4c-0.4,0.6-0.8,1.3-1,2.1c-0.2,0.8-0.3,1.7-0.3,2.6c0,1,0.1,1.9,0.3,2.7
			c0.2,0.8,0.5,1.5,1,2.1c0.4,0.6,1,1,1.7,1.4c0.7,0.3,1.4,0.5,2.4,0.5c0.9,0,1.6-0.2,2.3-0.5c0.7-0.4,1.2-0.9,1.8-1.6V21.9z
			 M321.6,16c0,1.4-0.3,2.4-0.9,3.1c-0.6,0.7-1.4,1-2.4,1c-0.4,0-0.8-0.1-1.2-0.2c-0.4-0.2-0.7-0.4-1-0.8c-0.3-0.4-0.5-0.8-0.7-1.4
			c-0.2-0.6-0.2-1.3-0.2-2.1c0-1.5,0.3-2.6,0.8-3.3c0.6-0.7,1.3-1.1,2.4-1.1c0.4,0,0.9,0.1,1.3,0.2c0.4,0.1,0.7,0.4,1,0.7
			c0.3,0.3,0.5,0.7,0.7,1.3c0.2,0.5,0.3,1.2,0.3,2V16z M298.6,9.3v12.6h2.7v-7.5c0-0.4,0.1-0.8,0.3-1.2c0.2-0.4,0.4-0.7,0.7-1
			c0.3-0.3,0.6-0.5,1.1-0.7c0.4-0.2,0.9-0.3,1.3-0.3c0.7,0,1.3,0.2,1.7,0.6c0.4,0.4,0.6,1.1,0.6,2.1v7.9h2.8v-8.4
			c0-3.1-1.4-4.7-4.2-4.7c-0.8,0-1.6,0.2-2.3,0.5c-0.7,0.4-1.3,0.9-1.9,1.7V9.3H298.6z M292.9,21.9h2.6V14c0-0.7-0.1-1.4-0.2-2.1
			c-0.2-0.6-0.4-1.2-0.8-1.6c-0.4-0.5-0.9-0.8-1.6-1.1s-1.5-0.4-2.5-0.4c-1.6,0-2.8,0.3-3.7,0.9c-0.9,0.6-1.4,1.5-1.7,2.7l2.5,0.3
			c0.1-0.5,0.4-1,0.8-1.3c0.4-0.3,1-0.4,1.9-0.4c0.7,0,1.3,0.2,1.8,0.5c0.5,0.4,0.7,1,0.7,2v0.5l-1.9,0.1c-0.8,0-1.6,0.1-2.3,0.2
			c-0.8,0.1-1.5,0.3-2.1,0.6c-0.6,0.3-1.1,0.7-1.5,1.3c-0.4,0.5-0.6,1.3-0.6,2.1c0,0.6,0.1,1.2,0.3,1.7c0.2,0.5,0.5,0.9,0.9,1.2
			c0.4,0.3,0.8,0.5,1.3,0.7c0.5,0.2,1.1,0.2,1.7,0.2c1,0,1.8-0.2,2.5-0.6c0.7-0.4,1.3-0.8,1.7-1.4V21.9z M292.9,16v0.7
			c0,1.1-0.3,1.9-0.9,2.5c-0.6,0.6-1.5,0.9-2.7,0.9c-0.7,0-1.2-0.2-1.5-0.5c-0.3-0.3-0.5-0.7-0.5-1.3c0-0.3,0-0.6,0.1-0.9
			c0.1-0.3,0.3-0.5,0.5-0.7c0.3-0.2,0.7-0.4,1.2-0.5c0.5-0.1,1.2-0.2,2-0.3L292.9,16z M271.4,4.6v17.3h11.2l0.4-2.6h-8.6V4.6H271.4z
			 M252,18.1c0,0.8,0.2,1.5,0.6,2.1s0.8,1,1.3,1.3c0.5,0.3,1.1,0.6,1.8,0.7c0.7,0.1,1.4,0.2,2.1,0.2c1.8,0,3.1-0.4,4-1.1
			c0.9-0.7,1.3-1.6,1.3-2.8c0-0.5-0.1-1-0.2-1.5c-0.1-0.4-0.4-0.8-0.7-1.2c-0.3-0.3-0.8-0.6-1.3-0.8c-0.6-0.2-1.3-0.4-2.1-0.6
			l-1.6-0.3c-0.4-0.1-0.8-0.2-1.1-0.2c-0.3-0.1-0.5-0.2-0.7-0.3c-0.2-0.1-0.3-0.3-0.4-0.4c-0.1-0.2-0.1-0.4-0.1-0.7
			c0-0.2,0-0.4,0.1-0.5c0.1-0.2,0.2-0.3,0.4-0.5c0.2-0.1,0.5-0.3,0.8-0.4c0.3-0.1,0.8-0.1,1.3-0.1c0.9,0,1.6,0.2,2,0.5
			c0.4,0.3,0.7,0.8,0.9,1.4l2.5-0.3c-0.1-0.5-0.3-0.9-0.5-1.4c-0.2-0.4-0.5-0.8-0.9-1.2c-0.4-0.3-0.9-0.6-1.6-0.8
			c-0.6-0.2-1.5-0.3-2.4-0.3c-0.8,0-1.5,0.1-2.1,0.3c-0.6,0.2-1.2,0.4-1.7,0.8c-0.5,0.3-0.8,0.7-1.1,1.2c-0.3,0.5-0.4,1-0.4,1.6
			c0,0.8,0.1,1.4,0.4,1.8c0.3,0.4,0.6,0.8,1.2,1.1c0.5,0.3,1.2,0.5,1.9,0.7c0.8,0.2,1.6,0.3,2.6,0.5c0.8,0.1,1.3,0.3,1.5,0.6
			c0.3,0.3,0.4,0.6,0.4,1.1c0,0.5-0.2,0.9-0.6,1.2c-0.4,0.3-1.1,0.4-2,0.4c-0.4,0-0.8,0-1.1-0.1c-0.4-0.1-0.7-0.2-0.9-0.3
			c-0.3-0.2-0.5-0.4-0.7-0.6c-0.2-0.3-0.3-0.6-0.3-1H252z M241.1,14.4c0.1-1,0.4-1.8,0.9-2.4c0.5-0.6,1.3-0.9,2.3-0.9
			c1.1,0,1.8,0.3,2.3,0.9c0.5,0.6,0.7,1.4,0.7,2.5H241.1z M247.3,18.2c-0.1,0.6-0.4,1.1-0.9,1.5c-0.4,0.3-1.1,0.5-2,0.5
			c-1.1,0-2-0.4-2.5-1.1c-0.6-0.7-0.8-1.6-0.9-2.8h9.1v-1.2c0-0.9-0.1-1.8-0.3-2.5c-0.2-0.8-0.6-1.4-1-1.9c-0.5-0.5-1.1-1-1.8-1.3
			c-0.7-0.3-1.6-0.5-2.5-0.5c-0.9,0-1.7,0.1-2.5,0.5c-0.8,0.3-1.4,0.7-1.9,1.3c-0.5,0.6-1,1.3-1.3,2.1c-0.3,0.8-0.5,1.8-0.5,2.9
			c0,2.1,0.5,3.7,1.6,4.9c1,1.2,2.6,1.7,4.6,1.7c1.7,0,2.9-0.4,3.8-1.1c0.9-0.7,1.4-1.7,1.7-3H247.3z M224.6,4.6v17.3h2.7v-7.5
			c0-0.4,0.1-0.8,0.2-1.2c0.2-0.4,0.4-0.7,0.7-1c0.3-0.3,0.6-0.5,1.1-0.7c0.4-0.2,0.9-0.3,1.4-0.3c0.7,0,1.3,0.2,1.7,0.6
			c0.4,0.4,0.6,1.1,0.6,2.1v7.9h2.8v-8.4c0-3.1-1.4-4.7-4.2-4.7c-0.8,0-1.5,0.2-2.2,0.5c-0.7,0.3-1.3,0.9-1.9,1.6V4.6H224.6z
			 M219.2,17.5c-0.1,0.8-0.4,1.5-0.8,1.9c-0.4,0.4-1.1,0.7-1.9,0.7c-0.6,0-1.1-0.1-1.5-0.4c-0.4-0.2-0.7-0.6-1-0.9
			c-0.2-0.4-0.4-0.9-0.5-1.4c-0.1-0.6-0.2-1.1-0.2-1.8c0-0.6,0.1-1.1,0.2-1.6c0.1-0.5,0.3-1,0.5-1.4c0.2-0.4,0.6-0.7,1-1
			c0.4-0.3,0.9-0.4,1.5-0.4c0.9,0,1.5,0.2,1.8,0.7c0.4,0.5,0.6,1.1,0.7,1.8l2.7-0.4c-0.1-0.6-0.3-1.1-0.5-1.6
			c-0.2-0.5-0.5-1-0.9-1.4c-0.4-0.4-0.9-0.7-1.5-0.9c-0.6-0.2-1.4-0.4-2.3-0.4c-1,0-1.8,0.2-2.6,0.5c-0.8,0.3-1.4,0.8-1.9,1.4
			c-0.5,0.6-0.9,1.3-1.2,2.1c-0.3,0.8-0.4,1.8-0.4,2.8c0,1,0.1,1.9,0.4,2.7c0.2,0.8,0.6,1.5,1.1,2.1c0.5,0.6,1.1,1,1.9,1.3
			c0.8,0.3,1.6,0.5,2.7,0.5c1.7,0,3-0.4,3.9-1.3c0.9-0.9,1.5-2,1.6-3.5H219.2z M197.5,18.1c0,0.8,0.2,1.5,0.6,2.1s0.8,1,1.3,1.3
			c0.5,0.3,1.1,0.6,1.8,0.7c0.7,0.1,1.4,0.2,2.1,0.2c1.8,0,3.1-0.4,4-1.1c0.9-0.7,1.3-1.6,1.3-2.8c0-0.5-0.1-1-0.2-1.5
			c-0.1-0.4-0.4-0.8-0.7-1.2c-0.3-0.3-0.8-0.6-1.3-0.8c-0.6-0.2-1.3-0.4-2.1-0.6l-1.6-0.3c-0.4-0.1-0.8-0.2-1.1-0.2
			c-0.3-0.1-0.5-0.2-0.7-0.3c-0.2-0.1-0.3-0.3-0.4-0.4c-0.1-0.2-0.1-0.4-0.1-0.7c0-0.2,0-0.4,0.1-0.5c0.1-0.2,0.2-0.3,0.4-0.5
			c0.2-0.1,0.5-0.3,0.8-0.4c0.3-0.1,0.8-0.1,1.3-0.1c0.9,0,1.6,0.2,2,0.5c0.4,0.3,0.7,0.8,0.9,1.4l2.5-0.3c-0.1-0.5-0.3-0.9-0.5-1.4
			c-0.2-0.4-0.5-0.8-0.9-1.2c-0.4-0.3-0.9-0.6-1.6-0.8C204.8,9,204,8.9,203,8.9c-0.8,0-1.5,0.1-2.1,0.3c-0.6,0.2-1.2,0.4-1.7,0.8
			c-0.5,0.3-0.8,0.7-1.1,1.2c-0.3,0.5-0.4,1-0.4,1.6c0,0.8,0.1,1.4,0.4,1.8c0.3,0.4,0.6,0.8,1.2,1.1c0.5,0.3,1.2,0.5,1.9,0.7
			c0.8,0.2,1.6,0.3,2.6,0.5c0.8,0.1,1.3,0.3,1.5,0.6c0.3,0.3,0.4,0.6,0.4,1.1c0,0.5-0.2,0.9-0.6,1.2c-0.4,0.3-1.1,0.4-2,0.4
			c-0.4,0-0.8,0-1.1-0.1c-0.4-0.1-0.7-0.2-0.9-0.3c-0.3-0.2-0.5-0.4-0.7-0.6c-0.2-0.3-0.3-0.6-0.3-1H197.5z M192.3,21.9h2.8V9.3
			h-2.8V21.9z M192.2,7.3h2.9V4.6h-2.9V7.3z M182.7,9.3v12.6h2.7v-7.4c0-0.4,0.1-0.7,0.2-1.1c0.1-0.3,0.3-0.7,0.6-0.9
			c0.3-0.3,0.6-0.5,1-0.7c0.4-0.2,0.8-0.3,1.4-0.3c0.2,0,0.4,0,0.7,0c0.2,0,0.4,0,0.6,0.1l0.3-2.5c-0.2,0-0.4-0.1-0.5-0.1
			c-0.2,0-0.4,0-0.7,0c-0.7,0-1.4,0.2-2,0.5c-0.6,0.4-1.1,0.9-1.6,1.5V9.3H182.7z M171,14.4c0.1-1,0.4-1.8,0.9-2.4
			c0.5-0.6,1.3-0.9,2.3-0.9c1.1,0,1.8,0.3,2.3,0.9c0.5,0.6,0.7,1.4,0.7,2.5H171z M177.2,18.2c-0.1,0.6-0.4,1.1-0.9,1.5
			c-0.4,0.3-1.1,0.5-2,0.5c-1.1,0-2-0.4-2.5-1.1c-0.6-0.7-0.8-1.6-0.9-2.8h9.1v-1.2c0-0.9-0.1-1.8-0.3-2.5c-0.2-0.8-0.6-1.4-1-1.9
			c-0.5-0.5-1.1-1-1.8-1.3c-0.7-0.3-1.6-0.5-2.5-0.5c-0.9,0-1.7,0.1-2.5,0.5c-0.8,0.3-1.4,0.7-1.9,1.3c-0.5,0.6-1,1.3-1.3,2.1
			c-0.3,0.8-0.4,1.8-0.4,2.9c0,2.1,0.5,3.7,1.6,4.9c1,1.2,2.6,1.7,4.6,1.7c1.7,0,2.9-0.4,3.8-1.1c0.9-0.7,1.4-1.7,1.7-3H177.2z
			 M155.6,26.3c0.4,0.1,0.8,0.2,1.1,0.3c0.4,0.1,0.7,0.1,1.2,0.1c0.6,0,1.2-0.1,1.6-0.3c0.4-0.2,0.8-0.5,1.2-0.9
			c0.3-0.4,0.6-0.9,0.9-1.4c0.3-0.6,0.5-1.2,0.8-2l5-12.8h-3l-3.2,9.1l-3.5-9.1h-3.2l5.3,12.2l-0.5,1.2c-0.2,0.6-0.5,1.1-0.8,1.3
			c-0.3,0.2-0.7,0.4-1.1,0.4c-0.5,0-1-0.1-1.4-0.2L155.6,26.3z M150.5,21.9h2.6V14c0-0.7-0.1-1.4-0.2-2.1c-0.2-0.6-0.4-1.2-0.8-1.6
			c-0.4-0.5-0.9-0.8-1.6-1.1s-1.5-0.4-2.5-0.4c-1.6,0-2.8,0.3-3.7,0.9c-0.9,0.6-1.4,1.5-1.7,2.7l2.5,0.3c0.1-0.5,0.4-1,0.8-1.3
			c0.4-0.3,1-0.4,1.9-0.4c0.7,0,1.3,0.2,1.8,0.5c0.5,0.4,0.7,1,0.7,2v0.5l-1.9,0.1c-0.8,0-1.6,0.1-2.3,0.2c-0.8,0.1-1.5,0.3-2.1,0.6
			c-0.6,0.3-1.1,0.7-1.5,1.3c-0.4,0.5-0.6,1.3-0.6,2.1c0,0.6,0.1,1.2,0.3,1.7c0.2,0.5,0.5,0.9,0.9,1.2c0.4,0.3,0.8,0.5,1.3,0.7
			c0.5,0.2,1.1,0.2,1.7,0.2c1,0,1.8-0.2,2.5-0.6c0.7-0.4,1.3-0.8,1.7-1.4V21.9z M150.5,16v0.7c0,1.1-0.3,1.9-0.9,2.5
			c-0.6,0.6-1.5,0.9-2.7,0.9c-0.7,0-1.2-0.2-1.5-0.5c-0.3-0.3-0.5-0.7-0.5-1.3c0-0.3,0-0.6,0.1-0.9c0.1-0.3,0.3-0.5,0.5-0.7
			c0.3-0.2,0.7-0.4,1.2-0.5c0.5-0.1,1.2-0.2,2-0.3L150.5,16z M130.4,19.6v-5.5h3.8c1.2,0,2.1,0.2,2.6,0.7c0.5,0.5,0.7,1.1,0.7,2
			c0,0.4-0.1,0.8-0.2,1.1s-0.3,0.6-0.6,0.9c-0.3,0.2-0.6,0.4-1.1,0.6c-0.5,0.1-1,0.2-1.7,0.2H130.4z M130.4,11.7V6.9h3.1
			c1.3,0,2.2,0.2,2.7,0.5c0.5,0.4,0.8,1,0.8,1.8c0,0.8-0.2,1.4-0.7,1.8c-0.5,0.4-1.3,0.6-2.4,0.6H130.4z M127.6,21.9h6.4
			c1.2,0,2.2-0.1,3-0.4c0.8-0.3,1.5-0.6,2-1.1c0.5-0.5,0.9-1,1.1-1.6c0.2-0.6,0.3-1.3,0.3-2c0-0.4,0-0.8-0.1-1.2
			c-0.1-0.4-0.2-0.7-0.4-1.1c-0.2-0.3-0.5-0.7-0.9-1c-0.4-0.3-0.8-0.6-1.4-0.8c0.9-0.4,1.5-0.9,1.8-1.5c0.3-0.6,0.5-1.3,0.5-2
			c0-0.6-0.1-1.2-0.3-1.8c-0.2-0.6-0.5-1-1-1.5c-0.5-0.4-1.1-0.7-1.9-1c-0.8-0.2-1.8-0.4-3.1-0.4h-6V21.9z"/>
	</g>
	<polygon class="st1" points="76,39.5 68.4,5.1 48.2,5.1 36.7,57.9 26.2,4.6 2.8,4.6 24.7,86.3 46.4,86.3 58,34 65.5,67 	"/>
	<g>
		<path class="st0" d="M87.4,60.1c0,0,5.2,2.4,10,0.2c4.8-2.2,7.4-12,7.4-12s-6.2,0.7-11,2.9C89,53.4,87.4,60.1,87.4,60.1 M82,73.6
			c0,0,5.2,2.4,10,0.2c4.8-2.2,7.4-12,7.4-12s-6.2,0.7-11,2.9C83.6,66.9,82,73.6,82,73.6 M76.7,75.7c-1.9-4.9-6-9.7-6-9.7
			s-4.9,8.8-3,13.7c1.9,4.9,7.3,6.8,7.3,6.8S78.6,80.6,76.7,75.7 M76.5,87.1c0,0,5.2,2.4,10,0.2c4.8-2.2,7.4-12,7.4-12
			s-6.2,0.7-11,2.9C78.1,80.4,76.5,87.1,76.5,87.1 M92.9,46.7c0,0,5.2,2.4,10,0.2c4.8-2.2,7.4-12,7.4-12s-6.2,0.7-11,2.9
			C94.5,39.9,92.9,46.7,92.9,46.7 M96.1,36.6c0,0,5.9-1,8-6c2-5-0.3-13-0.3-13s-7.2,4.2-9.3,9.2C92.5,31.8,96.1,36.6,96.1,36.6
			 M80.6,73c0,0,3.5-5.9,1.6-10.8c-1.9-4.9-6-9.7-6-9.7s-4.9,8.8-3,13.7C75.1,71.1,80.6,73,80.6,73 M86,59.5c0,0,3.5-5.9,1.6-10.8
			c-1.9-4.9-6-9.7-6-9.7s-4.9,8.8-3,13.7C80.6,57.6,86,59.5,86,59.5 M84.1,39.3c-1.9-4.9,3-13.7,3-13.7s4,4.8,6,9.7
			c1.9,4.9-1.6,10.8-1.6,10.8S86,44.2,84.1,39.3"/>
		<path class="st1" d="M96.1,36.6c0,0,5.9-1,8-6s-0.3-13-0.3-13s-7.2,4.2-9.3,9.2C92.5,31.8,96.1,36.6,96.1,36.6"/>
	</g>
	<line class="st2" x1="97.6" y1="10.2" x2="91.5" y2="25.5"/>
	<line class="st2" x1="109.7" y1="2.8" x2="105.1" y2="14.3"/>
	<line class="st2" x1="113.3" y1="16.5" x2="107.2" y2="31.8"/>
	<g>
		<path class="st0" d="M98.5,30.7c0,0,4.1-0.7,5.5-4.1c1.4-3.4-0.2-8.9-0.2-8.9s-5,2.9-6.4,6.3C96,27.4,98.5,30.7,98.5,30.7"/>
		<path class="st1" d="M91.4,46.1c0,0-5.4-1.9-7.3-6.8c-1.9-4.9,3-13.7,3-13.7s-3,5.3,2.3,11.9C94,43.2,91.4,46.1,91.4,46.1"/>
		<path class="st1" d="M92.9,46.6c0,0,5.2,2.4,10,0.2c4.8-2.2,7.4-12,7.4-12s-1.4,5.4-9.7,6.5C93.2,42.3,92.9,46.6,92.9,46.6"/>
	</g>
	<line class="st3" x1="103.7" y1="6.4" x2="99.1" y2="17.8"/>
	<line class="st3" x1="111.6" y1="9.5" x2="107" y2="21"/>
	<g>
		<path class="st1" d="M86,59.5c0,0-5.4-1.9-7.3-6.8c-1.9-4.9,3-13.7,3-13.7s-3,5.3,2.3,11.9C88.6,56.7,86,59.5,86,59.5"/>
		<path class="st1" d="M80.6,73c0,0-5.4-1.9-7.3-6.8c-1.9-4.9,3-13.7,3-13.7s-3,5.3,2.3,11.9C83.1,70.1,80.6,73,80.6,73"/>
		<path class="st1" d="M75.1,86.5c0,0-5.4-1.9-7.3-6.8c-1.9-4.9,3-13.7,3-13.7s-3,5.3,2.3,11.9C77.7,83.6,75.1,86.5,75.1,86.5"/>
		<path class="st1" d="M87.4,60.1c0,0,5.2,2.4,10,0.2c4.8-2.2,7.4-12,7.4-12s-1.4,5.4-9.7,6.5C87.8,55.8,87.4,60.1,87.4,60.1"/>
		<path class="st1" d="M82,73.6c0,0,5.2,2.4,10,0.2c4.8-2.2,7.4-12,7.4-12s-1.4,5.4-9.7,6.5C82.3,69.3,82,73.6,82,73.6"/>
		<path class="st1" d="M76.5,87.1c0,0,5.2,2.4,10,0.2c4.8-2.2,7.4-12,7.4-12s-1.4,5.4-9.7,6.5C76.9,82.8,76.5,87.1,76.5,87.1"/>
		<path class="st1" d="M437.7,70c0,2.3-0.7,4.1-2.1,5.4c-1.4,1.3-3.2,2-5.6,2c-3.1,0-4.7-1.3-4.7-3.8c0-1.5,0.6-2.7,1.9-3.4
			c1.2-0.8,3.2-1.2,5.9-1.4l4.6-0.2V70z M451.5,86.1V60.3c0-5.7-1.5-10-4.5-12.8c-3-2.8-7.6-4.2-13.9-4.2
			c-11.3,0-17.7,4.4-19.1,13.1l12.9,1c0.5-2.7,2.3-4.1,5.6-4.1c3.5,0,5.3,1.8,5.3,5.4v1.7l-6.2,0.3c-6.7,0.3-11.7,1.6-15,3.9
			c-3.3,2.3-4.9,5.6-4.9,10c0,3.8,1.2,6.9,3.7,9.1c2.5,2.2,5.9,3.4,10.2,3.4c2.5,0,4.8-0.4,6.8-1.3c2-0.9,3.9-2.3,5.8-4.3v4.5H451.5
			z M405.7,29.7h-14.3v56.4h14.3V29.7z M356.4,64.7c0-3.2,0.6-5.6,1.7-7.2c1.2-1.7,2.9-2.6,5.2-2.6c4.6,0,6.9,3.5,6.9,10.5
			c0,7.1-2.3,10.6-7,10.6c-2.3,0-4-0.8-5.1-2.4c-1.1-1.6-1.7-4.2-1.7-7.7V64.7z M356,86.1v-4.3c2.6,3.7,6.3,5.5,11.3,5.5
			c3.5,0,6.6-0.9,9.2-2.6c2.6-1.8,4.6-4.3,6-7.7c1.4-3.4,2.1-7.5,2.1-12.2c0-6.8-1.4-12-4.3-15.8c-2.9-3.7-7-5.6-12.2-5.6
			c-4.9,0-8.8,1.8-11.7,5.4v-19h-14.3v56.4H356z M334.4,86.1V58.4c0-4.8-1.1-8.5-3.4-11.1c-2.3-2.6-5.6-3.9-10-3.9
			c-5.3,0-9.4,2.1-12.6,6.2v-4.9h-13.9v41.4h14.3v-24c0-2.2,0.6-3.9,1.9-5.1c1.3-1.2,2.8-1.8,4.7-1.8c1.6,0,2.8,0.4,3.6,1.3
			c0.7,0.9,1.1,2.3,1.1,4.2v25.4H334.4z M260.6,60.6c0.5-4.7,3-7.1,7.4-7.1c2.2,0,3.9,0.6,4.9,1.7c1.1,1.1,1.7,2.9,1.8,5.4H260.6z
			 M274.2,72.7c-0.8,2.9-3,4.3-6.6,4.3c-2.3,0-4-0.7-5.1-2c-1.1-1.3-1.8-3.4-2-6.4h27.3v-4.5c0-6.6-1.8-11.7-5.2-15.4
			c-3.5-3.7-8.4-5.5-14.6-5.5c-6.6,0-11.8,2-15.5,6c-3.7,4-5.6,9.5-5.6,16.7c0,6.9,1.8,12.2,5.4,15.9c3.6,3.6,8.8,5.4,15.6,5.4
			c5.7,0,10.2-1.2,13.5-3.7c3.3-2.4,5.4-6.1,6.2-10.9H274.2z M240.5,86.1V58.4c0-4.8-1.1-8.5-3.4-11.1c-2.3-2.6-5.6-3.9-10-3.9
			c-5,0-9.1,1.9-12.2,5.7V29.7h-14.3v56.4h14.3v-24c0-2.2,0.6-3.9,1.9-5.1c1.3-1.2,2.8-1.8,4.7-1.8c1.6,0,2.8,0.4,3.6,1.3
			c0.7,0.9,1.1,2.3,1.1,4.2v25.4H240.5z M181.1,70.1c-0.2,1.9-0.7,3.4-1.7,4.4c-1,1-2.3,1.5-3.9,1.5c-4.2,0-6.3-3.6-6.3-10.7
			c0-7.2,2.1-10.7,6.3-10.7c1.5,0,2.6,0.4,3.5,1.3c0.8,0.9,1.4,2.3,1.8,4.2l13.7-1.3c-0.6-4.9-2.5-8.8-5.7-11.4
			c-3.2-2.7-7.5-4-12.9-4c-6.6,0-11.8,2-15.5,5.9c-3.7,3.9-5.6,9.4-5.6,16.5c0,6.9,1.8,12.2,5.4,16c3.6,3.8,8.7,5.6,15.4,5.6
			c5.8,0,10.3-1.5,13.7-4.4c3.3-2.9,5.2-7.2,5.8-12.8H181.1z M127.7,54.7c4.7,0,7,3.6,7,10.7c0,7.2-2.3,10.7-7,10.7
			c-4.7,0-7-3.6-7-10.7C120.7,58.2,123,54.7,127.7,54.7 M143.5,81.5c3.8-3.9,5.7-9.3,5.7-16.3c0-6.9-1.9-12.3-5.6-16.1
			c-3.7-3.8-9-5.8-15.7-5.8c-6.8,0-12.1,1.9-15.9,5.8c-3.8,3.9-5.7,9.3-5.7,16.3c0,6.9,1.9,12.2,5.6,16.1c3.7,3.8,9,5.7,15.7,5.7
			C134.4,87.3,139.7,85.4,143.5,81.5"/>
		<path class="st1" d="M506.5,55.8h9V44.6h-9V33.8h-14.3v10.9h-15.5V33.8h-14.3v10.9h-6.6v11.1h6.6v15.4c0,5.5,1.2,9.5,3.6,12
			c2.4,2.4,6.2,3.7,11.4,3.7c3.3,0,6.6-0.5,9.8-1.5l-1.8-10.4c-1.3,0.3-2.6,0.5-3.9,0.5c-1.7,0-2.9-0.4-3.6-1.1
			c-0.7-0.8-1.1-2-1.1-3.7V55.8h15.5v15.4c0,5.5,1.2,9.5,3.6,12c2.4,2.4,6.2,3.7,11.4,3.7c3.3,0,6.6-0.5,9.8-1.5l-1.8-10.4
			c-1.3,0.3-2.6,0.5-3.9,0.5c-1.7,0-2.9-0.4-3.6-1.1c-0.7-0.8-1.1-2-1.1-3.7V55.8z"/>
	</g>
</g>
</svg>
