<?xml version="1.0" encoding="utf-8"?>
<svg width="699" height="698" viewBox="0 0 699 698" fill="none" xmlns="http://www.w3.org/2000/svg">
<rect width="698" height="698" fill="white" transform="translate(0.752197)"/>
<path d="M0 0H698V698H0V0Z" transform="translate(0.752197)" fill="#FFBB00"/>
<path d="M0 329.25V0H118.268C160.63 0 192.816 7.76391 214.827 23.2917C236.988 38.8195 248.068 61.3575 248.068 90.9056C248.068 107.941 244.149 122.489 236.309 134.549C228.47 146.61 216.937 155.504 201.711 161.233C218.897 165.756 232.088 174.198 241.284 186.56C250.48 198.922 255.078 213.997 255.078 231.787C255.078 264.048 244.827 288.32 224.324 304.601C203.972 320.732 173.746 328.948 133.645 329.25H0ZM79.3728 189.274V268.194H131.383C145.705 268.194 156.71 264.953 164.399 258.47C172.087 251.837 175.932 242.566 175.932 230.656C175.932 203.218 162.288 189.424 135.002 189.274H79.3728ZM79.3728 137.263H120.755C138.092 137.112 150.454 133.946 157.841 127.765C165.228 121.584 168.922 112.464 168.922 100.403C168.922 86.5337 164.927 76.5838 156.936 70.5536C148.946 64.3726 136.057 61.2821 118.268 61.2821H79.3728V137.263Z" transform="translate(69.9117 194.572)" fill="white"/>
<path d="M421.286 239.701L486.865 0H575.509L464.704 329.25H377.869L267.968 0H355.934L421.286 239.701Z" transform="translate(69.9117 194.572)" fill="white"/>
</svg>