<svg xmlns="http://www.w3.org/2000/svg" width="94.32" height="28.872" viewBox="0 0 94.32 28.872">
  <g id="g5088" transform="translate(-27.1 -27.7)">
    <path id="polygon10" d="M78.5,56.431,83.29,28.4h7.574L86.139,56.431Z" transform="translate(-18.126 -0.247)" fill="#41342b"/>
    <path id="path12" d="M120.617,28.865a19.339,19.339,0,0,0-6.862-1.165c-7.574,0-12.882,3.819-12.882,9.257-.065,4.014,3.819,6.279,6.668,7.639,2.978,1.359,3.949,2.266,3.949,3.5,0,1.877-2.4,2.719-4.6,2.719a16.233,16.233,0,0,1-7.186-1.489l-.971-.453L97.7,55.083a23.75,23.75,0,0,0,8.48,1.489c8.027,0,13.271-3.755,13.271-9.581,0-3.172-2.007-5.632-6.409-7.639-2.654-1.295-4.273-2.136-4.273-3.5,0-1.165,1.359-2.4,4.4-2.4a13.037,13.037,0,0,1,5.7,1.1l.712.324,1.036-6.02Z" transform="translate(-24.896)" fill="#41342b"/>
    <path id="path14" d="M151.733,28.5h-5.891a3.879,3.879,0,0,0-4.014,2.33L130.5,56.531h8.027s1.295-3.431,1.618-4.208h9.775c.259.971.906,4.208.906,4.208h7.056L151.733,28.5m-9.387,18.061c.647-1.618,3.043-7.833,3.043-7.833-.065.065.647-1.618,1.036-2.654l.518,2.4s1.489,6.668,1.748,8.092Z" transform="translate(-36.463 -0.282)" fill="#41342b"/>
    <path id="path16" d="M58.338,28.4,50.829,47.562l-.777-3.884C48.628,39.211,44.29,34.356,39.5,31.9l6.8,24.535h8.092L66.43,28.465,58.338,28.4Z" transform="translate(-4.373 -0.247)" fill="#41342b"/>
    <path id="path18" d="M39.529,28.4h-12.3l-.129.583c9.581,2.33,15.925,7.963,18.579,14.7L43.025,30.8c-.518-1.813-1.813-2.33-3.5-2.4Z" transform="translate(0 -0.247)" fill="#97918e"/>
  </g>
</svg>
