<svg xmlns="http://www.w3.org/2000/svg" width="116.523" height="49.436" viewBox="0 0 116.523 49.436">
  <g id="sepa" transform="translate(-5.7 -10.7)">
    <g id="Gruppe_4196" data-name="Gruppe 4196" transform="translate(20.62 18.906)">
      <path id="Pfad_21277" data-name="Pfad 21277" d="M114.961,39.026v-6.16c0-.3.061-.366.366-.366h8.233c.3,0,.366.061.366.366v1.891c0,.3-.061.366-.366.366h-5.184c-.366,0-.427.122-.427.427v1.83c0,.244.061.3.3.3H122.4c.3,0,.366.061.366.366v1.586c0,.3-.061.427-.366.366h-4.086c-.366,0-.427.122-.427.427v2.257c0,.3.061.366.366.366h5.184c.3,0,.427.061.427.427v1.891c0,.244-.061.3-.3.3H115.2c-.3,0-.3-.122-.3-.366C114.961,43.173,114.961,41.1,114.961,39.026Z" transform="translate(-62.441 -26.63)" fill="#41342b"/>
      <path id="Pfad_21278" data-name="Pfad 21278" d="M163.25,45.551h-2.2c-1.1,0-1.1,0-1.4-1.037-.122-.427-.244-.793-.366-1.22-.061-.183-.122-.244-.3-.244h-4.269c-.183,0-.244.122-.3.244l-.549,2.013c-.061.244-.183.3-.427.3h-2.44c-.3,0-.366-.061-.3-.366,1.22-3.476,2.44-6.953,3.6-10.49.244-.671.427-1.281.671-1.952.061-.183.122-.3.427-.3h2.988a.334.334,0,0,1,.366.244c1.464,4.269,2.988,8.477,4.452,12.746C163.25,45.49,163.25,45.49,163.25,45.551Zm-7.928-5.306c-.061.3.061.3.244.3h2.622c.3,0,.366-.061.244-.366-.488-1.647-.915-3.354-1.4-5.062,0-.122,0-.244-.183-.3C156.358,36.647,155.809,38.477,155.321,40.245Z" transform="translate(-76.394 -26.63)" fill="#41342b"/>
      <path id="Pfad_21279" data-name="Pfad 21279" d="M100.206,45.609a9.641,9.641,0,0,1-3.476-.793c-.244-.122-.3-.244-.244-.488.122-.61.183-1.22.3-1.83.061-.3.122-.366.427-.183a6.556,6.556,0,0,0,4.025.732,1.8,1.8,0,0,0,.793-.3,1.14,1.14,0,0,0,.061-1.891,6.2,6.2,0,0,0-1.708-.793,18.629,18.629,0,0,1-1.952-.793,3.464,3.464,0,0,1-1.891-3.354,3.634,3.634,0,0,1,2.379-3.476,7.478,7.478,0,0,1,4.33-.183,11.881,11.881,0,0,1,1.4.366c.244.061.3.183.244.427-.122.61-.183,1.281-.3,1.891-.061.244-.122.3-.366.244a11.347,11.347,0,0,0-2.5-.488,5.461,5.461,0,0,0-1.4.122c-.61.183-.976.488-1.037.976-.061.61.3.915.793,1.159a8.816,8.816,0,0,0,1.769.671c.488.183.915.366,1.342.549a3.553,3.553,0,0,1,2.013,4.33,3.827,3.827,0,0,1-3.293,2.988A5.262,5.262,0,0,1,100.206,45.609Z" transform="translate(-55.249 -26.444)" fill="#41342b"/>
      <path id="Pfad_21280" data-name="Pfad 21280" d="M141.342,61.117a1.827,1.827,0,0,1,1.1-.366,1.5,1.5,0,0,1,1.769,1.586c.061,1.1,0,2.135,0,3.232,0,.183-.061.244-.244.244-1.037.061-1.037.061-1.037-.976V62.7a.781.781,0,0,0-.427-.793,1.154,1.154,0,0,0-1.1.183.515.515,0,0,0-.122.427v2.927c0,.244-.061.3-.3.3-.976,0-.976,0-.976-.976V59.714c0-.244.061-.366.366-.366s.671-.183.854,0,.061.61.061.915A4.026,4.026,0,0,1,141.342,61.117Z" transform="translate(-72.233 -37.072)" fill="#41342b"/>
      <path id="Pfad_21281" data-name="Pfad 21281" d="M96.461,62.863V60.179c0-.244.061-.366.3-.3.366,0,.793-.122.976.061.244.183.061.671.061,1.037v3.415c0,.3.061.366.366.366h1.891c.183,0,.244.061.244.244.061.976.061.976-.915.976H96.7c-.244,0-.3-.061-.3-.3C96.461,64.754,96.461,63.778,96.461,62.863Z" transform="translate(-55.224 -37.294)" fill="#41342b"/>
      <path id="Pfad_21282" data-name="Pfad 21282" d="M125.583,65.434a3.7,3.7,0,0,0,1.1.3c.061,0,.183.061.244,0,.3,0,.671,0,.732-.366.122-.427-.244-.488-.549-.61s-.61-.183-.915-.3a1.323,1.323,0,0,1-.793-1.281,1.249,1.249,0,0,1,.915-1.281,3.844,3.844,0,0,1,2.2,0c.244.061.183.244.183.427-.061.671-.061.671-.671.549a2.325,2.325,0,0,0-.915-.061c-.183.061-.366.122-.366.3-.061.244.122.366.3.427.3.122.549.183.854.3.854.3,1.159.732,1.1,1.525a1.405,1.405,0,0,1-1.342,1.4,2.915,2.915,0,0,1-1.769-.183c-.244-.061-.3-.183-.3-.488A1.247,1.247,0,0,1,125.583,65.434Z" transform="translate(-66.538 -38.036)" fill="#41342b"/>
      <path id="Pfad_21283" data-name="Pfad 21283" d="M114.025,66.8a3.932,3.932,0,0,1-1.22-.183c-.183-.061-.3-.183-.244-.366.061-.244-.061-.549.122-.671s.427.122.671.183a2.325,2.325,0,0,0,.915.061c.244-.061.488-.122.488-.427.061-.244-.183-.366-.366-.488-.3-.122-.61-.183-.915-.3a1.42,1.42,0,0,1,.183-2.744,4,4,0,0,1,1.708.061.426.426,0,0,1,.366.488c-.061.671-.061.671-.671.549a2.64,2.64,0,0,0-.976-.061c-.183.061-.3.122-.366.3s.122.3.244.366c.3.122.549.183.854.3a1.378,1.378,0,0,1,1.1,1.647,1.481,1.481,0,0,1-1.525,1.342C114.33,66.8,114.147,66.8,114.025,66.8Z" transform="translate(-61.505 -38.057)" fill="#41342b"/>
      <path id="Pfad_21284" data-name="Pfad 21284" d="M161.31,65.765c-.61,0-.61,0-.61-.61V62.105c0-.244,0-.366-.3-.3-.244.061-.3-.061-.3-.3v-.244c-.061-.244.061-.427.366-.366.183.061.244-.061.244-.244a1.438,1.438,0,0,1,1.525-1.342h.488c.549.061.549.061.488.549,0,.3-.122.366-.366.3-.427-.061-.732.122-.793.366,0,.183,0,.3.183.244h.3c.366-.061.488.061.549.488,0,.427-.122.488-.488.488-.549-.061-.549,0-.549.549v2.988c0,.366-.061.549-.488.488Z" transform="translate(-80.065 -37.085)" fill="#41342b"/>
      <path id="Pfad_21285" data-name="Pfad 21285" d="M119.81,63.521V62.363c0-.183-.061-.3-.3-.3-.244.061-.3-.061-.3-.3v-.366c0-.244.061-.3.3-.3a.284.284,0,0,0,.366-.3c0-.183.061-.3.061-.488,0-.244.122-.3.366-.3.732-.061.732-.061.732.61,0,.61-.061.488.488.488.61,0,.732.244.61.854a.131.131,0,0,1-.122.122h-.122c-.854.061-.854.061-.854.854v1.525c0,.488.183.671.671.61.244,0,.3,0,.3.244.122.793.122.793-.671.793a1.351,1.351,0,0,1-1.586-1.525C119.749,64.192,119.81,63.887,119.81,63.521Z" transform="translate(-64.119 -37.342)" fill="#41342b"/>
      <path id="Pfad_21286" data-name="Pfad 21286" d="M132.584,64.322a2.888,2.888,0,0,1,.061-1.037,1.841,1.841,0,0,1,1.83-1.586,3.951,3.951,0,0,1,1.22.122c.183.061.3.122.244.366v.122c-.061.61-.061.61-.671.549-.976-.122-1.4.244-1.464,1.22v.244c.061,1.1.671,1.586,1.708,1.281.366-.122.366,0,.427.3,0,.671,0,.732-.671.854a2.707,2.707,0,0,1-1.4-.122,1.98,1.98,0,0,1-1.281-1.952C132.584,64.566,132.584,64.383,132.584,64.322Z" transform="translate(-69.33 -38.022)" fill="#41342b"/>
      <path id="Pfad_21287" data-name="Pfad 21287" d="M166.61,63.509v-1.22c0-.183-.061-.3-.3-.3-.244.061-.3-.061-.3-.3v-.366c0-.183.061-.3.244-.3q.366.091.366-.366V60.52c.122-.732.244-.793.976-.732.183,0,.183.061.183.183v.793c0,.183.061.244.244.244h.244c.671,0,.793.183.61.793-.061.183-.122.122-.244.122-.3,0-.671-.122-.793.061-.183.244-.061.61-.061.915v1.464c0,.488.183.671.671.61.3-.061.366.061.366.3v.366c0,.122,0,.183-.122.244a1.892,1.892,0,0,1-1.525-.122,1.132,1.132,0,0,1-.61-1.037,4,4,0,0,0,.061-1.22Z" transform="translate(-82.376 -37.269)" fill="#41342b"/>
      <path id="Pfad_21288" data-name="Pfad 21288" d="M150.259,62.454a1.572,1.572,0,0,1,1.525-.793c.244,0,.366.122.3.366v.183c0,.244.061.488-.061.671s-.427,0-.61,0a1.154,1.154,0,0,0-1.037,1.22v2.2c0,.244-.061.3-.3.3-.976,0-.976,0-.976-.976v-3.6c0-.3.061-.427.366-.427C150.076,61.722,150.076,61.722,150.259,62.454Z" transform="translate(-75.783 -37.983)" fill="#41342b"/>
      <path id="Pfad_21289" data-name="Pfad 21289" d="M157.342,64.339v2.2c0,.244-.061.3-.3.3-1.037,0-1.037,0-1.037-.976v-3.6c0-.244.061-.366.366-.366.976,0,.976-.061.976.915Z" transform="translate(-78.475 -38.099)" fill="#41342b"/>
      <path id="Pfad_21290" data-name="Pfad 21290" d="M71.534,39.465a.412.412,0,0,1-.366-.244c-.122-.183,0-.3.122-.427.793-1.037,1.525-2.013,2.318-3.049.488-.61.915-1.22,1.4-1.891.183-.244.3-.3.549-.122s.122.366,0,.549c-1.22,1.647-2.44,3.293-3.72,4.94C71.778,39.343,71.717,39.465,71.534,39.465Z" transform="translate(-45.361 -27.069)" fill="#41342b"/>
      <path id="Pfad_21291" data-name="Pfad 21291" d="M156.571,60.2c-.488,0-.671-.122-.671-.549q0-.549.732-.549t.732.549C157.364,60.076,157.12,60.2,156.571,60.2Z" transform="translate(-78.436 -37.007)" fill="#41342b"/>
      <path id="Pfad_21292" data-name="Pfad 21292" d="M48.837,44.215a1.038,1.038,0,0,0,.427.061h3.964a.457.457,0,0,1,.488.3c1.281,4.513,2.561,9.087,3.9,13.6.061.3,0,.366-.3.366H29.26c-.427,0-.427,0-.3-.427C30.3,53.668,31.7,49.155,33.041,44.7c.122-.3.244-.427.549-.427H44.324a.675.675,0,0,0,.61-.3L55.18,30.249c.549-.793.427-.61,1.1-.183.61.427,1.159.854,1.769,1.281.244.183.3.3.122.61-2.988,3.964-5.916,7.928-8.9,11.893A1.323,1.323,0,0,0,48.837,44.215ZM38.1,49.765a14.631,14.631,0,0,0-.976,1.647,5.8,5.8,0,0,1-.915,1.22,1.243,1.243,0,0,1-1.281.3c-.122-.061-.3-.122-.244-.3s.183-.183.366-.122a.876.876,0,0,0,.915-.3,5.292,5.292,0,0,0,.976-1.4,6.639,6.639,0,0,1,.854-1.4c.183-.244.427-.488.793-.3.3.122.3.488.244.732-.061.488-.244.915-.3,1.4.3-.244.61-.549.976-.793.122-.061.244-.183.427-.061.122.061.122.244.061.366a13.876,13.876,0,0,1-.122,1.586c0,.122,0,.244.183.3s.244-.061.3-.183a3.945,3.945,0,0,0,.244-.793,14.038,14.038,0,0,1,2.622-5.428,11.634,11.634,0,0,0,.915-1.281H33.773a.4.4,0,0,0-.427.366c-1.037,3.354-2.013,6.77-3.049,10.124-.244.854-.488,1.708-.793,2.622H56.7c0-.122,0-.183-.061-.244-1.159-4.147-2.379-8.355-3.537-12.5-.061-.244-.183-.3-.427-.3H48.532a.5.5,0,0,0-.488.244c-.488.671-.976,1.281-1.464,1.952a16.307,16.307,0,0,1-3.842,4.086c-.793.549-1.586,1.159-2.379,1.708a.665.665,0,0,1-.732.122.578.578,0,0,1-.3-.671c0-.244.061-.549.061-.793a2.1,2.1,0,0,1,.061-.549,4.593,4.593,0,0,0-.549.549c-.3.427-.549.854-.854,1.281-.122.122-.183.3-.366.244-.244-.122-.122-.3-.061-.427.183-.671.366-1.4.549-2.074a5.165,5.165,0,0,0,.244-1.037C38.225,49.582,38.225,49.7,38.1,49.765Z" transform="translate(-28.885 -25.538)" fill="#41342b"/>
      <path id="Pfad_21293" data-name="Pfad 21293" d="M133.89,39.026v-6.16c0-.3.061-.366.366-.366h4.818a6.907,6.907,0,0,1,2.2.366,3.378,3.378,0,0,1,2.257,2.44,5.978,5.978,0,0,1,0,3.11,3.635,3.635,0,0,1-3.11,2.744,11.076,11.076,0,0,1-3.171.122c-.3,0-.366.061-.366.366v3.537c0,.3-.061.366-.366.366h-2.257c-.3,0-.427-.061-.366-.366Zm2.927-.366c0,.183,0,.244.244.244a14.716,14.716,0,0,0,2.318-.061,1.361,1.361,0,0,0,1.22-1.159,4.844,4.844,0,0,0,.061-1.342,1.412,1.412,0,0,0-1.525-1.4c-.671-.061-1.342,0-2.013-.061-.244,0-.3.122-.3.3V38.66Z" transform="translate(-69.844 -26.63)" fill="#41342b"/>
      <path id="Pfad_21294" data-name="Pfad 21294" d="M43.049,39.723a.783.783,0,0,1-.61-.244c-3.72-2.805-7.38-5.55-11.1-8.355a.885.885,0,0,1-.122-1.4c1.342-1.769,2.622-3.537,3.964-5.306.244-.3.488-.671.732-.976.488-.671.915-.732,1.586-.244,1.891,1.4,3.842,2.866,5.733,4.269,1.708,1.281,3.415,2.561,5.184,3.9a.957.957,0,0,1,.244,1.525c-1.586,2.135-3.171,4.208-4.757,6.343C43.659,39.6,43.415,39.784,43.049,39.723Zm2.744-4.574c-3.72-2.805-7.441-5.611-11.161-8.355-.183-.122-.3-.122-.427.061-.793,1.1-1.647,2.2-2.5,3.293-.244.3-.183.488.122.671,3.6,2.683,7.258,5.428,10.856,8.111.366.3.488.244.732-.122.793-1.037,1.586-2.135,2.44-3.171.061-.061.122-.183.183-.244A.476.476,0,0,0,45.793,35.149ZM36.462,23.805a6.389,6.389,0,0,1-.488.671c-.183.244-.183.366.061.549,2.074,1.525,4.147,3.11,6.221,4.635,1.647,1.22,3.232,2.44,4.879,3.659.244.183.366.183.549-.061a3.7,3.7,0,0,1,.427-.61c.244-.3.183-.488-.122-.732-3.659-2.744-7.258-5.428-10.856-8.172-.122-.061-.183-.122-.3-.183A.778.778,0,0,0,36.462,23.805Z" transform="translate(-29.683 -22.875)" fill="#41342b"/>
      <path id="Pfad_21295" data-name="Pfad 21295" d="M106.818,63.687c.061-.671-.122-.915-.793-.976a3.114,3.114,0,0,0-1.281.183c-.183.061-.244,0-.244-.122-.183-.793-.122-.854.671-1.037a4.28,4.28,0,0,1,1.525-.061,1.366,1.366,0,0,1,1.342,1.4c.061,1.159,0,2.257.061,3.415,0,.183-.061.183-.183.183h-.549c-.122,0-.244,0-.244-.183,0-.3-.122-.183-.3-.061a1.7,1.7,0,0,1-1.769.244,1.464,1.464,0,0,1-.854-1.647,1.492,1.492,0,0,1,1.22-1.4A2.767,2.767,0,0,1,106.818,63.687Zm-1.4,1.281c-.061.244-.061.488.183.61a.849.849,0,0,0,.854.061c.427-.122.549-.427.427-.976-.061-.366-.366-.183-.549-.244C105.72,64.48,105.476,64.6,105.415,64.968Z" transform="translate(-58.262 -37.996)" fill="#41342b"/>
      <path id="Pfad_21296" data-name="Pfad 21296" d="M46.883,71.068H39.2c-.122,0-.366.122-.3-.122,0-.183-.061-.549.366-.549H54.385c.183,0,.366-.061.427.244.122.427.122.427-.366.427Z" transform="translate(-32.786 -41.412)" fill="#41342b"/>
    </g>
    <rect id="Rechteck_1954" data-name="Rechteck 1954" width="112.523" height="45.436" transform="translate(7.7 12.7)" fill="none" stroke="#41342c" stroke-miterlimit="10" stroke-width="4"/>
  </g>
</svg>
