<svg xmlns="http://www.w3.org/2000/svg" width="107.305" height="33.613" viewBox="0 0 107.305 33.613">
  <g id="icons--sofortueberweisung" transform="translate(256.711 -59.216)">
    <path id="path442" d="M-173.509,65.687A3.356,3.356,0,0,1-177,68.142h-1l1.694-4.6h.968c1.764,0,2.421.519,1.833,2.144m5.049-4.219c-.865-1.245-2.594-1.867-5.36-1.867h-6.328L-187,78.655h5.844l2.49-6.709c.138.277,1.591,6.709,1.591,6.709h6.121a57.4,57.4,0,0,0-1.937-6.64,8.442,8.442,0,0,0-.726-1.487,8.644,8.644,0,0,0,5.291-4.876c.622-1.729.588-3.147-.138-4.184M-227.04,59.6h-10.824a10.36,10.36,0,0,0-4.841.761c-1.487.761-2.8,2.282-3.8,5.325a5.891,5.891,0,0,0-.346,1.694,3.019,3.019,0,0,0,.242,1.279,3.8,3.8,0,0,0,1.037,1.21,5.782,5.782,0,0,0,1.591.83c.035,0,.346.1.726.207s.726.207,1.107.311a1.63,1.63,0,0,1,.519.207,1.192,1.192,0,0,1,.415.415.788.788,0,0,1,.1.38,2.023,2.023,0,0,1-.069.45,1.154,1.154,0,0,1-.761.83,5.2,5.2,0,0,1-1.867.207h-11.135l-1.764,4.876h11.9a13.181,13.181,0,0,0,5.153-.83,7.977,7.977,0,0,0,4.668-5.913,4.018,4.018,0,0,0-.277-3.112,4.152,4.152,0,0,0-2.7-1.764s-.277-.069-.622-.173-.726-.207-.934-.277a1.1,1.1,0,0,1-.726-.553,1.062,1.062,0,0,1-.1-.865,1.344,1.344,0,0,1,.622-.761,2.505,2.505,0,0,1,1.21-.277h6.916c.035-.069.1-.138.138-.207A15.629,15.629,0,0,1-227.04,59.6" transform="translate(0 -0.143)" fill="#41342b"/>
    <path id="path444" d="M-208.37,68.9c-1.625,4.461-2.8,5.6-4.565,5.6h0c-1.729,0-2.317-1.107-.726-5.533,1.21-3.32,2.766-5.429,4.634-5.429h0c1.833-.035,2.248,1,.657,5.36m5.533-7.642c-.934-1.349-2.559-2.04-4.807-2.04a9.914,9.914,0,0,0-4.219.968,13.065,13.065,0,0,0-5.049,4.461,19.234,19.234,0,0,0-2.317,4.53c-1.176,3.216-1.141,5.81.035,7.539.657.968,2.075,2.144,4.91,2.144h0c5.187,0,9.06-3.424,11.481-10.2.692-1.833,1.556-5.153-.035-7.4m20.714-1.8h-11.031a6.494,6.494,0,0,0-6.467,4.53l-5.222,14.524h5.74l2.7-7.469h5.049l1.452-4.011h-5.049l.8-2.317a1.243,1.243,0,0,1,1.176-.761H-187c.035-.069.1-.138.138-.207a16.3,16.3,0,0,1,4.738-4.288m5.014,9.441c-1.625,4.461-2.8,5.6-4.565,5.6h0c-1.729,0-2.317-1.107-.726-5.533,1.21-3.32,2.766-5.429,4.634-5.429h0c1.8-.035,2.213,1,.657,5.36m5.533-7.642c-.934-1.349-2.559-2.04-4.807-2.04a9.914,9.914,0,0,0-4.219.968,13.065,13.065,0,0,0-5.049,4.461,19.234,19.234,0,0,0-2.317,4.53c-1.176,3.216-1.141,5.81.035,7.539.657.968,2.075,2.144,4.911,2.144h0c5.187,0,9.06-3.424,11.481-10.2.657-1.833,1.522-5.153-.035-7.4" transform="translate(-13.587)" fill="#41342b"/>
    <path id="path440" d="M-115.957,59.58a5.3,5.3,0,0,1,.968,1,4.989,4.989,0,0,1,.8,3.493h3.458L-115.957,78.6h5.222l5.222-14.524H-98.8l1.625-4.53-18.777.035Z" transform="translate(-52.227 -0.122)" fill="#41342b"/>
    <path id="path446" d="M-247.236,93.984a1.747,1.747,0,0,1-.45.726,1.33,1.33,0,0,1-.83.207c-.38,0-.588-.069-.692-.207a.854.854,0,0,1,.069-.692,1.747,1.747,0,0,1,.45-.726,1.33,1.33,0,0,1,.83-.207c.38,0,.588.069.692.207a.853.853,0,0,1-.069.692m-3.147,0a1.747,1.747,0,0,1-.45.726,1.33,1.33,0,0,1-.83.207c-.38,0-.588-.069-.692-.207a.854.854,0,0,1,.069-.692,1.747,1.747,0,0,1,.45-.726,1.33,1.33,0,0,1,.83-.207c.38,0,.622.069.692.207.069.1.035.346-.069.692m1.694,7.677a5.572,5.572,0,0,1-.83,1.556,6.309,6.309,0,0,1-1.176,1.176,5.406,5.406,0,0,1-1.487.726,5.877,5.877,0,0,1-1.764.242,4.528,4.528,0,0,1-1.487-.207,1.761,1.761,0,0,1-.934-.692,2.338,2.338,0,0,1-.346-1.141,5.123,5.123,0,0,1,.311-1.591l2.075-5.74c.035-.035.035-.1.1-.138a.755.755,0,0,1,.173-.1,2.2,2.2,0,0,1,.311-.069c.138,0,.277-.035.484-.035a1.69,1.69,0,0,1,.45.035.651.651,0,0,1,.277.069q.1.052.1.1c.035.035.035.069,0,.138l-2.006,5.568a2.873,2.873,0,0,0-.207.968,1.371,1.371,0,0,0,.138.692,1.15,1.15,0,0,0,.484.415,1.664,1.664,0,0,0,.761.138,2.388,2.388,0,0,0,.865-.138,3.254,3.254,0,0,0,.761-.415,2.268,2.268,0,0,0,.622-.657,3.646,3.646,0,0,0,.45-.9l2.04-5.706c.035-.035.035-.1.1-.138a.756.756,0,0,1,.173-.1,2.2,2.2,0,0,1,.311-.069c.138,0,.277-.035.45-.035a1.69,1.69,0,0,1,.45.035.652.652,0,0,1,.277.069q.1.052.1.1v.138Zm8.2-3.285a1.533,1.533,0,0,0,.1-.519.52.52,0,0,0-.138-.38.883.883,0,0,0-.346-.242,1.927,1.927,0,0,0-.692-.069h-.968l-.9,2.455h1.072a1.943,1.943,0,0,0,.692-.1,1.9,1.9,0,0,0,.519-.277,1.474,1.474,0,0,0,.38-.415,1.22,1.22,0,0,0,.277-.45m-.968,4.046a1.918,1.918,0,0,0,.1-.588.728.728,0,0,0-.173-.45,1.113,1.113,0,0,0-.45-.277,2.461,2.461,0,0,0-.8-.1h-1.141l-.968,2.7h1.383a3.889,3.889,0,0,0,.692-.069,2.677,2.677,0,0,0,.553-.242,1.693,1.693,0,0,0,.45-.415,2.988,2.988,0,0,0,.346-.553m1.971-.069a3.726,3.726,0,0,1-.484.9,4.291,4.291,0,0,1-.622.726,6.115,6.115,0,0,1-.761.553,9.4,9.4,0,0,1-.865.38,4.529,4.529,0,0,1-.934.207,9.2,9.2,0,0,1-1.037.069h-2.49a.364.364,0,0,1-.346-.138.5.5,0,0,1,0-.45l2.974-8.23a.673.673,0,0,1,.346-.45.7.7,0,0,1,.45-.138h2.352a5.447,5.447,0,0,1,1.418.138,1.732,1.732,0,0,1,.83.45,1.2,1.2,0,0,1,.346.761,2.558,2.558,0,0,1-.173,1.072,2.294,2.294,0,0,1-.311.657,3.491,3.491,0,0,1-.45.553,3.491,3.491,0,0,1-.553.45,2.294,2.294,0,0,1-.657.311,2.141,2.141,0,0,1,.657.242,1.408,1.408,0,0,1,.415.484,1.456,1.456,0,0,1,.138.692c-.069.138-.1.415-.242.761m7.02,2.075a3.588,3.588,0,0,1-.138.346,1.5,1.5,0,0,1-.138.242c-.035.069-.1.1-.138.138a.208.208,0,0,1-.138.035h-4.7a.364.364,0,0,1-.346-.138.5.5,0,0,1,0-.45l2.974-8.23a.673.673,0,0,1,.346-.45.761.761,0,0,1,.45-.138h4.668a.127.127,0,0,1,.1.035c.035.035.035.069.035.138a.675.675,0,0,1-.035.242c-.035.1-.069.207-.1.346a3.584,3.584,0,0,1-.138.346,1.5,1.5,0,0,1-.138.242c-.035.069-.1.1-.138.138s-.069.035-.138.035h-3.354l-.83,2.317h2.836a.127.127,0,0,1,.1.035c.035.035.035.069.035.138a.675.675,0,0,1-.035.242c-.035.1-.069.207-.1.346a2.384,2.384,0,0,0-.138.346.532.532,0,0,1-.138.207c-.035.069-.1.1-.138.138a.208.208,0,0,1-.138.035h-2.836l-.968,2.663h3.354a.127.127,0,0,1,.1.035c.035.035.035.069.035.138a.675.675,0,0,1-.035.242c.035-.035,0,.1-.035.242m8.922-5.913a1.317,1.317,0,0,0,.069-.8.7.7,0,0,0-.519-.45,2.2,2.2,0,0,0-.311-.069c-.1,0-.277-.035-.519-.035h-.865l-.968,2.7h.968a2.3,2.3,0,0,0,.726-.1,3.4,3.4,0,0,0,.622-.277,1.737,1.737,0,0,0,.45-.415,1.354,1.354,0,0,0,.346-.553m.138,6.4c-.035.069-.035.1-.069.138a.756.756,0,0,1-.173.1.964.964,0,0,1-.346.035h-1.072a.652.652,0,0,1-.277-.069q-.1-.052-.1-.1c0-.035-.035-.1-.035-.138l-.069-2.109a3.1,3.1,0,0,0-.069-.622,1.38,1.38,0,0,0-.138-.45.61.61,0,0,0-.311-.277,1.1,1.1,0,0,0-.484-.1h-.588l-1.314,3.6c-.035.035-.035.1-.1.138a.756.756,0,0,1-.173.1,2.2,2.2,0,0,1-.311.069c-.138,0-.277.035-.484.035a1.69,1.69,0,0,1-.45-.035.651.651,0,0,1-.277-.069q-.1-.052-.1-.1v-.138l3.078-8.576a.673.673,0,0,1,.346-.45.7.7,0,0,1,.45-.138h3.009c.138,0,.277.035.415.035a3.059,3.059,0,0,1,.9.277,1.721,1.721,0,0,1,.588.519,1.315,1.315,0,0,1,.207.761,3.049,3.049,0,0,1-.207,1,3.337,3.337,0,0,1-.415.865,5.643,5.643,0,0,1-.588.692,3.7,3.7,0,0,1-.761.519,7.018,7.018,0,0,1-.9.38,1.9,1.9,0,0,1,.311.242.718.718,0,0,1,.207.346,1.982,1.982,0,0,1,.138.484,3.045,3.045,0,0,1,.069.588l.1,1.867v.415c.035.069,0,.138,0,.173m11.827-.242a1.92,1.92,0,0,1-.207.277.753.753,0,0,1-.277.173,1.29,1.29,0,0,1-.415.069c-.173,0-.38.035-.622.035a3.568,3.568,0,0,1-.657-.035,1.067,1.067,0,0,1-.38-.069.23.23,0,0,1-.138-.173.379.379,0,0,1,0-.277l.657-5.983h0l-3.562,5.983a1.919,1.919,0,0,1-.207.277.753.753,0,0,1-.277.173,1.29,1.29,0,0,1-.415.069c-.173,0-.38.035-.657.035a3.567,3.567,0,0,1-.657-.035,1.068,1.068,0,0,1-.38-.069.23.23,0,0,1-.138-.173.379.379,0,0,1,0-.277l.83-8.23c.035-.173.035-.311.069-.415a.4.4,0,0,1,.173-.242c.069-.069.173-.069.346-.1.138,0,.346-.035.588-.035h.519c.138,0,.207.035.277.035q.1.052.1.1a.514.514,0,0,1-.035.207l-.968,7.227h0l4.288-7.193a.62.62,0,0,1,.173-.242.724.724,0,0,1,.207-.138.868.868,0,0,1,.346-.069c.138,0,.311-.035.519-.035h.553a.691.691,0,0,1,.311.069c.069.035.1.069.1.138v.242l-.83,7.193h0l4.253-7.227a.723.723,0,0,1,.138-.207.345.345,0,0,1,.173-.138.691.691,0,0,1,.311-.069c.138,0,.311-.035.519-.035a1.838,1.838,0,0,1,.484.035.209.209,0,0,1,.207.1.218.218,0,0,1-.035.242,3.026,3.026,0,0,1-.242.415Zm9.786-.242c-.035.1-.1.242-.138.346a1.5,1.5,0,0,1-.138.242c-.035.069-.1.1-.138.138a.208.208,0,0,1-.138.035h-4.7a.364.364,0,0,1-.346-.138.5.5,0,0,1,0-.45l2.974-8.23a.673.673,0,0,1,.346-.45.761.761,0,0,1,.45-.138h4.668a.127.127,0,0,1,.1.035c.035.035.035.069.035.138a.675.675,0,0,1-.035.242c-.035.1-.069.207-.1.346-.035.1-.1.242-.138.346a1.5,1.5,0,0,1-.138.242c-.035.069-.1.1-.138.138a.208.208,0,0,1-.138.035h-3.354l-.83,2.317h2.836a.127.127,0,0,1,.1.035c.035.035.035.069.035.138a.675.675,0,0,1-.035.242c-.035.1-.069.207-.1.346a2.384,2.384,0,0,0-.138.346.532.532,0,0,1-.138.207c-.035.069-.1.1-.138.138a.208.208,0,0,1-.138.035h-2.836l-.968,2.663h3.354a.127.127,0,0,1,.1.035c.035.035.035.069.035.138a.675.675,0,0,1-.035.242c.069-.035.035.1-.035.242m4.046.484c-.035.035-.035.1-.1.138a.756.756,0,0,1-.173.1,2.2,2.2,0,0,1-.311.069c-.138,0-.277.035-.484.035a1.69,1.69,0,0,1-.45-.035.652.652,0,0,1-.277-.069.477.477,0,0,1-.138-.1c-.035-.035-.035-.069,0-.138l3.216-8.922c.035-.035.035-.1.1-.138a.563.563,0,0,1,.207-.1,2.2,2.2,0,0,1,.311-.069c.138,0,.277-.035.45-.035a1.69,1.69,0,0,1,.45.035.651.651,0,0,1,.277.069.477.477,0,0,1,.138.1v.138Zm9.268-2.559a3.85,3.85,0,0,1-.761,1.314,4.525,4.525,0,0,1-1.072.934,4.42,4.42,0,0,1-1.314.553,4.832,4.832,0,0,1-1.418.173,6.259,6.259,0,0,1-.865-.069,2.94,2.94,0,0,1-.657-.207,1.38,1.38,0,0,1-.45-.242.75.75,0,0,1-.242-.207.342.342,0,0,1-.035-.277,2.95,2.95,0,0,1,.138-.519,2.629,2.629,0,0,0,.138-.38,1.5,1.5,0,0,1,.138-.242c.035-.069.1-.1.138-.138a.208.208,0,0,1,.138-.035.46.46,0,0,1,.242.1c.1.069.207.173.38.277a4.758,4.758,0,0,0,.588.277,3.069,3.069,0,0,0,.9.138,3.83,3.83,0,0,0,.657-.069,2.677,2.677,0,0,0,.553-.242,1.474,1.474,0,0,0,.415-.38,1.247,1.247,0,0,0,.277-.519,1.027,1.027,0,0,0,.035-.553,1.626,1.626,0,0,0-.311-.415,3.367,3.367,0,0,0-.519-.346,5.6,5.6,0,0,1-.622-.346,2.272,2.272,0,0,1-.588-.415,1.628,1.628,0,0,1-.45-.519,1.607,1.607,0,0,1-.173-.726,2.362,2.362,0,0,1,.207-1,3.807,3.807,0,0,1,.692-1.21,4.572,4.572,0,0,1,.968-.865,5.077,5.077,0,0,1,1.176-.519,5.191,5.191,0,0,1,1.279-.173c.207,0,.45.035.657.035a2.93,2.93,0,0,1,.588.138c.173.069.311.138.45.207a.861.861,0,0,1,.242.173c.035.035.035.1.069.138v.138c0,.069-.035.138-.035.207l-.1.311c-.069.138-.1.277-.138.346a.557.557,0,0,1-.138.242.27.27,0,0,1-.138.138.208.208,0,0,1-.138.035.3.3,0,0,1-.207-.1,3.043,3.043,0,0,0-.346-.207,4.026,4.026,0,0,0-.519-.207,2.08,2.08,0,0,0-.692-.1,2.406,2.406,0,0,0-.553.069,1.788,1.788,0,0,0-.45.207,3.119,3.119,0,0,0-.346.311A.943.943,0,0,0-190.9,98a1.027,1.027,0,0,0-.035.553,1.626,1.626,0,0,0,.311.415,3.369,3.369,0,0,0,.519.346,5.594,5.594,0,0,1,.622.346,2.272,2.272,0,0,1,.588.415,1.628,1.628,0,0,1,.45.519,2.235,2.235,0,0,1,.207.726,7.314,7.314,0,0,1-.242,1.037m9.959-.692a5.572,5.572,0,0,1-.83,1.556,6.309,6.309,0,0,1-1.176,1.176,5.406,5.406,0,0,1-1.487.726,5.877,5.877,0,0,1-1.764.242,4.673,4.673,0,0,1-1.487-.207,1.761,1.761,0,0,1-.934-.692,2.338,2.338,0,0,1-.346-1.141,5.123,5.123,0,0,1,.311-1.591l2.075-5.74c.035-.035.035-.1.1-.138a.755.755,0,0,1,.173-.1,2.2,2.2,0,0,1,.311-.069c.138,0,.277-.035.484-.035a1.691,1.691,0,0,1,.45.035.651.651,0,0,1,.277.069q.1.052.1.1c.035.035.035.069,0,.138l-2.006,5.568a2.873,2.873,0,0,0-.207.968,1.371,1.371,0,0,0,.138.692,1.15,1.15,0,0,0,.484.415,1.664,1.664,0,0,0,.761.138,2.388,2.388,0,0,0,.865-.138,3.254,3.254,0,0,0,.761-.415,2.268,2.268,0,0,0,.622-.657,3.645,3.645,0,0,0,.45-.9l2.04-5.706c.035-.035.035-.1.1-.138a.757.757,0,0,1,.173-.1,2.2,2.2,0,0,1,.311-.069c.138,0,.277-.035.45-.035a1.69,1.69,0,0,1,.45.035.652.652,0,0,1,.277.069q.1.052.1.1v.138Zm9.371,2.836a1.4,1.4,0,0,1-.173.311c-.069.069-.138.173-.242.207a.7.7,0,0,1-.277.138.859.859,0,0,1-.277.035h-.8c-.173,0-.311-.035-.415-.035a.753.753,0,0,1-.277-.173.972.972,0,0,1-.173-.38c-.035-.138-.069-.346-.1-.588l-.726-4.426c-.035-.277-.069-.553-.1-.865s-.035-.588-.069-.9h0c-.1.346-.207.692-.346,1.037-.1.346-.242.726-.38,1.072l-1.8,4.945a.185.185,0,0,1-.1.138.756.756,0,0,1-.173.1c-.069.035-.173.035-.277.069-.1,0-.277.035-.45.035a1.425,1.425,0,0,1-.415-.035.5.5,0,0,1-.242-.069c-.069-.035-.069-.069-.1-.1v-.138l3.078-8.507a.862.862,0,0,1,.38-.519,1.045,1.045,0,0,1,.553-.173h1a1.69,1.69,0,0,1,.45.035.475.475,0,0,1,.277.173.669.669,0,0,1,.173.311c.035.138.069.277.1.484l.588,3.458.1.622a3.811,3.811,0,0,1,.069.622c.035.207.035.415.069.588.035.207.035.38.069.588h0c.1-.346.242-.692.346-1.072.138-.346.242-.692.38-1.072l1.591-4.426c.035-.035.035-.1.1-.138a.756.756,0,0,1,.173-.1c.069-.035.173-.035.277-.069.1,0,.277-.035.45-.035a1.425,1.425,0,0,1,.415.035.5.5,0,0,1,.242.069l.1.1v.138Zm12.864-7.3c-.035.138-.1.277-.138.38a1.5,1.5,0,0,1-.138.242.27.27,0,0,1-.138.138c-.035.035-.069.035-.138.035s-.138-.035-.242-.138c-.1-.069-.277-.173-.45-.277a3.537,3.537,0,0,0-.726-.277,3.228,3.228,0,0,0-1.072-.138,3.409,3.409,0,0,0-1.314.242,4.888,4.888,0,0,0-1.176.657,3.974,3.974,0,0,0-.968,1.037,6.2,6.2,0,0,0-.692,1.349,4.057,4.057,0,0,0-.311,1.418,2.31,2.31,0,0,0,.207,1.037,1.361,1.361,0,0,0,.692.622,2.747,2.747,0,0,0,1.107.207,4.726,4.726,0,0,0,.657-.069,3.653,3.653,0,0,0,.657-.207l.8-2.179h-1.764a.158.158,0,0,1-.138-.173,1.559,1.559,0,0,1,.138-.553,3.592,3.592,0,0,1,.138-.346.532.532,0,0,1,.138-.207c.035-.069.1-.1.138-.138a.208.208,0,0,1,.138-.035h3.147a.439.439,0,0,1,.207.035c.035.035.1.069.1.1a.374.374,0,0,1,.035.207,1.069,1.069,0,0,1-.069.277l-1.349,3.769a3.776,3.776,0,0,1-.207.38,1.243,1.243,0,0,1-.415.277,5.014,5.014,0,0,1-.657.207,5.373,5.373,0,0,1-.8.173c-.277.035-.519.069-.8.1a5.863,5.863,0,0,1-.761.035,5.091,5.091,0,0,1-1.9-.311,2.457,2.457,0,0,1-1.176-.934,2.622,2.622,0,0,1-.38-1.522,5.775,5.775,0,0,1,.415-2.006,8.508,8.508,0,0,1,1.107-2.075,6.646,6.646,0,0,1,1.556-1.556,7.692,7.692,0,0,1,1.9-1,6.335,6.335,0,0,1,2.144-.346,9.3,9.3,0,0,1,1.072.069c.311.069.588.138.8.207a3.713,3.713,0,0,1,.519.242.772.772,0,0,1,.242.242.367.367,0,0,1,.035.277,4.3,4.3,0,0,0-.173.519" transform="translate(0 -12.567)" fill="#97918e"/>
  </g>
</svg>
