<svg xmlns="http://www.w3.org/2000/svg" width="72.636" height="56.964" viewBox="0 0 72.636 56.964">
  <g id="mastercard" transform="translate(1509.666 -1122.581)" style="isolation: isolate">
    <g id="Gruppe_4203" data-name="Gruppe 4203" transform="translate(-1509.666 1122.581)">
      <g id="Gruppe_4199" data-name="Gruppe 4199" transform="translate(4.227 47.86)">
        <path id="Pfad_21329" data-name="Pfad 21329" d="M-67.808-71.968Zm0,0h0v.325l.325.325h0l-.325-.325h0v.325h0v-.65Zm0,.65h0l.325-.325v-.65h-.65v.65h0l.325.325h0m0-.975h0c.325,0,.325,0,.325.325v1.3h-1.3v-1.3c.65,0,.65-.325.975-.325h0m-55.6-1.951a1.874,1.874,0,0,1,1.951-1.951,2.1,2.1,0,0,1,1.951,1.951,1.874,1.874,0,0,1-1.951,1.951,1.874,1.874,0,0,1-1.951-1.951m4.877,0V-77.17h-1.3v.65a1.966,1.966,0,0,0-1.951-.975,3,3,0,0,0-2.926,3.251,3,3,0,0,0,2.926,3.251,1.966,1.966,0,0,0,1.951-.975v.65h1.3Zm43.894,0a1.874,1.874,0,0,1,1.951-1.951,2.1,2.1,0,0,1,1.951,1.951,1.874,1.874,0,0,1-1.951,1.951,1.874,1.874,0,0,1-1.951-1.951m4.877,0v-5.527h-1.3v3.251A1.966,1.966,0,0,0-73.01-77.5a3,3,0,0,0-2.926,3.251,3,3,0,0,0,2.926,3.251,1.966,1.966,0,0,0,1.951-.975v.65h1.3Zm-32.514-1.951c.975,0,1.3.65,1.626,1.3H-103.9c0-.975.65-1.3,1.626-1.3m0-1.3a3,3,0,0,0-2.926,3.251,3,3,0,0,0,2.926,3.251,4.324,4.324,0,0,0,2.6-.975l-.65-.975c-.65.325-.975.65-1.626.65-.975,0-1.626-.325-1.626-1.3h4.552v-.65c-.65-1.951-1.626-3.251-3.251-3.251m15.607,3.251a1.874,1.874,0,0,1,1.951-1.951,2.1,2.1,0,0,1,1.951,1.951,1.874,1.874,0,0,1-1.951,1.951,1.874,1.874,0,0,1-1.951-1.951m4.877,0V-77.17h-1.3v.65A1.966,1.966,0,0,0-85.04-77.5a3,3,0,0,0-2.926,3.251,3,3,0,0,0,2.926,3.251,1.966,1.966,0,0,0,1.951-.975v.65h1.3Zm-12.355,0a3.072,3.072,0,0,0,3.251,3.251,4.7,4.7,0,0,0,2.276-.65l-.65-.975a2.484,2.484,0,0,1-1.626.65,1.874,1.874,0,0,1-1.951-1.951,1.724,1.724,0,0,1,1.951-1.951c.65,0,.975.325,1.626.65l.65-.975a2.743,2.743,0,0,0-2.276-.65c-1.951-.65-3.251.65-3.251,2.6M-77.237-77.5a1.788,1.788,0,0,0-1.626.975v-.65h-1.3v5.852h1.3v-3.251c0-.975.325-1.626,1.3-1.626h.65l.325-1.3h-.65m-34.79.65a6.028,6.028,0,0,0-2.276-.65c-1.626,0-2.6.65-2.6,1.951,0,.975.65,1.626,1.951,1.626h.65c.65,0,.975.325.975.65s-.325.65-1.3.65a2.749,2.749,0,0,1-1.951-.65l-.65.975a3.5,3.5,0,0,0,2.6.65c1.626,0,2.6-.65,2.6-1.951,0-.975-.65-1.626-1.951-1.626h-.65c-.65,0-.975-.325-.975-.65s.325-.65.975-.65a3.486,3.486,0,0,1,1.951.65Zm16.582-.65a1.788,1.788,0,0,0-1.626.975v-.65h-1.3v5.852h1.3v-3.251c0-.975.325-1.626,1.3-1.626h.65l.325-1.3h-.65m-11.055,0h-2.276v-1.951h-1.3V-77.5h-.975v1.3h1.3v2.6c0,1.3.65,2.276,1.951,2.276a14.081,14.081,0,0,0,1.626-.325l-.325-.975c-.325.325-.65.325-1.3.325a.862.862,0,0,1-.975-.975v-2.6h2.276V-77.5Zm-19.183,6.178v-3.9a2.222,2.222,0,0,0-2.276-2.276,2.317,2.317,0,0,0-1.951.975,1.966,1.966,0,0,0-1.951-.975,1.788,1.788,0,0,0-1.626.975v-.65h-1.3v5.852h1.3v-3.251a1.488,1.488,0,0,1,1.3-1.626c.975,0,1.3.65,1.3,1.626v3.251h1.3v-3.251a1.488,1.488,0,0,1,1.3-1.626c.975,0,1.3.65,1.3,1.626v3.251h1.3Z" transform="translate(134.786 79.771)" fill="#41342b"/>
      </g>
      <g id="Gruppe_4200" data-name="Gruppe 4200" transform="translate(70.099 35.583)">
        <path id="Pfad_21330" data-name="Pfad 21330" d="M-55.422-40.286v-.975h-.325l-.325.65-.325-.65h-.325v.975h0v-.65l.325.65h.325l.325-.65.325.65Zm-1.626,0v-.65h0v.65Z" transform="translate(57.373 41.261)" fill="#41342b"/>
      </g>
      <path id="Pfad_21331" data-name="Pfad 21331" d="M3377.869,2191.324H3358.1v-35.375h19.768Z" transform="translate(-3331.569 -2151.177)" fill="#41342b" opacity="0.813"/>
      <g id="Gruppe_4201" data-name="Gruppe 4201" transform="translate(0 0)">
        <path id="Pfad_21332" data-name="Pfad 21332" d="M7.528-23.542A21.889,21.889,0,0,1,15.981-41.1,23.5,23.5,0,0,0,2-45.977,22.479,22.479,0,0,0-20.434-23.542,22.479,22.479,0,0,0,2-1.108,23.5,23.5,0,0,0,15.981-5.985,21.889,21.889,0,0,1,7.528-23.542" transform="translate(20.434 45.977)" fill="#41342b"/>
      </g>
      <g id="Gruppe_4202" data-name="Gruppe 4202" transform="translate(36.22 0)">
        <path id="Pfad_21333" data-name="Pfad 21333" d="M-63.79-23.542A22.479,22.479,0,0,1-86.225-1.108a23.5,23.5,0,0,1-13.981-4.877,22.362,22.362,0,0,0,8.454-17.557A21.889,21.889,0,0,0-100.205-41.1a23.5,23.5,0,0,1,13.981-4.877A22.479,22.479,0,0,1-63.79-23.542" transform="translate(100.205 45.977)" fill="#97918e"/>
      </g>
    </g>
  </g>
</svg>
