<svg xmlns="http://www.w3.org/2000/svg" width="141.615" height="34.65" viewBox="0 0 141.615 34.65">
  <g id="paypal" transform="translate(-7.585 -27.4)">
    <path id="Pfad_21323" data-name="Pfad 21323" d="M73.008,37.5H65.188a1.075,1.075,0,0,0-1.073.92L60.9,58.581a.632.632,0,0,0,.537.767h3.833a1.075,1.075,0,0,0,1.073-.92l.843-5.443a1.075,1.075,0,0,1,1.073-.92h2.453c5.136,0,8.126-2.53,8.892-7.436a6.03,6.03,0,0,0-1-5.059C77.607,38.19,75.614,37.5,73.008,37.5Zm.92,7.359c-.46,2.836-2.606,2.836-4.676,2.836H68.1l.843-5.289a.65.65,0,0,1,.613-.537h.537c1.38,0,2.76,0,3.45.843A2.61,2.61,0,0,1,73.928,44.859Zm22.538-.077H92.709a.592.592,0,0,0-.613.537l-.153,1.073-.23-.383c-.843-1.15-2.606-1.61-4.446-1.61a8.614,8.614,0,0,0-8.356,7.513,7,7,0,0,0,1.38,5.749,5.78,5.78,0,0,0,4.753,1.916,7.165,7.165,0,0,0,5.213-2.146L90.1,58.5a.632.632,0,0,0,.537.767h3.45a1.075,1.075,0,0,0,1.073-.92l1.993-12.879a.632.632,0,0,0-.537-.767A.237.237,0,0,1,96.465,44.783Zm-5.289,7.283a4.212,4.212,0,0,1-4.216,3.6,2.909,2.909,0,0,1-3.143-3.6,4.157,4.157,0,0,1,4.216-3.6,3.463,3.463,0,0,1,2.53,1A2.8,2.8,0,0,1,91.176,52.065ZM116.4,44.783H112.64a1.093,1.093,0,0,0-.92.46l-5.213,7.666-2.223-7.359a1.083,1.083,0,0,0-1.073-.767h-3.68a.687.687,0,0,0-.69.69v.23l4.293,12.112-3.91,5.519a.637.637,0,0,0,.153.92.585.585,0,0,0,.383.153h3.756a1.093,1.093,0,0,0,.92-.46l12.5-18.168a.637.637,0,0,0-.153-.92.574.574,0,0,0-.383-.077Z" transform="translate(-12.44 -2.357)" fill="#41342b"/>
    <path id="Pfad_21324" data-name="Pfad 21324" d="M145.931,37.5h-7.819a1.075,1.075,0,0,0-1.073.92L133.9,58.581a.632.632,0,0,0,.537.767H138.5a.825.825,0,0,0,.767-.613l.92-5.673a1.075,1.075,0,0,1,1.073-.92h2.453c5.136,0,8.126-2.53,8.892-7.436a6.03,6.03,0,0,0-1-5.059C150.531,38.19,148.614,37.5,145.931,37.5Zm.92,7.359c-.46,2.836-2.606,2.836-4.676,2.836h-1.15l.843-5.289a.65.65,0,0,1,.613-.537h.537c1.38,0,2.76,0,3.45.843A2.359,2.359,0,0,1,146.851,44.859Zm22.538-.077h-3.756a.592.592,0,0,0-.613.537l-.153,1.073-.23-.383c-.843-1.15-2.606-1.61-4.446-1.61a8.614,8.614,0,0,0-8.356,7.513,7,7,0,0,0,1.38,5.749,5.78,5.78,0,0,0,4.753,1.916,7.165,7.165,0,0,0,5.213-2.146l-.153,1.073a.632.632,0,0,0,.537.767h3.45a1.075,1.075,0,0,0,1.073-.92l1.993-12.879a.632.632,0,0,0-.537-.767C169.465,44.783,169.465,44.783,169.389,44.783Zm-5.213,7.283a4.212,4.212,0,0,1-4.216,3.6,2.909,2.909,0,0,1-3.143-3.6,4.157,4.157,0,0,1,4.216-3.6,3.463,3.463,0,0,1,2.53,1A3.279,3.279,0,0,1,164.176,52.065Zm9.659-14.029-3.22,20.545a.632.632,0,0,0,.537.767h3.3a1.075,1.075,0,0,0,1.073-.92l3.143-20.085a.632.632,0,0,0-.537-.767h-3.68A.491.491,0,0,0,173.835,38.037Z" transform="translate(-29.479 -2.357)" fill="#97918e"/>
    <path id="Pfad_21325" data-name="Pfad 21325" d="M16.329,61.2l.613-3.833H9.2l4.446-28.057A.351.351,0,0,1,14.03,29H24.762c3.6,0,6.056.767,7.283,2.223a4.447,4.447,0,0,1,1.15,2.223,6.842,6.842,0,0,1,0,3.066v.843l.613.307a4.677,4.677,0,0,1,1.227.92,4.247,4.247,0,0,1,1,2.223,9.42,9.42,0,0,1-.153,3.22,13.034,13.034,0,0,1-1.3,3.68A7.45,7.45,0,0,1,32.5,50a9.682,9.682,0,0,1-2.836,1.3,12.761,12.761,0,0,1-3.526.383H25.3a2.474,2.474,0,0,0-1.61.613,2.368,2.368,0,0,0-.843,1.533l-.077.307L21.7,60.89l-.077.23c0,.077,0,.153-.077.153l-.077.077C21.465,61.2,16.329,61.2,16.329,61.2Z" transform="translate(-0.377 -0.373)" fill="#41342b"/>
    <path id="Pfad_21326" data-name="Pfad 21326" d="M36.214,38.9c0,.23-.077.383-.077.613-1.38,7.283-6.286,9.812-12.5,9.812H20.5a1.559,1.559,0,0,0-1.533,1.3L17.356,60.9l-.46,2.913a.792.792,0,0,0,.69.92h5.749a1.264,1.264,0,0,0,1.3-1.15l.077-.307,1.073-6.669.077-.383a1.317,1.317,0,0,1,1.3-1.15h.843c5.443,0,9.659-2.223,10.886-8.586.537-2.683.23-4.906-1.15-6.439A7.29,7.29,0,0,0,36.214,38.9Z" transform="translate(-2.171 -2.684)" fill="#97918e"/>
    <path id="Pfad_21327" data-name="Pfad 21327" d="M35.315,37.937a8.914,8.914,0,0,0-1.38-.307,16.759,16.759,0,0,0-2.76-.23H22.743a1.264,1.264,0,0,0-1.3,1.15L19.677,49.9,19.6,50.2a1.559,1.559,0,0,1,1.533-1.3h3.143c6.209,0,11.039-2.53,12.5-9.812a1.905,1.905,0,0,0,.077-.613,3.614,3.614,0,0,0-1.15-.46A.691.691,0,0,1,35.315,37.937Z" transform="translate(-2.804 -2.334)" fill="#41342b"/>
    <path id="Pfad_21328" data-name="Pfad 21328" d="M18.635,36.292a1.317,1.317,0,0,1,1.3-1.15h8.432a15.453,15.453,0,0,1,2.76.23,10.878,10.878,0,0,1,1.686.383c.383.153.843.307,1.15.46.46-2.683,0-4.523-1.457-6.209-1.61-1.84-4.523-2.606-8.2-2.606H13.576a1.559,1.559,0,0,0-1.533,1.3L7.6,57.067a.9.9,0,0,0,.767,1.073h6.823l1.686-10.579C16.8,47.638,18.635,36.292,18.635,36.292Z" transform="translate(0)" fill="#41342b"/>
  </g>
</svg>
