<svg xmlns="http://www.w3.org/2000/svg" width="133.295" height="37.675" viewBox="0 0 133.295 37.675">
  <g id="rechnung" transform="translate(-10.9 -22.4)">
    <g id="Gruppe_4197" data-name="Gruppe 4197" transform="translate(13.895 22.4)">
      <path id="Pfad_21297" data-name="Pfad 21297" d="M19.692,22.691a9.867,9.867,0,0,1,5.616,1.273,4.4,4.4,0,0,1,1.947,4.043,4.563,4.563,0,0,1-.749,2.77,4.9,4.9,0,0,1-2.246,1.647c.3.374.674.9,1.048,1.423a12.313,12.313,0,0,1,1.048,1.647c.374.6.674,1.2,1.048,1.8l.9,1.8H24.185c-.3-.524-.6-1.048-.9-1.647a17.913,17.913,0,0,0-.973-1.572c-.3-.524-.674-.973-.973-1.5a14.4,14.4,0,0,0-.973-1.273h-1.8v5.915H14.9V23.14a13.918,13.918,0,0,1,2.471-.3A12.893,12.893,0,0,1,19.692,22.691Zm.15,3.145h-.749a1.649,1.649,0,0,0-.6.075v4.418h1.048a5.511,5.511,0,0,0,2.92-.524,1.891,1.891,0,0,0,.9-1.8,1.846,1.846,0,0,0-.9-1.722A4.984,4.984,0,0,0,19.842,25.835Z" transform="translate(-14.9 -22.466)" fill="#41342b"/>
      <path id="Pfad_21298" data-name="Pfad 21298" d="M35.8,39.223V22.9H46.807v3.07H39.469v3.22h6.514v3H39.469v3.894h7.862v3.07H35.8Z" transform="translate(-20.15 -22.526)" fill="#41342b"/>
      <path id="Pfad_21299" data-name="Pfad 21299" d="M61.955,39.4a8.221,8.221,0,0,1-6.065-2.171,8.69,8.69,0,0,1-2.1-6.29,11.669,11.669,0,0,1,.6-3.594,7.9,7.9,0,0,1,1.722-2.7A7.4,7.4,0,0,1,58.736,23a9.863,9.863,0,0,1,3.295-.6,15.764,15.764,0,0,1,1.872.15,10.947,10.947,0,0,1,1.5.374,4.33,4.33,0,0,1,1.048.374l.6.3L66,26.518a6.868,6.868,0,0,0-1.722-.674,7.73,7.73,0,0,0-2.246-.3,4.03,4.03,0,0,0-1.647.3,4.605,4.605,0,0,0-1.423.9,4.276,4.276,0,0,0-.973,1.572,6.433,6.433,0,0,0-.374,2.4,9.981,9.981,0,0,0,.225,2.1,4.27,4.27,0,0,0,.824,1.647,4.12,4.12,0,0,0,1.423,1.123,4.312,4.312,0,0,0,2.171.374,9.062,9.062,0,0,0,1.423-.075l1.123-.225a4.221,4.221,0,0,0,.9-.3c.225-.075.449-.225.674-.3l.973,2.92a4.213,4.213,0,0,1-2.171,1.048A11.5,11.5,0,0,1,61.955,39.4Z" transform="translate(-24.666 -22.4)" fill="#41342b"/>
      <path id="Pfad_21300" data-name="Pfad 21300" d="M84.909,22.9h3.669V39.149H84.909V32.26h-6.14v6.889H75.1V22.9h3.669v6.215h6.14Z" transform="translate(-30.023 -22.526)" fill="#41342b"/>
      <path id="Pfad_21301" data-name="Pfad 21301" d="M109.057,39.223c-1.048-1.872-2.171-3.669-3.37-5.541a51.815,51.815,0,0,0-3.894-5.167V39.149H98.2V22.9h3a22.166,22.166,0,0,1,1.722,1.872c.6.749,1.273,1.572,1.947,2.4s1.273,1.722,1.947,2.621,1.273,1.8,1.8,2.621V22.9h3.669V39.149h-3.22Z" transform="translate(-35.826 -22.526)" fill="#41342b"/>
      <path id="Pfad_21302" data-name="Pfad 21302" d="M128.114,39.523a9.523,9.523,0,0,1-2.92-.449,5.334,5.334,0,0,1-2.022-1.348,5.574,5.574,0,0,1-1.2-2.022,7.664,7.664,0,0,1-.374-2.621V22.9h3.669v9.809a5.839,5.839,0,0,0,.225,1.647,2.7,2.7,0,0,0,.6,1.123,1.665,1.665,0,0,0,.973.6,3.391,3.391,0,0,0,1.2.225,3.262,3.262,0,0,0,2.171-.824,4.055,4.055,0,0,0,.824-2.771V22.9h3.669V33.009a10.071,10.071,0,0,1-.374,2.621,5.015,5.015,0,0,1-1.2,2.022,5.615,5.615,0,0,1-2.1,1.348A9.549,9.549,0,0,1,128.114,39.523Z" transform="translate(-41.705 -22.526)" fill="#41342b"/>
      <path id="Pfad_21303" data-name="Pfad 21303" d="M154.857,39.223c-1.048-1.872-2.171-3.669-3.37-5.541a51.812,51.812,0,0,0-3.894-5.167V39.149H144V22.9h3a22.165,22.165,0,0,1,1.722,1.872c.6.749,1.273,1.572,1.947,2.4s1.273,1.722,1.947,2.621,1.273,1.8,1.8,2.621V22.9h3.669V39.149h-3.22Z" transform="translate(-47.332 -22.526)" fill="#41342b"/>
      <path id="Pfad_21304" data-name="Pfad 21304" d="M175.311,25.62a4.2,4.2,0,0,0-3.669,1.423,5.961,5.961,0,0,0-1.123,3.894,6.924,6.924,0,0,0,.3,2.171,4.071,4.071,0,0,0,4.193,3.145h1.048c.225,0,.524-.075.749-.075V30.487h3.669v8.087a10.741,10.741,0,0,1-2.1.524,19.411,19.411,0,0,1-3.594.3,8.293,8.293,0,0,1-3.295-.6,7.106,7.106,0,0,1-2.546-1.647A7.4,7.4,0,0,1,167.3,34.53a11.082,11.082,0,0,1,0-7.188,8.682,8.682,0,0,1,1.722-2.7A7.4,7.4,0,0,1,171.642,23a9.356,9.356,0,0,1,3.145-.6,19.732,19.732,0,0,1,2.1.15,11.969,11.969,0,0,1,1.572.374,6.589,6.589,0,0,1,1.123.374,4.163,4.163,0,0,1,.6.3l-1.048,2.92a6.868,6.868,0,0,0-1.722-.674A9,9,0,0,0,175.311,25.62Z" transform="translate(-53.035 -22.4)" fill="#41342b"/>
    </g>
    <g id="Gruppe_4198" data-name="Gruppe 4198" transform="translate(10.9 47.634)">
      <path id="Pfad_21305" data-name="Pfad 21305" d="M17.639,58.723c-.3.3-.6.749-1.048,1.2-.374.524-.824,1.048-1.273,1.647s-.824,1.2-1.273,1.8a16.64,16.64,0,0,0-1.123,1.722h4.792v1.423H10.9V65.462c.15-.3.374-.674.6-1.048a9.756,9.756,0,0,1,.749-1.123,11.426,11.426,0,0,1,.824-1.2c.3-.374.524-.824.824-1.2a12.8,12.8,0,0,1,.824-1.048c.3-.374.524-.674.749-.9H11.125V57.6h6.44v1.123Z" transform="translate(-10.9 -56.477)" fill="#41342b"/>
      <path id="Pfad_21306" data-name="Pfad 21306" d="M24.17,60.2a3.5,3.5,0,0,1,1.273.225,1.939,1.939,0,0,1,.824.524,1.785,1.785,0,0,1,.449.824,5.78,5.78,0,0,1,.15,1.123v4.118a7.183,7.183,0,0,1-1.123.225,6.087,6.087,0,0,1-1.647.075,2.911,2.911,0,0,1-1.123-.15,2.768,2.768,0,0,1-.824-.374,1.2,1.2,0,0,1-.524-.674,2.392,2.392,0,0,1-.225-1.048,2.073,2.073,0,0,1,.225-.973,1.768,1.768,0,0,1,.6-.674,4.58,4.58,0,0,1,.9-.374,4.018,4.018,0,0,1,1.647-.075c.225,0,.374.075.6.075v-.225a1.274,1.274,0,0,0-.075-.524,1.1,1.1,0,0,0-.674-.749,2.073,2.073,0,0,0-.674-.075,4.269,4.269,0,0,0-.973.075c-.225.075-.524.075-.749.15L22,60.425l.9-.225Zm.075,5.841a5.668,5.668,0,0,0,1.123-.075V64.243c-.15,0-.225-.075-.374-.075s-.374-.075-.524-.075a1.274,1.274,0,0,0-.524.075,1.064,1.064,0,0,0-.449.15,1.315,1.315,0,0,0-.374.3,1.064,1.064,0,0,0-.15.449.76.76,0,0,0,.374.749,1.779,1.779,0,0,0,.9.225Z" transform="translate(-13.538 -57.13)" fill="#41342b"/>
      <path id="Pfad_21307" data-name="Pfad 21307" d="M31.3,66.059V56.325l1.572-.225v3.37a1.762,1.762,0,0,1,.6-.15,2.073,2.073,0,0,1,.674-.075,4.24,4.24,0,0,1,1.348.225,3.325,3.325,0,0,1,.824.6,2.321,2.321,0,0,1,.449.973,7.377,7.377,0,0,1,.15,1.273v3.819H35.343V62.54a3.646,3.646,0,0,0-.075-.9,1.43,1.43,0,0,0-.225-.6.767.767,0,0,0-.449-.374.807.807,0,0,0-.6-.15,1.46,1.46,0,0,0-.6.075,1.064,1.064,0,0,0-.449.15v5.391Z" transform="translate(-16.025 -56.1)" fill="#41342b"/>
      <path id="Pfad_21308" data-name="Pfad 21308" d="M43.711,66.209a5.78,5.78,0,0,1-1.123-.15,2.342,2.342,0,0,1-.749-.374,1.448,1.448,0,0,1-.374-.674,1.844,1.844,0,0,1-.075-.9V56.325l1.572-.225v7.787a.95.95,0,0,0,.075.449.389.389,0,0,0,.15.3c.075.075.225.15.3.225a1.274,1.274,0,0,0,.524.075Z" transform="translate(-18.552 -56.1)" fill="#41342b"/>
      <path id="Pfad_21309" data-name="Pfad 21309" d="M52.016,66.989a11.753,11.753,0,0,1-1.2.225,11.172,11.172,0,0,1-1.572.15,4.24,4.24,0,0,1-1.348-.225,2.044,2.044,0,0,1-.9-.674,2.321,2.321,0,0,1-.449-.973,7.377,7.377,0,0,1-.15-1.273V60.4h1.572v3.519a2.956,2.956,0,0,0,.3,1.572,1.285,1.285,0,0,0,1.123.449h.6a.95.95,0,0,0,.449-.075V60.4h1.572Z" transform="translate(-19.818 -57.18)" fill="#41342b"/>
      <path id="Pfad_21310" data-name="Pfad 21310" d="M56.5,60.574c.374-.075.749-.15,1.2-.225a11.17,11.17,0,0,1,1.572-.15,4.7,4.7,0,0,1,1.423.225,2.693,2.693,0,0,1,.9.6,2.321,2.321,0,0,1,.449.973,7.378,7.378,0,0,1,.15,1.273v3.819H60.618V63.495a3.646,3.646,0,0,0-.075-.9,1.43,1.43,0,0,0-.225-.6.767.767,0,0,0-.449-.374,2.073,2.073,0,0,0-.674-.075,1.46,1.46,0,0,0-.6.075,2.648,2.648,0,0,0-.449.075v5.466H56.575V60.574Z" transform="translate(-22.355 -57.13)" fill="#41342b"/>
      <path id="Pfad_21311" data-name="Pfad 21311" d="M72.09,66.465a3.146,3.146,0,0,1-.824,2.4,3.92,3.92,0,0,1-2.546.749,6.441,6.441,0,0,1-1.2-.075,4.293,4.293,0,0,1-1.048-.3l.3-1.348a4.222,4.222,0,0,0,.9.3,5.667,5.667,0,0,0,1.123.075,1.784,1.784,0,0,0,1.348-.374,1.3,1.3,0,0,0,.374-1.123V66.54c-.225.075-.374.15-.6.225a3.759,3.759,0,0,1-.9.15,3.391,3.391,0,0,1-1.2-.225,2.693,2.693,0,0,1-.9-.6,2.642,2.642,0,0,1-.6-.973,4.36,4.36,0,0,1-.225-1.423,4.24,4.24,0,0,1,.225-1.348,2.933,2.933,0,0,1,1.722-1.722A4.36,4.36,0,0,1,69.47,60.4a9.174,9.174,0,0,1,1.423.15c.449.075.824.15,1.2.225ZM67.747,63.62a1.656,1.656,0,0,0,.449,1.423,1.524,1.524,0,0,0,1.123.449,2.073,2.073,0,0,0,.674-.075,3.649,3.649,0,0,0,.524-.225V61.673c-.15,0-.225-.075-.449-.075h-.6a1.408,1.408,0,0,0-1.273.6A2.3,2.3,0,0,0,67.747,63.62Z" transform="translate(-24.767 -57.18)" fill="#41342b"/>
      <path id="Pfad_21312" data-name="Pfad 21312" d="M86.915,63.719a4.7,4.7,0,0,1-.225,1.423,4.105,4.105,0,0,1-.6,1.123,3.359,3.359,0,0,1-.973.749,2.421,2.421,0,0,1-1.273.225,1.9,1.9,0,0,1-.9-.15l-.674-.225v2.621H80.7V60.574a11.749,11.749,0,0,1,1.2-.225,10.147,10.147,0,0,1,1.5-.15,4.36,4.36,0,0,1,1.423.225,3.141,3.141,0,0,1,1.048.674,2.82,2.82,0,0,1,.674,1.123A2.785,2.785,0,0,1,86.915,63.719Zm-1.647,0a3.206,3.206,0,0,0-.449-1.647,1.923,1.923,0,0,0-1.5-.6h-.449c-.15,0-.3.075-.449.075v3.894c.15.075.374.225.524.3a2.215,2.215,0,0,0,.749.15,1.264,1.264,0,0,0,1.273-.6A2.706,2.706,0,0,0,85.268,63.719Z" transform="translate(-28.435 -57.13)" fill="#41342b"/>
      <path id="Pfad_21313" data-name="Pfad 21313" d="M90.6,63.691a3.911,3.911,0,0,1,.3-1.572A2.82,2.82,0,0,1,91.573,61a2.849,2.849,0,0,1,.973-.674,3.1,3.1,0,0,1,1.2-.225,2.635,2.635,0,0,1,2.171.9,3.622,3.622,0,0,1,.749,2.621v.6H92.172a1.714,1.714,0,0,0,.6,1.273,2.7,2.7,0,0,0,1.5.449,4.943,4.943,0,0,0,1.048-.075c.225-.075.524-.15.749-.225l.225,1.273c-.15.075-.225.075-.374.15s-.374.075-.524.15a1.649,1.649,0,0,1-.6.075c-.225,0-.449.075-.674.075a3.91,3.91,0,0,1-1.572-.3,2.3,2.3,0,0,1-1.123-.749,2.06,2.06,0,0,1-.6-1.123A5.188,5.188,0,0,1,90.6,63.691Zm4.568-.674a1.46,1.46,0,0,0-.075-.6,1.877,1.877,0,0,0-.3-.524c-.15-.15-.3-.225-.449-.374a1.762,1.762,0,0,0-.6-.15,1.411,1.411,0,0,0-.6.15,1.985,1.985,0,0,0-.449.374,1.207,1.207,0,0,0-.3.524,1.762,1.762,0,0,0-.15.6Z" transform="translate(-30.922 -57.102)" fill="#41342b"/>
      <path id="Pfad_21314" data-name="Pfad 21314" d="M104.819,61.772c-.15-.075-.374-.075-.524-.15a3.072,3.072,0,0,0-.824-.075,1.274,1.274,0,0,0-.524.075,3.243,3.243,0,0,0-.374.075v5.391H101v-6.44a6.238,6.238,0,0,1,1.123-.3,10.148,10.148,0,0,1,1.5-.15H104a.95.95,0,0,1,.449.075,3.243,3.243,0,0,1,.374.075c.15,0,.225.075.3.075Z" transform="translate(-33.535 -57.13)" fill="#41342b"/>
      <path id="Pfad_21315" data-name="Pfad 21315" d="M114.546,57.3a4.733,4.733,0,0,1,3,.749,2.643,2.643,0,0,1,.449,3.744,3.6,3.6,0,0,1-1.2.9,6.476,6.476,0,0,1,.524.749,6.246,6.246,0,0,1,.6.9,4.774,4.774,0,0,1,.6,1.048,6.846,6.846,0,0,1,.524,1.048h-1.8c-.15-.3-.374-.6-.524-.973-.225-.3-.374-.6-.6-.9a7.841,7.841,0,0,0-.6-.824,7.252,7.252,0,0,0-.524-.674h-1.348v3.37H112V57.52a7.378,7.378,0,0,1,1.273-.15A8.163,8.163,0,0,1,114.546,57.3Zm.075,1.423a3.956,3.956,0,0,0-.973.075v2.92h.674a4.944,4.944,0,0,0,1.048-.075,1.265,1.265,0,0,0,.749-.225.675.675,0,0,0,.449-.449,2.215,2.215,0,0,0,.15-.749,2.186,2.186,0,0,0-.15-.674.675.675,0,0,0-.449-.449,1.208,1.208,0,0,0-.674-.225A1.481,1.481,0,0,0,114.621,58.718Z" transform="translate(-36.298 -56.397)" fill="#41342b"/>
      <path id="Pfad_21316" data-name="Pfad 21316" d="M122.591,63.691a3.91,3.91,0,0,1,.3-1.572A2.82,2.82,0,0,1,123.564,61a2.849,2.849,0,0,1,.973-.674,3.1,3.1,0,0,1,1.2-.225,2.635,2.635,0,0,1,2.171.9,3.622,3.622,0,0,1,.749,2.621v.6h-4.493a1.714,1.714,0,0,0,.6,1.273,2.7,2.7,0,0,0,1.5.449,4.943,4.943,0,0,0,1.048-.075c.225-.075.524-.15.749-.225l.225,1.273c-.15.075-.225.075-.374.15s-.374.075-.524.15a1.649,1.649,0,0,1-.6.075c-.225,0-.449.075-.674.075a3.91,3.91,0,0,1-1.572-.3,2.3,2.3,0,0,1-1.123-.749,2.06,2.06,0,0,1-.6-1.123A2.635,2.635,0,0,1,122.591,63.691Zm4.493-.674a1.46,1.46,0,0,0-.075-.6,1.877,1.877,0,0,0-.3-.524c-.15-.15-.3-.225-.449-.374a1.762,1.762,0,0,0-.6-.15,1.411,1.411,0,0,0-.6.15,1.985,1.985,0,0,0-.449.374,1.207,1.207,0,0,0-.3.524,1.762,1.762,0,0,0-.15.6Z" transform="translate(-38.951 -57.102)" fill="#41342b"/>
      <path id="Pfad_21317" data-name="Pfad 21317" d="M132.4,63.694a4.7,4.7,0,0,1,.225-1.423,2.82,2.82,0,0,1,.674-1.123,3.375,3.375,0,0,1,1.048-.749,4.378,4.378,0,0,1,1.423-.3,4.819,4.819,0,0,1,1.8.374l-.374,1.273c-.225-.075-.374-.15-.6-.225a2.308,2.308,0,0,0-.749-.075,1.77,1.77,0,0,0-1.423.6,2.144,2.144,0,0,0-.449,1.647,2.768,2.768,0,0,0,.449,1.572,1.7,1.7,0,0,0,1.5.6,3.072,3.072,0,0,0,.824-.075,2.379,2.379,0,0,0,.674-.225l.225,1.273a2.853,2.853,0,0,1-.749.225,5.3,5.3,0,0,1-1.048.075A3.355,3.355,0,0,1,133.3,66.09a2.06,2.06,0,0,1-.6-1.123A2.142,2.142,0,0,1,132.4,63.694Z" transform="translate(-41.423 -57.105)" fill="#41342b"/>
      <path id="Pfad_21318" data-name="Pfad 21318" d="M141.1,66.059V56.325l1.572-.225v3.37a1.762,1.762,0,0,1,.6-.15,2.073,2.073,0,0,1,.674-.075,4.24,4.24,0,0,1,1.348.225,3.325,3.325,0,0,1,.824.6,2.321,2.321,0,0,1,.449.973,7.376,7.376,0,0,1,.15,1.273v3.819h-1.572V62.54a3.645,3.645,0,0,0-.075-.9,1.429,1.429,0,0,0-.225-.6.767.767,0,0,0-.449-.374,1.057,1.057,0,0,0-.674-.075,1.46,1.46,0,0,0-.6.075,1.064,1.064,0,0,0-.449.15v5.391Z" transform="translate(-43.608 -56.1)" fill="#41342b"/>
      <path id="Pfad_21319" data-name="Pfad 21319" d="M151.1,60.574c.374-.075.749-.15,1.2-.225a11.17,11.17,0,0,1,1.572-.15,4.7,4.7,0,0,1,1.423.225,2.693,2.693,0,0,1,.9.6,2.321,2.321,0,0,1,.449.973,7.378,7.378,0,0,1,.15,1.273v3.819h-1.572V63.495a3.645,3.645,0,0,0-.075-.9,1.43,1.43,0,0,0-.225-.6.767.767,0,0,0-.449-.374,1.057,1.057,0,0,0-.674-.075,1.46,1.46,0,0,0-.6.075,2.648,2.648,0,0,0-.449.075v5.466h-1.572Z" transform="translate(-46.121 -57.13)" fill="#41342b"/>
      <path id="Pfad_21320" data-name="Pfad 21320" d="M166.816,66.989a11.753,11.753,0,0,1-1.2.225,11.172,11.172,0,0,1-1.572.15,4.24,4.24,0,0,1-1.348-.225,2.044,2.044,0,0,1-.9-.674,2.321,2.321,0,0,1-.449-.973,7.378,7.378,0,0,1-.15-1.273V60.4h1.572v3.519a2.956,2.956,0,0,0,.3,1.572,1.285,1.285,0,0,0,1.123.449h.6a.95.95,0,0,0,.449-.075V60.4h1.572Z" transform="translate(-48.658 -57.18)" fill="#41342b"/>
      <path id="Pfad_21321" data-name="Pfad 21321" d="M171.3,60.574c.374-.075.749-.15,1.2-.225a11.17,11.17,0,0,1,1.572-.15,4.7,4.7,0,0,1,1.423.225,2.693,2.693,0,0,1,.9.6,2.321,2.321,0,0,1,.449.973,7.378,7.378,0,0,1,.15,1.273v3.819h-1.572V63.495a3.645,3.645,0,0,0-.075-.9,1.43,1.43,0,0,0-.225-.6.767.767,0,0,0-.449-.374,1.057,1.057,0,0,0-.674-.075,1.46,1.46,0,0,0-.6.075,2.648,2.648,0,0,0-.449.075v5.466h-1.572Z" transform="translate(-51.195 -57.13)" fill="#41342b"/>
      <path id="Pfad_21322" data-name="Pfad 21322" d="M186.89,66.465a3.146,3.146,0,0,1-.824,2.4,3.92,3.92,0,0,1-2.546.749,6.441,6.441,0,0,1-1.2-.075,4.292,4.292,0,0,1-1.048-.3l.3-1.348a4.222,4.222,0,0,0,.9.3,5.667,5.667,0,0,0,1.123.075,1.784,1.784,0,0,0,1.348-.374,1.3,1.3,0,0,0,.374-1.123V66.54c-.225.075-.374.15-.6.225a3.759,3.759,0,0,1-.9.15,3.391,3.391,0,0,1-1.2-.225,2.693,2.693,0,0,1-.9-.6,2.642,2.642,0,0,1-.6-.973,4.359,4.359,0,0,1-.225-1.423,4.24,4.24,0,0,1,.225-1.348,2.933,2.933,0,0,1,1.722-1.722,4.36,4.36,0,0,1,1.423-.225,9.174,9.174,0,0,1,1.423.15c.449.075.824.15,1.2.225v5.691Zm-4.343-2.845A1.656,1.656,0,0,0,183,65.042a1.524,1.524,0,0,0,1.123.449,2.073,2.073,0,0,0,.674-.075,3.65,3.65,0,0,0,.524-.225V61.673c-.15,0-.225-.075-.449-.075h-.6a1.408,1.408,0,0,0-1.273.6A2.3,2.3,0,0,0,182.547,63.62Z" transform="translate(-53.607 -57.18)" fill="#41342b"/>
    </g>
  </g>
</svg>
