<?xml version="1.0" encoding="utf-8"?>
<!-- Generator: Adobe Illustrator 15.1.0, SVG Export Plug-In . SVG Version: 6.00 Build 0)  -->
<!DOCTYPE svg PUBLIC "-//W3C//DTD SVG 1.1//EN" "http://www.w3.org/Graphics/SVG/1.1/DTD/svg11.dtd">
<svg version="1.1" id="Ebene_1" xmlns="http://www.w3.org/2000/svg" xmlns:xlink="http://www.w3.org/1999/xlink" x="0px" y="0px"
	 width="87.875px" height="87.875px" viewBox="0 0 87.875 87.875" enable-background="new 0 0 87.875 87.875" xml:space="preserve">
<g>
	<rect fill="#C8102E" width="87.874" height="87.875"/>
	<g>
		<g>
			<path fill="#FFFFFF" d="M71.313,29.231h-23.89c-0.498,0-0.82,0.317-0.82,0.816v5.83c0,0.5,0.322,0.817,0.82,0.817h7.961v22.947
				c0,0.5,0.322,0.815,0.815,0.815h6.377c0.497,0,0.812-0.315,0.812-0.815V36.694h7.925c0.497,0,0.813-0.317,0.813-0.817v-5.83
				C72.129,29.548,71.813,29.231,71.313,29.231 M29.271,47.516l3.804-10.778l3.755,10.778H29.271z M42.077,60.457h6.7
				c0.586,0,0.857-0.408,0.633-0.951L38.229,29.867c-0.178-0.409-0.448-0.634-0.901-0.634h-8.601c-0.453,0-0.723,0.225-0.905,0.634
				L16.645,59.506c-0.225,0.543,0.046,0.951,0.633,0.951h6.744c0.453,0,0.77-0.227,0.902-0.684l1.854-5.203h12.537l1.859,5.203
				C41.309,60.23,41.625,60.457,42.077,60.457"/>
		</g>
	</g>
</g>
</svg>
