<svg xmlns="http://www.w3.org/2000/svg" xmlns:xlink="http://www.w3.org/1999/xlink" width="305.564" height="72.724" viewBox="0 0 305.564 72.724">
  <defs>
    <clipPath id="clip-path">
      <rect id="Rechteck_89" data-name="Rechteck 89" width="305.564" height="72.723" fill="#4a783c"/>
    </clipPath>
  </defs>
  <g id="Gruppe_2338" data-name="Gruppe 2338" clip-path="url(#clip-path)">
    <path id="Pfad_20208" data-name="Pfad 20208" d="M281.282,236.374a3.133,3.133,0,0,1-3.214-3.172,3.175,3.175,0,0,1,3.446-3.18,3.219,3.219,0,0,1,2.953,3.363,3.173,3.173,0,0,1-3.185,2.988" transform="translate(-72.86 -220.159)" fill="#4a783c"/>
    <path id="Pfad_20209" data-name="Pfad 20209" d="M270.052,230.079a3.2,3.2,0,0,1,3.181,3.248,3.244,3.244,0,0,1-3.435,3.1,3.194,3.194,0,0,1-2.973-3.193,3.134,3.134,0,0,1,3.227-3.158" transform="translate(-73.27 -220.157)" fill="#4a783c"/>
    <path id="Pfad_20210" data-name="Pfad 20210" d="M343.541,260.978c-.913,0-1.1,1.029-1.421,1.674a7.144,7.144,0,0,1-7.4,3.935c-3.287-.519-5.182-3.428-5.785-6.5a32.316,32.316,0,0,1-.365-7.2l12.674,0c2.167,0,3.207-1.04,2.947-2.774a12.874,12.874,0,0,0-3.554-7.319c-6.57-6.345-14.95-2.993-18.128,3.19a21.011,21.011,0,0,0-.909,15.652c2.152,6.167,8.146,10.4,14.773,9.142,6.128-1.161,8.209-7.836,8.207-8.76a1.044,1.044,0,0,0-1.036-1.047m-13.525-16.753c2.263-2.735,5.591-2.384,7.2-.347,1.525,1.937,1.482,5.892,1.451,6.9h-10.1c0-1.249.034-4.834,1.453-6.55" transform="translate(-71.311 -219.817)" fill="#4a783c"/>
    <path id="Pfad_20211" data-name="Pfad 20211" d="M133.586,245.418a5.789,5.789,0,0,0-4.56-5.232c-2.974-.653-5.306,1.086-6.8,3.516-.281.456-.546.92-.819,1.383l-.054-.014,0-4.422v-.441l-9.914,0a1.056,1.056,0,0,0,0,2.112H114.1v26.526h-4.231c-.178-.006-.349-.011-.5-.011-.715,0-1.2-.9-1.312-1.091-.8-1.308-1.367-2.248-2.17-3.556q-3.627-5.9-7.31-11.771c-.585-.928-1.162-1.863-1.652-2.844-.093-.15-.166-.3-.02-.458s.3-.339.445-.511c1.607-1.886,3.2-3.788,4.751-5.724a1.229,1.229,0,0,1,1.087-.553l2.217,0a1.059,1.059,0,0,0-.037-2.118l-7.6,0a1.059,1.059,0,0,0,.04,2.118h1.889l-8.4,9.755V220.511l-10.17,0a1.05,1.05,0,0,0,0,2.1h2.341c.452,0,.452,0,.452.439v45.78l-2.73,0c-.011,0-.024,0-.036,0a1.056,1.056,0,0,0-.027,2.111s12.726,0,12.738,0a1.056,1.056,0,0,0,.029-2.112h-2.56V255.691l8.137,13.157H96.951a1.048,1.048,0,0,0,0,2.1l29.888,0a1.047,1.047,0,0,0,0-2.095H121.5v-.08c0-4.931,0-10.708,0-16.539a14.842,14.842,0,0,1,.265-3.084,13.229,13.229,0,0,1,1.707-4.418c.476-.754,1.286-1.921,2.194-1.858,2.53.174-.959,8.026,4.8,7.939,2.905-.044,3.315-2.529,3.121-5.39" transform="translate(-80.087 -220.506)" fill="#4a783c"/>
    <path id="Pfad_20212" data-name="Pfad 20212" d="M261.08,241.354a5.438,5.438,0,0,0-4.638-2.044,6.063,6.063,0,0,0-3.1,1.069,8.769,8.769,0,0,0-2.292,2.6c-.283.454-.55.917-.825,1.378a.029.029,0,0,1-.053-.014l.008-2.717h.006v-2.107l-.077.022h-10a1.043,1.043,0,0,0,0,2.085h2.718l-.026.007v26.509l-1.943,0a1.059,1.059,0,1,0-.015,2.118l.021,0,14.725,0h.049a1.054,1.054,0,0,0-.032-2.107c0-.005-5.321-.005-5.321-.005V251.507a14.838,14.838,0,0,1,.28-3.083,13.233,13.233,0,0,1,1.728-4.409c.479-.751,1.3-1.915,2.2-1.848,2.529.187-1,8.021,4.761,7.961a3.055,3.055,0,0,0,2.123-.748,3.48,3.48,0,0,0,.919-1.892,7.766,7.766,0,0,0-1.22-6.134" transform="translate(-74.284 -219.82)" fill="#4a783c"/>
    <path id="Pfad_20213" data-name="Pfad 20213" d="M374.08,268.135h-2.753c0-.04,0-.036,0-.076,0-4.767.112-9.533.055-14.3-.047-3.919.45-8.728-2.378-11.878a6.9,6.9,0,0,0-1.341-1.151c-1.686-1.1-5.758-2.007-8.724-.232a17.08,17.08,0,0,0-4.3,3.606v-4.569l-.026.007v-.006H344.535a1.043,1.043,0,0,0,0,2.085h2.709v26.514h-2.661a.265.265,0,0,0-.028,0c-.01,0-.02,0-.039,0a1.058,1.058,0,0,0-.009,2.114s12.787,0,12.787,0a1.058,1.058,0,0,0-.008-2.117h-2.647l0-.032a2.348,2.348,0,0,1,0-.566c-.005-3.585.018-7.171.018-10.756.007-1.737.019-3.475-.012-5.213a10.613,10.613,0,0,1,.062-1.921,10.09,10.09,0,0,1,1.608-3.631c1.3-2.02,4.175-4.571,6.456-2.187a5.414,5.414,0,0,1,1.165,3.706c.027,7.246.012,13.352.012,20.6l-2.606.006-.02,0a1.058,1.058,0,1,0-.009,2.117l12.775-.007a1.055,1.055,0,0,0,0-2.11" transform="translate(-70.472 -219.813)" fill="#4a783c"/>
    <path id="Pfad_20214" data-name="Pfad 20214" d="M245.5,249.77c.114-1.133-3.868-2.918-7.263-.553a4.8,4.8,0,0,0-.816.864,6.9,6.9,0,0,0-4.431-3.979,5.492,5.492,0,0,0-3.392.017,5.205,5.205,0,0,0-2.628,2.12,4.463,4.463,0,0,0-.7,3.342,4.694,4.694,0,0,0,1.823,2.775,4.323,4.323,0,0,0,1.5.738,2.652,2.652,0,0,0,1.87-.134.686.686,0,0,0-.565-1.249l-.129.03a2.077,2.077,0,0,1-1.683-.644,3.012,3.012,0,0,1-1.058-1.833,2.584,2.584,0,0,1,.57-1.917,3.206,3.206,0,0,1,1.656-1.255,4.218,4.218,0,0,1,3.974,1.3,4.03,4.03,0,0,1,1.112,1.859,7.874,7.874,0,0,1,.378,2.372c.011,3.241-2.326,6.294-4.734,8.809-4.079-4.58-7.516-10.485-9.039-12.911q8.78-5.888,8.779-12.083c0-5.166-5.162-7.837-9.575-7.837-5.073,0-9.91,4.187-9.91,9.489a13.262,13.262,0,0,0,.564,3.565,31.571,31.571,0,0,0,3.261,6.453c-3.627,1.4-7.473,4.119-8.846,7.921a17.794,17.794,0,0,0-.722,5.373,10.889,10.889,0,0,1-1.474,4.865,3.6,3.6,0,0,1-2.615,2.145,2.207,2.207,0,0,1-2.046-.792,5.19,5.19,0,0,1-.749-2.911c0-5.122-.019-10.244-.017-15.366q0-4.178,0-8.356h5.3a1.057,1.057,0,0,0,.041-2.112h-5.355V231.13H191.2v8.747h-2.685s-.06,0-.06.006a1.056,1.056,0,0,0,0,2.107l.073,0h2.689c-.033.035.146,19.49-.208,21.15a9.7,9.7,0,0,1-.666,2.03c-.778,1.688-2.077,3.373-4.062,3.571a2.821,2.821,0,0,1-3.023-2.582l.012-26.257H173.191a1.043,1.043,0,0,0,0,2.085h2.717s.012,11.715-.011,17.293a19.5,19.5,0,0,1-.263,3.017,6.677,6.677,0,0,1-2.442,4.349c-1.978,1.571-5.827.585-5.836-3.538-.013-5.886-.013-16.619-.012-21.128V239.9H157.268a1.043,1.043,0,1,0,0,2.085h2.7l-.009,0q0,5.95,0,11.9,0,2.985,0,5.969c0,1.913.11,3.832-.718,5.615a6.191,6.191,0,0,1-2.333,2.785,3.563,3.563,0,0,1-1.813.506,2.574,2.574,0,0,1-2.5-2.705c-.194-3.083.186-15.145-.086-18.08-.313-3.375-1.706-6.557-5.033-7.865-3.771-1.483-9.262-1.212-12.406,1.6a6.834,6.834,0,0,0-2.437,4.563c-.091.988-.228,4.452,3.515,4.2,2.645-.174,3.169-2.53,3.518-4.275.162-.805-.011-5.275,3.209-5.113,2.811.141,2.436,3.449,2.462,4.5.044,1.786-.114,2.964-.157,4.749a4.8,4.8,0,0,1-.353,1.647c-.416,1.011-1.373,1.322-2.305,1.767-.863.413-5.683,2.547-7.285,3.315a7.7,7.7,0,0,0-4.308,6.338,7.059,7.059,0,0,0,5.46,7.817c2.654.629,6.246.037,8.182-1.985a15.892,15.892,0,0,0,1.211-1.532,1.208,1.208,0,0,1,.064.122,5.989,5.989,0,0,0,1.1,1.972,5.179,5.179,0,0,0,3.808,1.664,11.423,11.423,0,0,0,3.263-.164c4.08-.917,6.128-3.151,6.737-4.381-.024.051.056.162.076.205a6.875,6.875,0,0,0,2.48,3.195,7.092,7.092,0,0,0,2.063.814,10.875,10.875,0,0,0,2.705.343,9.834,9.834,0,0,0,8.367-4.613,7.393,7.393,0,0,0,1.734,2.684c1.57,1.744,4.291,2.086,6.559,1.8a8.958,8.958,0,0,0,6.8-4.423,4.571,4.571,0,0,0,.842,1.807,5,5,0,0,0,1.566,1.449,9.571,9.571,0,0,0,4.379,1.361c3.026.174,6.022-.991,7.387-3.808a15.131,15.131,0,0,0,.744-2.212,10.722,10.722,0,0,0,2.657,3.67,13.675,13.675,0,0,0,9.564,3.288,14.808,14.808,0,0,0,10.025-3.7c.1-.065.2-.137.3-.211,2.156,1.366,4.919,3.259,11.941,2.305,2.236-.3,1.852-2.525.03-2.4-2.628.186-5.379-1.492-7.97-3.946a21.857,21.857,0,0,0,4.712-8.45c2.451-5.043,7.743-4.166,7.789-6.3m-3.135-.228c.159,0,.345.033.1.111a7.09,7.09,0,0,0-4.425,3.836,9.742,9.742,0,0,0-.132-1.656c.2-.421,1.225-2.211,4.455-2.291m-98.349,17.685a4.033,4.033,0,0,1-5.128.747c-2.879-2.224-2.487-6.935.7-9.378.784-.6,4.5-2.868,5.5-3.49l.085,8.258a6.286,6.286,0,0,1-1.152,3.863m73.743-32.333a4.074,4.074,0,0,1,6.314-.343,6.022,6.022,0,0,1,1.286,4.765c-.436,3.169-2.706,5.51-5.092,7.426.031-.025-1.609-2.931-1.744-3.2-1.308-2.611-2.531-5.967-.764-8.645m2.206,33.755a7.835,7.835,0,0,1-5.862-2.339,8.409,8.409,0,0,1-2.284-6.137,9.427,9.427,0,0,1,4.844-8.45,149.362,149.362,0,0,0,10.1,14.339,10.691,10.691,0,0,1-6.8,2.587" transform="translate(-78.233 -220.174)" fill="#4a783c"/>
    <path id="Pfad_20215" data-name="Pfad 20215" d="M321.33,254.75a21.539,21.539,0,0,0-1.053-5.692,15.293,15.293,0,0,0-4.728-7.256c-3.23-2.577-8.7-3.451-11.456.242V220.509H293.607c-.011,0-.023,0-.035,0a1.054,1.054,0,1,0,0,2.107.133.133,0,0,1,.035,0h2.616l-.032,32.426a54.347,54.347,0,0,1-.156,7.956c-.313,2.112-1.18,4.52-3.18,5.582a3.2,3.2,0,0,1-3.071.172,2.823,2.823,0,0,1-1.475-2.255l.011-24.179h0v-2.1l-.041.011H278.244a1.043,1.043,0,0,0,0,2.085h2.724l-.036.01-.011,17.3s-.1,2.022-.262,3.017a6.674,6.674,0,0,1-2.442,4.348,3.16,3.16,0,0,1-.809.464c-2.061.791-4.99-.418-5-4.013-.018-7.581-.011-23.214-.011-23.214s-10.156,0-10.156,0a1.048,1.048,0,0,0,0,2.093h2.739q0,4.3,0,8.6c0,2.5,0,5.1-.011,7.643a33.565,33.565,0,0,0,.368,7.32c1.739,7.957,12.372,7.243,16.129,1.355a8.688,8.688,0,0,0,1.733,2.649,6.9,6.9,0,0,0,5.717,1.9,10.172,10.172,0,0,0,6.272-2.666,9.323,9.323,0,0,0,1.2-1.371,6.313,6.313,0,0,0,.814-1.534,8.745,8.745,0,0,0,1.511,2.048,11.989,11.989,0,0,0,2.163,1.921c4.292,2.934,11.316,2.041,15.174-1.22a14.264,14.264,0,0,0,3.9-5.7,20.507,20.507,0,0,0,1.38-8.519m-8.347,10.835c-2.526,5.5-7.464,3.743-8.64.271a21.591,21.591,0,0,1-.617-6.284c-.008-2.821.024-7.265.07-11.787,1.167-6.222,6.42-6.044,8.108-4.233,2.385,2.559,2.873,6.017,2.873,11.717a32.057,32.057,0,0,1-1.794,10.317" transform="translate(-73.474 -220.506)" fill="#4a783c"/>
    <path id="Pfad_20216" data-name="Pfad 20216" d="M200.5,286.052l-1.173-.492c-.721-.3-1.384-.548-1.384-1.232,0-.636.537-1.022,1.362-1.022a2.807,2.807,0,0,1,1.89.748l.793-.979a3.815,3.815,0,0,0-2.682-1.109,2.647,2.647,0,0,0-2.922,2.453,2.5,2.5,0,0,0,1.76,2.307l1.189.515c.79.336,1.352.565,1.352,1.28,0,.679-.538,1.124-1.516,1.124a3.411,3.411,0,0,1-2.267-.993l-.9,1.059a4.48,4.48,0,0,0,3.134,1.275c1.953,0,3.124-1.176,3.124-2.587a2.41,2.41,0,0,0-1.759-2.347" transform="translate(-75.856 -218.263)" fill="#4a783c"/>
    <path id="Pfad_20217" data-name="Pfad 20217" d="M207.236,289.644c-1.458,0-2.4-1.2-2.4-3.188,0-1.953,1.017-3.15,2.432-3.15a2.268,2.268,0,0,1,1.65.756l.825-1a3.458,3.458,0,0,0-2.506-1.1c-2.2,0-3.985,1.692-3.985,4.54,0,2.879,1.734,4.481,3.921,4.481a3.471,3.471,0,0,0,2.741-1.267l-.824-.969a2.449,2.449,0,0,1-1.857.895" transform="translate(-75.591 -218.263)" fill="#4a783c"/>
    <path id="Pfad_20218" data-name="Pfad 20218" d="M216.281,285.616h-3.518v-3.5h-1.543v8.7h1.543v-3.859h3.518v3.859h1.543v-8.7h-1.543Z" transform="translate(-75.3 -218.257)" fill="#4a783c"/>
    <path id="Pfad_20219" data-name="Pfad 20219" d="M224.39,281.487a.793.793,0,1,0-.793-.793.766.766,0,0,0,.793.793" transform="translate(-74.848 -218.338)" fill="#4a783c"/>
    <path id="Pfad_20220" data-name="Pfad 20220" d="M221.649,281.487a.793.793,0,1,0-.793-.793.766.766,0,0,0,.793.793" transform="translate(-74.948 -218.338)" fill="#4a783c"/>
    <path id="Pfad_20221" data-name="Pfad 20221" d="M223.126,281.965c-2.267,0-3.837,1.66-3.837,4.476s1.57,4.545,3.837,4.545,3.838-1.73,3.838-4.545-1.57-4.476-3.838-4.476m0,7.679c-1.367,0-2.251-1.25-2.251-3.2s.884-3.134,2.251-3.134,2.251,1.182,2.251,3.134-.883,3.2-2.251,3.2" transform="translate(-75.006 -218.263)" fill="#4a783c"/>
    <path id="Pfad_20222" data-name="Pfad 20222" d="M233.494,285.9c0,.968.123,2.07.2,2.97h-.053l-.9-1.857-2.7-4.891h-1.586v8.7h1.47V287.01c0-.968-.122-2.017-.2-2.937h.053l.9,1.849,2.7,4.9h1.586v-8.7h-1.469Z" transform="translate(-74.671 -218.257)" fill="#4a783c"/>
    <path id="Pfad_20223" data-name="Pfad 20223" d="M238.542,286.946h3.129v-1.3h-3.129v-2.231h3.693v-1.3H237v8.7h5.37v-1.3h-3.827Z" transform="translate(-74.359 -218.257)" fill="#4a783c"/>
    <path id="Pfad_20224" data-name="Pfad 20224" d="M250.169,284.7c0-1.943-1.394-2.581-3.2-2.581h-2.932v8.7h1.543v-3.4H246.9l1.872,3.4h1.735l-2.082-3.629a2.452,2.452,0,0,0,1.741-2.492m-3.363,1.484h-1.229v-2.831h1.229c1.193,0,1.842.345,1.842,1.346s-.649,1.484-1.842,1.484" transform="translate(-74.102 -218.257)" fill="#4a783c"/>
    <path id="Pfad_20225" data-name="Pfad 20225" d="M252.431,288.665a1.039,1.039,0,1,0,.99,1.043.994.994,0,0,0-.99-1.043" transform="translate(-73.832 -218.018)" fill="#4a783c"/>
    <path id="Pfad_20226" data-name="Pfad 20226" d="M265.007,286.515c-.141.91-.28,1.844-.421,2.778h-.053c-.192-.934-.383-1.876-.575-2.778l-1.07-4.4h-1.341l-1.07,4.4c-.192.918-.382,1.852-.564,2.778h-.053c-.142-.926-.29-1.852-.431-2.778l-.756-4.4h-1.586l1.729,8.7H260.7l1.053-4.582c.144-.676.275-1.341.394-2h.053c.112.659.239,1.325.385,2l1.079,4.582h1.911l1.671-8.7h-1.479Z" transform="translate(-73.626 -218.257)" fill="#4a783c"/>
    <rect id="Rechteck_87" data-name="Rechteck 87" width="1.544" height="8.701" transform="translate(195.107 63.862)" fill="#4a783c"/>
    <path id="Pfad_20227" data-name="Pfad 20227" d="M273.615,282.119h-1.543v8.7h5.157v-1.3h-3.613Z" transform="translate(-73.079 -218.257)" fill="#4a783c"/>
    <path id="Pfad_20228" data-name="Pfad 20228" d="M280.837,282.119h-2.32v8.7h2.4c2.586,0,4.162-1.507,4.162-4.385s-1.576-4.316-4.241-4.316m-.1,7.45h-.676v-6.2h.676c1.752,0,2.757.927,2.757,3.066s-1.005,3.134-2.757,3.134" transform="translate(-72.844 -218.257)" fill="#4a783c"/>
    <path id="Pfad_20229" data-name="Pfad 20229" d="M288.084,286.946h3.129v-1.3h-3.129v-2.231h3.693v-1.3h-5.235v8.7h5.369v-1.3h-3.827Z" transform="translate(-72.551 -218.257)" fill="#4a783c"/>
    <path id="Pfad_20230" data-name="Pfad 20230" d="M299.712,284.7c0-1.943-1.394-2.581-3.2-2.581h-2.931v8.7h1.542v-3.4h1.327l1.873,3.4h1.734l-2.081-3.629a2.453,2.453,0,0,0,1.741-2.492m-3.363,1.484h-1.23v-2.831h1.23c1.192,0,1.842.345,1.842,1.346s-.65,1.484-1.842,1.484" transform="translate(-72.294 -218.257)" fill="#4a783c"/>
    <path id="Pfad_20231" data-name="Pfad 20231" d="M301.973,288.665a1.039,1.039,0,1,0,.991,1.043.995.995,0,0,0-.991-1.043" transform="translate(-72.023 -218.018)" fill="#4a783c"/>
    <path id="Pfad_20232" data-name="Pfad 20232" d="M312.274,286.2v-.054a1.953,1.953,0,0,0,1.208-1.883c0-1.6-1.314-2.145-3.1-2.145H307.6v8.7H310.6c1.916,0,3.343-.815,3.343-2.555a1.991,1.991,0,0,0-1.671-2.065m-3.135-2.879h1.134c1.128,0,1.7.319,1.7,1.16,0,.757-.515,1.229-1.729,1.229h-1.1Zm1.3,6.3h-1.3v-2.751h1.3c1.3,0,1.99.4,1.99,1.314,0,.978-.712,1.437-1.99,1.437" transform="translate(-71.782 -218.257)" fill="#4a783c"/>
    <rect id="Rechteck_88" data-name="Rechteck 88" width="1.542" height="8.701" transform="translate(244.023 63.862)" fill="#4a783c"/>
    <path id="Pfad_20233" data-name="Pfad 20233" d="M322.661,281.965c-2.268,0-3.837,1.66-3.837,4.476s1.569,4.545,3.837,4.545,3.837-1.73,3.837-4.545-1.57-4.476-3.837-4.476m0,7.679c-1.368,0-2.251-1.25-2.251-3.2s.883-3.134,2.251-3.134,2.251,1.182,2.251,3.134-.884,3.2-2.251,3.2" transform="translate(-71.372 -218.263)" fill="#4a783c"/>
    <path id="Pfad_20234" data-name="Pfad 20234" d="M331.33,287.383h1.639v1.878a1.95,1.95,0,0,1-1.241.384c-1.744,0-2.665-1.2-2.665-3.188,0-1.953,1.038-3.151,2.58-3.151a2.352,2.352,0,0,1,1.756.757l.826-1a3.581,3.581,0,0,0-2.629-1.1c-2.317,0-4.119,1.692-4.119,4.54,0,2.879,1.75,4.481,4.1,4.481a3.962,3.962,0,0,0,2.778-1.032v-3.838H331.33Z" transform="translate(-71.056 -218.263)" fill="#4a783c"/>
    <path id="Pfad_20235" data-name="Pfad 20235" d="M337.71,282.119l-2.837,8.7h1.576l.68-2.358h2.919l.675,2.358h1.634l-2.836-8.7Zm-.232,5.133.306-1.062c.278-.919.533-1.9.772-2.868h.054c.255.956.51,1.949.788,2.868l.3,1.062Z" transform="translate(-70.786 -218.257)" fill="#4a783c"/>
    <path id="Pfad_20236" data-name="Pfad 20236" d="M349.383,284.7c0-1.943-1.394-2.581-3.2-2.581h-2.932v8.7h1.543v-3.4h1.326l1.873,3.4h1.735l-2.082-3.629a2.453,2.453,0,0,0,1.741-2.492m-3.363,1.484H344.79v-2.831h1.229c1.192,0,1.842.345,1.842,1.346s-.65,1.484-1.842,1.484" transform="translate(-70.481 -218.257)" fill="#4a783c"/>
    <path id="Pfad_20237" data-name="Pfad 20237" d="M350.041,283.418h2.511v7.4H354.1v-7.4h2.512v-1.3h-6.567Z" transform="translate(-70.233 -218.257)" fill="#4a783c"/>
    <path id="Pfad_20238" data-name="Pfad 20238" d="M359.387,286.946h3.129v-1.3h-3.129v-2.231h3.693v-1.3h-5.236v8.7h5.37v-1.3h-3.827Z" transform="translate(-69.948 -218.257)" fill="#4a783c"/>
    <path id="Pfad_20239" data-name="Pfad 20239" d="M369.8,285.9c0,.968.122,2.07.2,2.97h-.054l-.9-1.857-2.7-4.891H364.75v8.7h1.469V287.01c0-.968-.122-2.017-.2-2.937h.054l.9,1.849,2.7,4.9h1.586v-8.7H369.8Z" transform="translate(-69.696 -218.257)" fill="#4a783c"/>
    <path id="Pfad_20240" data-name="Pfad 20240" d="M373.969,288.665a1.039,1.039,0,1,0,.991,1.043.994.994,0,0,0-.991-1.043" transform="translate(-69.395 -218.018)" fill="#4a783c"/>
  </g>
</svg>
