<?xml version="1.0" encoding="UTF-8"?>
<svg xmlns="http://www.w3.org/2000/svg" xmlns:xlink="http://www.w3.org/1999/xlink" width="329pt" height="59pt" viewBox="0 0 329 59" version="1.1">
<g id="surface1">
<path style=" stroke:none;fill-rule:nonzero;fill:rgb(0%,47.058824%,23.137255%);fill-opacity:1;" d="M 0.0820312 0.0820312 L 59.039062 0.0820312 L 59.039062 58.878906 L 0.0820312 58.878906 Z M 0.0820312 0.0820312 "/>
<path style=" stroke:none;fill-rule:nonzero;fill:rgb(0%,0%,0%);fill-opacity:1;" d="M 68.914062 50.886719 L 71.453125 50.886719 C 73.789062 50.886719 75.386719 52.320312 75.386719 54.78125 C 75.386719 57.277344 73.789062 58.714844 71.453125 58.714844 L 68.914062 58.714844 Z M 71.371094 58.058594 C 73.296875 58.058594 74.566406 56.910156 74.566406 54.820312 C 74.566406 52.730469 73.257812 51.585938 71.371094 51.585938 L 69.691406 51.585938 L 69.691406 58.058594 Z M 71.371094 58.058594 "/>
<path style=" stroke:none;fill-rule:nonzero;fill:rgb(0%,0%,0%);fill-opacity:1;" d="M 76.945312 50.886719 L 77.722656 50.886719 L 77.722656 51.828125 L 76.945312 51.828125 Z M 76.945312 53.140625 L 77.683594 53.140625 L 77.683594 58.753906 L 76.945312 58.753906 Z M 76.945312 53.140625 "/>
<path style=" stroke:none;fill-rule:nonzero;fill:rgb(0%,0%,0%);fill-opacity:1;" d="M 81.902344 52.976562 C 83.457031 52.976562 84.238281 54.164062 84.238281 55.558594 C 84.238281 55.679688 84.195312 55.96875 84.195312 55.96875 L 79.894531 55.96875 C 79.933594 57.402344 80.917969 58.179688 82.066406 58.179688 C 83.089844 58.179688 83.785156 57.484375 83.785156 57.484375 L 84.113281 58.058594 C 84.113281 58.058594 83.292969 58.835938 82.023438 58.835938 C 80.34375 58.835938 79.074219 57.648438 79.074219 55.886719 C 79.15625 54.082031 80.386719 52.976562 81.902344 52.976562 Z M 83.5 55.351562 C 83.457031 54.164062 82.722656 53.632812 81.902344 53.632812 C 80.960938 53.632812 80.140625 54.207031 79.976562 55.351562 Z M 83.5 55.351562 "/>
<path style=" stroke:none;fill-rule:nonzero;fill:rgb(0%,0%,0%);fill-opacity:1;" d="M 88.785156 57.277344 C 88.785156 57.277344 89.605469 58.140625 90.832031 58.140625 C 91.695312 58.140625 92.390625 57.605469 92.390625 56.789062 C 92.390625 54.820312 88.5 55.3125 88.5 52.894531 C 88.5 51.789062 89.480469 50.804688 90.957031 50.804688 C 92.308594 50.804688 93.046875 51.542969 93.046875 51.542969 L 92.675781 52.199219 C 92.675781 52.199219 91.980469 51.542969 90.957031 51.542969 C 89.972656 51.542969 89.316406 52.199219 89.316406 52.894531 C 89.316406 54.738281 93.210938 54.207031 93.210938 56.789062 C 93.210938 57.976562 92.308594 58.917969 90.832031 58.917969 C 89.234375 58.917969 88.335938 57.933594 88.335938 57.933594 Z M 88.785156 57.277344 "/>
<path style=" stroke:none;fill-rule:nonzero;fill:rgb(0%,0%,0%);fill-opacity:1;" d="M 94.890625 53.835938 L 94.152344 53.835938 L 94.152344 53.183594 L 94.890625 53.183594 L 94.890625 51.585938 L 95.628906 51.585938 L 95.628906 53.183594 L 97.019531 53.183594 L 97.019531 53.835938 L 95.628906 53.835938 L 95.628906 56.625 C 95.628906 57.933594 96.445312 58.097656 96.898438 58.097656 C 97.0625 58.097656 97.144531 58.058594 97.144531 58.058594 L 97.144531 58.753906 C 97.144531 58.753906 97.019531 58.796875 96.816406 58.796875 C 96.160156 58.796875 94.847656 58.589844 94.847656 56.707031 Z M 94.890625 53.835938 "/>
<path style=" stroke:none;fill-rule:nonzero;fill:rgb(0%,0%,0%);fill-opacity:1;" d="M 98.371094 50.886719 L 99.152344 50.886719 L 99.152344 51.828125 L 98.371094 51.828125 Z M 98.414062 53.140625 L 99.152344 53.140625 L 99.152344 58.753906 L 98.414062 58.753906 Z M 98.414062 53.140625 "/>
<path style=" stroke:none;fill-rule:nonzero;fill:rgb(0%,0%,0%);fill-opacity:1;" d="M 100.996094 53.140625 L 101.730469 53.140625 L 101.730469 53.960938 C 101.730469 54.207031 101.691406 54.410156 101.691406 54.410156 L 101.730469 54.410156 C 102.019531 53.671875 102.878906 52.976562 103.78125 52.976562 C 104.804688 52.976562 105.335938 53.46875 105.5 54.371094 L 105.542969 54.371094 C 105.828125 53.589844 106.648438 52.976562 107.589844 52.976562 C 108.941406 52.976562 109.433594 53.753906 109.433594 55.148438 L 109.433594 58.714844 L 108.695312 58.714844 L 108.695312 55.351562 C 108.695312 54.453125 108.492188 53.671875 107.46875 53.671875 C 106.609375 53.671875 105.910156 54.453125 105.707031 55.273438 C 105.625 55.515625 105.625 55.761719 105.625 56.089844 L 105.625 58.753906 L 104.886719 58.753906 L 104.886719 55.394531 C 104.886719 54.535156 104.765625 53.714844 103.699219 53.714844 C 102.796875 53.714844 102.101562 54.492188 101.855469 55.351562 C 101.8125 55.597656 101.773438 55.84375 101.773438 56.089844 L 101.773438 58.753906 L 101.035156 58.753906 L 101.035156 53.140625 Z M 100.996094 53.140625 "/>
<path style=" stroke:none;fill-rule:nonzero;fill:rgb(0%,0%,0%);fill-opacity:1;" d="M 111.195312 53.140625 L 111.933594 53.140625 L 111.933594 53.960938 C 111.933594 54.207031 111.894531 54.410156 111.894531 54.410156 L 111.933594 54.410156 C 112.21875 53.671875 113.082031 52.976562 113.980469 52.976562 C 115.007812 52.976562 115.539062 53.46875 115.703125 54.371094 L 115.742188 54.371094 C 116.03125 53.589844 116.851562 52.976562 117.792969 52.976562 C 119.144531 52.976562 119.636719 53.753906 119.636719 55.148438 L 119.636719 58.714844 L 118.898438 58.714844 L 118.898438 55.351562 C 118.898438 54.453125 118.695312 53.671875 117.667969 53.671875 C 116.808594 53.671875 116.113281 54.453125 115.90625 55.273438 C 115.824219 55.515625 115.824219 55.761719 115.824219 56.089844 L 115.824219 58.753906 L 115.046875 58.753906 L 115.046875 55.394531 C 115.046875 54.535156 114.925781 53.714844 113.859375 53.714844 C 112.957031 53.714844 112.261719 54.492188 112.015625 55.351562 C 111.976562 55.597656 111.933594 55.84375 111.933594 56.089844 L 111.933594 58.753906 L 111.195312 58.753906 Z M 111.195312 53.140625 "/>
<path style=" stroke:none;fill-rule:nonzero;fill:rgb(0%,0%,0%);fill-opacity:1;" d="M 123.773438 52.976562 C 125.332031 52.976562 126.109375 54.164062 126.109375 55.558594 C 126.109375 55.679688 126.070312 55.96875 126.070312 55.96875 L 121.765625 55.96875 C 121.808594 57.402344 122.792969 58.179688 123.9375 58.179688 C 124.960938 58.179688 125.660156 57.484375 125.660156 57.484375 L 125.988281 58.058594 C 125.988281 58.058594 125.167969 58.835938 123.898438 58.835938 C 122.21875 58.835938 120.949219 57.648438 120.949219 55.886719 C 120.988281 54.082031 122.257812 52.976562 123.773438 52.976562 Z M 125.332031 55.351562 C 125.289062 54.164062 124.554688 53.632812 123.734375 53.632812 C 122.792969 53.632812 121.972656 54.207031 121.808594 55.351562 Z M 125.332031 55.351562 "/>
<path style=" stroke:none;fill-rule:nonzero;fill:rgb(0%,0%,0%);fill-opacity:1;" d="M 132.707031 52.976562 C 134.058594 52.976562 134.550781 54.042969 134.550781 54.042969 L 134.589844 54.042969 C 134.589844 54.042969 134.550781 53.835938 134.550781 53.632812 L 134.550781 50.886719 L 135.289062 50.886719 L 135.289062 58.714844 L 134.550781 58.714844 L 134.550781 58.140625 C 134.550781 57.894531 134.589844 57.730469 134.589844 57.730469 L 134.550781 57.730469 C 134.550781 57.730469 134.097656 58.835938 132.625 58.835938 C 131.109375 58.835938 130.164062 57.648438 130.164062 55.886719 C 130.164062 54.164062 131.230469 52.976562 132.707031 52.976562 Z M 132.746094 58.179688 C 133.691406 58.179688 134.550781 57.523438 134.550781 55.925781 C 134.550781 54.78125 133.976562 53.671875 132.746094 53.671875 C 131.765625 53.671875 130.945312 54.492188 130.945312 55.925781 C 130.945312 57.320312 131.683594 58.179688 132.746094 58.179688 Z M 132.746094 58.179688 "/>
<path style=" stroke:none;fill-rule:nonzero;fill:rgb(0%,0%,0%);fill-opacity:1;" d="M 139.464844 52.976562 C 141.023438 52.976562 141.800781 54.164062 141.800781 55.558594 C 141.800781 55.679688 141.761719 55.96875 141.761719 55.96875 L 137.457031 55.96875 C 137.5 57.402344 138.484375 58.179688 139.628906 58.179688 C 140.65625 58.179688 141.351562 57.484375 141.351562 57.484375 L 141.679688 58.058594 C 141.679688 58.058594 140.859375 58.835938 139.589844 58.835938 C 137.910156 58.835938 136.640625 57.648438 136.640625 55.886719 C 136.722656 54.082031 137.949219 52.976562 139.464844 52.976562 Z M 141.0625 55.351562 C 141.023438 54.164062 140.328125 53.632812 139.464844 53.632812 C 138.523438 53.632812 137.703125 54.207031 137.539062 55.351562 Z M 141.0625 55.351562 "/>
<path style=" stroke:none;fill-rule:nonzero;fill:rgb(0%,0%,0%);fill-opacity:1;" d="M 143.277344 53.140625 L 144.015625 53.140625 L 144.015625 54.125 C 144.015625 54.371094 143.972656 54.574219 143.972656 54.574219 L 144.015625 54.574219 C 144.300781 53.714844 144.914062 53.101562 145.777344 53.101562 C 145.941406 53.101562 146.0625 53.140625 146.0625 53.140625 L 146.0625 53.878906 C 146.0625 53.878906 145.941406 53.835938 145.777344 53.835938 C 144.996094 53.835938 144.382812 54.453125 144.136719 55.273438 C 144.015625 55.640625 143.972656 56.007812 143.972656 56.378906 L 143.972656 58.753906 L 143.234375 58.753906 L 143.234375 53.140625 Z M 143.277344 53.140625 "/>
<path style=" stroke:none;fill-rule:nonzero;fill:rgb(0%,0%,0%);fill-opacity:1;" d="M 150.445312 50.886719 L 151.226562 50.886719 L 151.226562 58.015625 L 154.871094 58.015625 L 154.871094 58.714844 L 150.488281 58.714844 Z M 150.445312 50.886719 "/>
<path style=" stroke:none;fill-rule:nonzero;fill:rgb(0%,0%,0%);fill-opacity:1;" d="M 158.96875 55.273438 L 159.296875 55.273438 L 159.296875 55.109375 C 159.296875 54.042969 158.722656 53.671875 157.902344 53.671875 C 156.960938 53.671875 156.304688 54.207031 156.304688 54.207031 L 155.9375 53.632812 C 155.9375 53.632812 156.675781 52.976562 157.945312 52.976562 C 159.296875 52.976562 160.035156 53.714844 160.035156 55.109375 L 160.035156 58.714844 L 159.296875 58.714844 L 159.296875 58.097656 C 159.296875 57.8125 159.335938 57.648438 159.335938 57.648438 L 159.296875 57.648438 C 159.296875 57.648438 158.847656 58.878906 157.410156 58.878906 C 156.46875 58.878906 155.484375 58.34375 155.484375 57.195312 C 155.527344 55.3125 157.984375 55.273438 158.96875 55.273438 Z M 157.574219 58.222656 C 158.640625 58.222656 159.296875 57.117188 159.296875 56.132812 L 159.296875 55.886719 L 158.96875 55.886719 C 158.109375 55.886719 156.347656 55.925781 156.347656 57.15625 C 156.304688 57.6875 156.714844 58.222656 157.574219 58.222656 Z M 157.574219 58.222656 "/>
<path style=" stroke:none;fill-rule:nonzero;fill:rgb(0%,0%,0%);fill-opacity:1;" d="M 161.796875 53.140625 L 162.535156 53.140625 L 162.535156 53.960938 C 162.535156 54.207031 162.492188 54.410156 162.492188 54.410156 L 162.535156 54.410156 C 162.738281 53.878906 163.433594 52.976562 164.785156 52.976562 C 166.179688 52.976562 166.671875 53.753906 166.671875 55.148438 L 166.671875 58.714844 L 165.933594 58.714844 L 165.933594 55.351562 C 165.933594 54.492188 165.8125 53.671875 164.703125 53.671875 C 163.761719 53.671875 162.902344 54.328125 162.65625 55.273438 C 162.574219 55.515625 162.574219 55.761719 162.574219 56.050781 L 162.574219 58.753906 L 161.835938 58.753906 L 161.835938 53.140625 Z M 161.796875 53.140625 "/>
<path style=" stroke:none;fill-rule:nonzero;fill:rgb(0%,0%,0%);fill-opacity:1;" d="M 170.5625 52.976562 C 171.914062 52.976562 172.40625 54.042969 172.40625 54.042969 L 172.449219 54.042969 C 172.449219 54.042969 172.40625 53.835938 172.40625 53.632812 L 172.40625 50.886719 L 173.1875 50.886719 L 173.1875 58.714844 L 172.449219 58.714844 L 172.449219 58.140625 C 172.449219 57.894531 172.488281 57.730469 172.488281 57.730469 L 172.449219 57.730469 C 172.449219 57.730469 171.996094 58.835938 170.523438 58.835938 C 169.007812 58.835938 168.066406 57.648438 168.066406 55.886719 C 168.023438 54.164062 169.089844 52.976562 170.5625 52.976562 Z M 170.5625 58.179688 C 171.507812 58.179688 172.367188 57.523438 172.367188 55.925781 C 172.367188 54.78125 171.792969 53.671875 170.5625 53.671875 C 169.582031 53.671875 168.761719 54.492188 168.761719 55.925781 C 168.800781 57.320312 169.539062 58.179688 170.5625 58.179688 Z M 170.5625 58.179688 "/>
<path style=" stroke:none;fill-rule:nonzero;fill:rgb(0%,0%,0%);fill-opacity:1;" d="M 174.25 53.140625 L 175.070312 53.140625 L 176.421875 57.320312 C 176.503906 57.605469 176.585938 57.933594 176.585938 57.933594 L 176.628906 57.933594 C 176.628906 57.933594 176.710938 57.605469 176.792969 57.320312 L 178.183594 53.183594 L 178.921875 53.183594 L 180.316406 57.320312 C 180.398438 57.605469 180.480469 57.933594 180.480469 57.933594 L 180.519531 57.933594 C 180.519531 57.933594 180.601562 57.605469 180.683594 57.320312 L 182.035156 53.140625 L 182.855469 53.140625 L 180.96875 58.753906 L 180.152344 58.753906 L 178.800781 54.78125 C 178.71875 54.492188 178.636719 54.164062 178.636719 54.164062 L 178.59375 54.164062 C 178.59375 54.164062 178.511719 54.492188 178.429688 54.78125 L 177.078125 58.753906 L 176.257812 58.753906 Z M 174.25 53.140625 "/>
<path style=" stroke:none;fill-rule:nonzero;fill:rgb(0%,0%,0%);fill-opacity:1;" d="M 183.878906 50.886719 L 184.65625 50.886719 L 184.65625 51.828125 L 183.878906 51.828125 Z M 183.878906 53.140625 L 184.65625 53.140625 L 184.65625 58.753906 L 183.878906 58.753906 Z M 183.878906 53.140625 "/>
<path style=" stroke:none;fill-rule:nonzero;fill:rgb(0%,0%,0%);fill-opacity:1;" d="M 186.460938 53.140625 L 187.199219 53.140625 L 187.199219 54.125 C 187.199219 54.371094 187.15625 54.574219 187.15625 54.574219 L 187.199219 54.574219 C 187.484375 53.714844 188.097656 53.101562 188.960938 53.101562 C 189.125 53.101562 189.246094 53.140625 189.246094 53.140625 L 189.246094 53.878906 C 189.246094 53.878906 189.125 53.835938 188.960938 53.835938 C 188.179688 53.835938 187.566406 54.453125 187.320312 55.273438 C 187.199219 55.640625 187.15625 56.007812 187.15625 56.378906 L 187.15625 58.753906 L 186.378906 58.753906 L 186.378906 53.140625 Z M 186.460938 53.140625 "/>
<path style=" stroke:none;fill-rule:nonzero;fill:rgb(0%,0%,0%);fill-opacity:1;" d="M 190.640625 53.835938 L 189.902344 53.835938 L 189.902344 53.183594 L 190.640625 53.183594 L 190.640625 51.585938 L 191.378906 51.585938 L 191.378906 53.183594 L 192.769531 53.183594 L 192.769531 53.835938 L 191.378906 53.835938 L 191.378906 56.625 C 191.378906 57.933594 192.195312 58.097656 192.648438 58.097656 C 192.8125 58.097656 192.894531 58.058594 192.894531 58.058594 L 192.894531 58.753906 C 192.894531 58.753906 192.769531 58.796875 192.566406 58.796875 C 191.910156 58.796875 190.597656 58.589844 190.597656 56.707031 Z M 190.640625 53.835938 "/>
<path style=" stroke:none;fill-rule:nonzero;fill:rgb(0%,0%,0%);fill-opacity:1;" d="M 194.121094 57.523438 C 194.121094 57.523438 194.738281 58.222656 195.800781 58.222656 C 196.417969 58.222656 196.910156 57.933594 196.910156 57.320312 C 196.910156 56.089844 193.875 56.378906 193.875 54.574219 C 193.875 53.589844 194.777344 53.019531 195.800781 53.019531 C 196.992188 53.019531 197.523438 53.632812 197.523438 53.632812 L 197.195312 54.207031 C 197.195312 54.207031 196.703125 53.671875 195.800781 53.671875 C 195.230469 53.671875 194.695312 53.917969 194.695312 54.535156 C 194.695312 55.761719 197.726562 55.433594 197.726562 57.277344 C 197.726562 58.179688 196.949219 58.835938 195.800781 58.835938 C 194.449219 58.835938 193.710938 58.015625 193.710938 58.015625 Z M 194.121094 57.523438 "/>
<path style=" stroke:none;fill-rule:nonzero;fill:rgb(0%,0%,0%);fill-opacity:1;" d="M 201.660156 52.976562 C 203.011719 52.976562 203.710938 53.796875 203.710938 53.796875 L 203.300781 54.371094 C 203.300781 54.371094 202.683594 53.671875 201.660156 53.671875 C 200.433594 53.671875 199.488281 54.574219 199.488281 55.925781 C 199.488281 57.238281 200.472656 58.179688 201.703125 58.179688 C 202.847656 58.179688 203.503906 57.402344 203.503906 57.402344 L 203.832031 57.976562 C 203.832031 57.976562 203.054688 58.835938 201.660156 58.835938 C 199.980469 58.835938 198.710938 57.648438 198.710938 55.886719 C 198.710938 54.207031 200.023438 52.976562 201.660156 52.976562 Z M 201.660156 52.976562 "/>
<path style=" stroke:none;fill-rule:nonzero;fill:rgb(0%,0%,0%);fill-opacity:1;" d="M 205.226562 50.886719 L 206.003906 50.886719 L 206.003906 53.917969 C 206.003906 54.164062 205.964844 54.371094 205.964844 54.371094 L 206.003906 54.371094 C 206.207031 53.835938 206.945312 52.976562 208.214844 52.976562 C 209.609375 52.976562 210.101562 53.753906 210.101562 55.148438 L 210.101562 58.714844 L 209.363281 58.714844 L 209.363281 55.351562 C 209.363281 54.492188 209.242188 53.671875 208.132812 53.671875 C 207.191406 53.671875 206.332031 54.328125 206.085938 55.273438 C 206.003906 55.476562 206.003906 55.761719 206.003906 56.007812 L 206.003906 58.714844 L 205.226562 58.714844 Z M 205.226562 50.886719 "/>
<path style=" stroke:none;fill-rule:nonzero;fill:rgb(0%,0%,0%);fill-opacity:1;" d="M 214.8125 55.273438 L 215.140625 55.273438 L 215.140625 55.109375 C 215.140625 54.042969 214.566406 53.671875 213.746094 53.671875 C 212.804688 53.671875 212.148438 54.207031 212.148438 54.207031 L 211.78125 53.632812 C 211.78125 53.632812 212.519531 52.976562 213.789062 52.976562 C 215.140625 52.976562 215.878906 53.714844 215.878906 55.109375 L 215.878906 58.714844 L 215.140625 58.714844 L 215.140625 58.097656 C 215.140625 57.8125 215.179688 57.648438 215.179688 57.648438 L 215.140625 57.648438 C 215.140625 57.648438 214.691406 58.878906 213.257812 58.878906 C 212.3125 58.878906 211.332031 58.34375 211.332031 57.195312 C 211.371094 55.3125 213.828125 55.273438 214.8125 55.273438 Z M 213.417969 58.222656 C 214.484375 58.222656 215.140625 57.117188 215.140625 56.132812 L 215.140625 55.886719 L 214.8125 55.886719 C 213.953125 55.886719 212.191406 55.925781 212.191406 57.15625 C 212.148438 57.6875 212.558594 58.222656 213.417969 58.222656 Z M 213.417969 58.222656 "/>
<path style=" stroke:none;fill-rule:nonzero;fill:rgb(0%,0%,0%);fill-opacity:1;" d="M 217.886719 53.835938 L 217.148438 53.835938 L 217.148438 53.183594 L 217.84375 53.183594 L 217.84375 52.894531 C 217.84375 51.050781 219.15625 50.804688 219.769531 50.804688 C 219.976562 50.804688 220.097656 50.847656 220.097656 50.847656 L 220.097656 51.542969 C 220.097656 51.542969 219.976562 51.503906 219.8125 51.503906 C 219.359375 51.503906 218.542969 51.664062 218.542969 52.894531 L 218.542969 53.183594 L 219.976562 53.183594 L 219.976562 53.835938 L 218.542969 53.835938 L 218.542969 58.753906 L 217.761719 58.753906 L 217.761719 53.835938 Z M 217.886719 53.835938 "/>
<path style=" stroke:none;fill-rule:nonzero;fill:rgb(0%,0%,0%);fill-opacity:1;" d="M 221.367188 53.835938 L 220.628906 53.835938 L 220.628906 53.183594 L 221.367188 53.183594 L 221.367188 51.585938 L 222.105469 51.585938 L 222.105469 53.183594 L 223.5 53.183594 L 223.5 53.835938 L 222.105469 53.835938 L 222.105469 56.625 C 222.105469 57.933594 222.925781 58.097656 223.375 58.097656 C 223.539062 58.097656 223.621094 58.058594 223.621094 58.058594 L 223.621094 58.753906 C 223.621094 58.753906 223.5 58.796875 223.292969 58.796875 C 222.636719 58.796875 221.328125 58.589844 221.328125 56.707031 L 221.328125 53.835938 Z M 221.367188 53.835938 "/>
<path style=" stroke:none;fill-rule:nonzero;fill:rgb(0%,0%,0%);fill-opacity:1;" d="M 224.933594 57.851562 L 225.792969 57.851562 L 225.792969 58.753906 L 224.933594 58.753906 Z M 224.933594 57.851562 "/>
<path style=" stroke:none;fill-rule:nonzero;fill:rgb(0%,0%,0%);fill-opacity:1;" d="M 230.75 57.277344 C 230.75 57.277344 231.570312 58.140625 232.800781 58.140625 C 233.660156 58.140625 234.355469 57.605469 234.355469 56.789062 C 234.355469 54.820312 230.464844 55.3125 230.464844 52.894531 C 230.464844 51.789062 231.445312 50.804688 232.921875 50.804688 C 234.273438 50.804688 235.011719 51.542969 235.011719 51.542969 L 234.644531 52.199219 C 234.644531 52.199219 233.945312 51.542969 232.921875 51.542969 C 231.9375 51.542969 231.285156 52.199219 231.285156 52.894531 C 231.285156 54.738281 235.175781 54.207031 235.175781 56.789062 C 235.175781 57.976562 234.273438 58.917969 232.800781 58.917969 C 231.203125 58.917969 230.300781 57.933594 230.300781 57.933594 Z M 230.75 57.277344 "/>
<path style=" stroke:none;fill-rule:nonzero;fill:rgb(0%,0%,0%);fill-opacity:1;" d="M 239.027344 52.976562 C 240.582031 52.976562 241.363281 54.164062 241.363281 55.558594 C 241.363281 55.679688 241.320312 55.96875 241.320312 55.96875 L 237.019531 55.96875 C 237.058594 57.402344 238.042969 58.179688 239.191406 58.179688 C 240.214844 58.179688 240.910156 57.484375 240.910156 57.484375 L 241.238281 58.058594 C 241.238281 58.058594 240.421875 58.835938 239.148438 58.835938 C 237.46875 58.835938 236.199219 57.648438 236.199219 55.886719 C 236.28125 54.082031 237.511719 52.976562 239.027344 52.976562 Z M 240.582031 55.351562 C 240.542969 54.164062 239.847656 53.632812 238.984375 53.632812 C 238.042969 53.632812 237.222656 54.207031 237.058594 55.351562 Z M 240.582031 55.351562 "/>
<path style=" stroke:none;fill-rule:nonzero;fill:rgb(0%,0%,0%);fill-opacity:1;" d="M 242.796875 50.886719 L 243.574219 50.886719 L 243.574219 51.828125 L 242.796875 51.828125 Z M 242.796875 53.140625 L 243.574219 53.140625 L 243.574219 58.753906 L 242.796875 58.753906 Z M 242.796875 53.140625 "/>
<path style=" stroke:none;fill-rule:nonzero;fill:rgb(0%,0%,0%);fill-opacity:1;" d="M 245.625 53.835938 L 244.886719 53.835938 L 244.886719 53.183594 L 245.625 53.183594 L 245.625 51.585938 L 246.359375 51.585938 L 246.359375 53.183594 L 247.753906 53.183594 L 247.753906 53.835938 L 246.359375 53.835938 L 246.359375 56.625 C 246.359375 57.933594 247.179688 58.097656 247.632812 58.097656 C 247.792969 58.097656 247.875 58.058594 247.875 58.058594 L 247.875 58.753906 C 247.875 58.753906 247.753906 58.796875 247.550781 58.796875 C 246.894531 58.796875 245.582031 58.589844 245.582031 56.707031 L 245.582031 53.835938 Z M 245.625 53.835938 "/>
<path style=" stroke:none;fill-rule:nonzero;fill:rgb(0%,0%,0%);fill-opacity:1;" d="M 255.785156 50.765625 C 257.585938 50.765625 258.570312 51.664062 258.570312 51.664062 L 258.160156 52.238281 C 258.160156 52.238281 257.257812 51.460938 255.824219 51.460938 C 253.941406 51.460938 252.628906 52.9375 252.628906 54.78125 C 252.628906 56.707031 253.941406 58.140625 255.742188 58.140625 C 257.257812 58.140625 258.203125 56.992188 258.203125 56.992188 L 258.203125 55.679688 L 256.847656 55.679688 L 256.847656 54.984375 L 258.9375 54.984375 L 258.9375 58.714844 L 258.242188 58.714844 L 258.242188 58.140625 C 258.242188 57.976562 258.242188 57.8125 258.242188 57.8125 L 258.203125 57.8125 C 258.203125 57.8125 257.300781 58.878906 255.660156 58.878906 C 253.53125 58.878906 251.808594 57.15625 251.808594 54.820312 C 251.808594 52.566406 253.53125 50.765625 255.785156 50.765625 Z M 255.785156 50.765625 "/>
<path style=" stroke:none;fill-rule:nonzero;fill:rgb(0%,0%,0%);fill-opacity:1;" d="M 262.953125 52.976562 C 264.511719 52.976562 265.289062 54.164062 265.289062 55.558594 C 265.289062 55.679688 265.25 55.96875 265.25 55.96875 L 260.945312 55.96875 C 260.988281 57.402344 261.972656 58.179688 263.117188 58.179688 C 264.140625 58.179688 264.839844 57.484375 264.839844 57.484375 L 265.167969 58.058594 C 265.167969 58.058594 264.347656 58.835938 263.078125 58.835938 C 261.398438 58.835938 260.128906 57.648438 260.128906 55.886719 C 260.167969 54.082031 261.4375 52.976562 262.953125 52.976562 Z M 264.511719 55.351562 C 264.46875 54.164062 263.773438 53.632812 262.914062 53.632812 C 261.972656 53.632812 261.152344 54.207031 260.988281 55.351562 Z M 264.511719 55.351562 "/>
<path style=" stroke:none;fill-rule:nonzero;fill:rgb(0%,0%,0%);fill-opacity:1;" d="M 266.722656 53.140625 L 267.460938 53.140625 L 267.460938 53.960938 C 267.460938 54.207031 267.421875 54.410156 267.421875 54.410156 L 267.460938 54.410156 C 267.664062 53.878906 268.363281 52.976562 269.714844 52.976562 C 271.109375 52.976562 271.597656 53.753906 271.597656 55.148438 L 271.597656 58.714844 L 270.820312 58.714844 L 270.820312 55.351562 C 270.820312 54.492188 270.699219 53.671875 269.589844 53.671875 C 268.648438 53.671875 267.789062 54.328125 267.542969 55.273438 C 267.460938 55.515625 267.460938 55.761719 267.460938 56.050781 L 267.460938 58.753906 L 266.722656 58.753906 Z M 266.722656 53.140625 "/>
<path style=" stroke:none;fill-rule:nonzero;fill:rgb(0%,0%,0%);fill-opacity:1;" d="M 275.695312 52.976562 C 277.253906 52.976562 278.03125 54.164062 278.03125 55.558594 C 278.03125 55.679688 277.992188 55.96875 277.992188 55.96875 L 273.6875 55.96875 C 273.730469 57.402344 274.714844 58.179688 275.859375 58.179688 C 276.882812 58.179688 277.582031 57.484375 277.582031 57.484375 L 277.910156 58.058594 C 277.910156 58.058594 277.089844 58.835938 275.820312 58.835938 C 274.140625 58.835938 272.871094 57.648438 272.871094 55.886719 C 272.953125 54.082031 274.179688 52.976562 275.695312 52.976562 Z M 277.292969 55.351562 C 277.253906 54.164062 276.558594 53.632812 275.695312 53.632812 C 274.753906 53.632812 273.933594 54.207031 273.769531 55.351562 Z M 277.292969 55.351562 "/>
<path style=" stroke:none;fill-rule:nonzero;fill:rgb(0%,0%,0%);fill-opacity:1;" d="M 279.507812 53.140625 L 280.242188 53.140625 L 280.242188 54.125 C 280.242188 54.371094 280.203125 54.574219 280.203125 54.574219 L 280.242188 54.574219 C 280.53125 53.714844 281.144531 53.101562 282.003906 53.101562 C 282.167969 53.101562 282.292969 53.140625 282.292969 53.140625 L 282.292969 53.878906 C 282.292969 53.878906 282.167969 53.835938 282.003906 53.835938 C 281.226562 53.835938 280.613281 54.453125 280.367188 55.273438 C 280.242188 55.640625 280.203125 56.007812 280.203125 56.378906 L 280.203125 58.753906 L 279.425781 58.753906 L 279.425781 53.140625 Z M 279.507812 53.140625 "/>
<path style=" stroke:none;fill-rule:nonzero;fill:rgb(0%,0%,0%);fill-opacity:1;" d="M 286.429688 55.273438 L 286.757812 55.273438 L 286.757812 55.109375 C 286.757812 54.042969 286.183594 53.671875 285.367188 53.671875 C 284.421875 53.671875 283.769531 54.207031 283.769531 54.207031 L 283.398438 53.632812 C 283.398438 53.632812 284.136719 52.976562 285.40625 52.976562 C 286.757812 52.976562 287.496094 53.714844 287.496094 55.109375 L 287.496094 58.714844 L 286.800781 58.714844 L 286.800781 58.097656 C 286.800781 57.8125 286.839844 57.648438 286.839844 57.648438 L 286.800781 57.648438 C 286.800781 57.648438 286.347656 58.878906 284.914062 58.878906 C 283.972656 58.878906 282.988281 58.34375 282.988281 57.195312 C 283.03125 55.3125 285.488281 55.273438 286.429688 55.273438 Z M 285.039062 58.222656 C 286.101562 58.222656 286.757812 57.117188 286.757812 56.132812 L 286.757812 55.886719 L 286.429688 55.886719 C 285.570312 55.886719 283.808594 55.925781 283.808594 57.15625 C 283.808594 57.6875 284.21875 58.222656 285.039062 58.222656 Z M 285.039062 58.222656 "/>
<path style=" stroke:none;fill-rule:nonzero;fill:rgb(0%,0%,0%);fill-opacity:1;" d="M 289.460938 53.835938 L 288.726562 53.835938 L 288.726562 53.183594 L 289.460938 53.183594 L 289.460938 51.585938 L 290.199219 51.585938 L 290.199219 53.183594 L 291.59375 53.183594 L 291.59375 53.835938 L 290.199219 53.835938 L 290.199219 56.625 C 290.199219 57.933594 291.019531 58.097656 291.46875 58.097656 C 291.632812 58.097656 291.714844 58.058594 291.714844 58.058594 L 291.714844 58.753906 C 291.714844 58.753906 291.59375 58.796875 291.386719 58.796875 C 290.734375 58.796875 289.421875 58.589844 289.421875 56.707031 L 289.421875 53.835938 Z M 289.460938 53.835938 "/>
<path style=" stroke:none;fill-rule:nonzero;fill:rgb(0%,0%,0%);fill-opacity:1;" d="M 292.945312 50.886719 L 293.722656 50.886719 L 293.722656 51.828125 L 292.945312 51.828125 Z M 292.984375 53.140625 L 293.765625 53.140625 L 293.765625 58.753906 L 292.984375 58.753906 Z M 292.984375 53.140625 "/>
<path style=" stroke:none;fill-rule:nonzero;fill:rgb(0%,0%,0%);fill-opacity:1;" d="M 298.109375 52.976562 C 299.746094 52.976562 301.058594 54.207031 301.058594 55.886719 C 301.058594 57.566406 299.746094 58.835938 298.109375 58.835938 C 296.46875 58.835938 295.15625 57.566406 295.15625 55.886719 C 295.15625 54.246094 296.46875 52.976562 298.109375 52.976562 Z M 298.109375 58.179688 C 299.296875 58.179688 300.277344 57.195312 300.277344 55.886719 C 300.277344 54.617188 299.296875 53.671875 298.109375 53.671875 C 296.917969 53.671875 295.9375 54.617188 295.9375 55.886719 C 295.9375 57.195312 296.917969 58.179688 298.109375 58.179688 Z M 298.109375 58.179688 "/>
<path style=" stroke:none;fill-rule:nonzero;fill:rgb(0%,0%,0%);fill-opacity:1;" d="M 302.492188 53.140625 L 303.230469 53.140625 L 303.230469 53.960938 C 303.230469 54.207031 303.1875 54.410156 303.1875 54.410156 L 303.230469 54.410156 C 303.433594 53.878906 304.128906 52.976562 305.484375 52.976562 C 306.875 52.976562 307.367188 53.753906 307.367188 55.148438 L 307.367188 58.714844 L 306.628906 58.714844 L 306.628906 55.351562 C 306.628906 54.492188 306.507812 53.671875 305.402344 53.671875 C 304.457031 53.671875 303.597656 54.328125 303.351562 55.273438 C 303.269531 55.515625 303.269531 55.761719 303.269531 56.050781 L 303.269531 58.753906 L 302.492188 58.753906 Z M 302.492188 53.140625 "/>
<path style=" stroke:none;fill-rule:nonzero;fill:rgb(0%,0%,0%);fill-opacity:1;" d="M 311.464844 52.976562 C 313.019531 52.976562 313.800781 54.164062 313.800781 55.558594 C 313.800781 55.679688 313.757812 55.96875 313.757812 55.96875 L 309.457031 55.96875 C 309.496094 57.402344 310.480469 58.179688 311.628906 58.179688 C 312.652344 58.179688 313.347656 57.484375 313.347656 57.484375 L 313.675781 58.058594 C 313.675781 58.058594 312.855469 58.835938 311.585938 58.835938 C 309.90625 58.835938 308.636719 57.648438 308.636719 55.886719 C 308.71875 54.082031 309.949219 52.976562 311.464844 52.976562 Z M 313.0625 55.351562 C 313.019531 54.164062 312.324219 53.632812 311.464844 53.632812 C 310.523438 53.632812 309.703125 54.207031 309.539062 55.351562 Z M 313.0625 55.351562 "/>
<path style=" stroke:none;fill-rule:nonzero;fill:rgb(0%,0%,0%);fill-opacity:1;" d="M 315.273438 53.140625 L 316.011719 53.140625 L 316.011719 53.960938 C 316.011719 54.207031 315.972656 54.410156 315.972656 54.410156 L 316.011719 54.410156 C 316.21875 53.878906 316.914062 52.976562 318.265625 52.976562 C 319.660156 52.976562 320.148438 53.753906 320.148438 55.148438 L 320.148438 58.714844 L 319.414062 58.714844 L 319.414062 55.351562 C 319.414062 54.492188 319.289062 53.671875 318.183594 53.671875 C 317.242188 53.671875 316.378906 54.328125 316.136719 55.273438 C 316.054688 55.515625 316.054688 55.761719 316.054688 56.050781 L 316.054688 58.753906 L 315.273438 58.753906 Z M 315.273438 53.140625 "/>
<path style=" stroke:none;fill-rule:nonzero;fill:rgb(0%,0%,0%);fill-opacity:1;" d="M 321.910156 57.851562 L 322.773438 57.851562 L 322.773438 58.753906 L 321.910156 58.753906 Z M 321.910156 57.851562 "/>
<path style=" stroke:none;fill-rule:nonzero;fill:rgb(0%,47.058824%,23.137255%);fill-opacity:1;" d="M 68.914062 15.734375 L 75.960938 15.734375 L 75.960938 38.515625 L 87.761719 38.515625 L 87.761719 44.578125 L 68.914062 44.578125 Z M 68.914062 15.734375 "/>
<path style=" stroke:none;fill-rule:nonzero;fill:rgb(0%,47.058824%,23.137255%);fill-opacity:1;" d="M 107.222656 38.515625 L 98.207031 38.515625 L 96.488281 44.578125 L 89.234375 44.578125 L 99.027344 15.734375 L 106.445312 15.734375 L 116.234375 44.578125 L 108.984375 44.578125 Z M 102.675781 22.289062 C 102.675781 22.289062 102.019531 25.445312 101.484375 27.246094 L 99.847656 32.859375 L 105.542969 32.859375 L 103.945312 27.246094 C 103.410156 25.445312 102.757812 22.289062 102.757812 22.289062 Z M 102.675781 22.289062 "/>
<path style=" stroke:none;fill-rule:nonzero;fill:rgb(0%,47.058824%,23.137255%);fill-opacity:1;" d="M 118.203125 15.734375 L 125.332031 15.734375 L 133.320312 29.214844 C 134.46875 31.097656 135.738281 34.128906 135.738281 34.128906 L 135.820312 34.128906 C 135.820312 34.128906 135.492188 31.015625 135.492188 29.214844 L 135.492188 15.734375 L 142.582031 15.734375 L 142.582031 44.578125 L 135.492188 44.578125 L 127.421875 31.140625 C 126.273438 29.253906 125.003906 26.222656 125.003906 26.222656 L 124.921875 26.222656 C 124.921875 26.222656 125.25 29.335938 125.25 31.140625 L 125.25 44.578125 L 118.203125 44.578125 Z M 118.203125 15.734375 "/>
<path style=" stroke:none;fill-rule:nonzero;fill:rgb(0%,47.058824%,23.137255%);fill-opacity:1;" d="M 146.144531 15.734375 L 156.386719 15.734375 C 165.484375 15.734375 171.261719 21.019531 171.261719 30.113281 C 171.261719 39.210938 165.441406 44.617188 156.386719 44.617188 L 146.144531 44.617188 Z M 156.140625 38.515625 C 161.015625 38.515625 164.007812 35.605469 164.007812 30.074219 C 164.007812 24.582031 160.894531 21.757812 156.140625 21.757812 L 153.234375 21.757812 L 153.234375 38.515625 Z M 156.140625 38.515625 "/>
<path style=" stroke:none;fill-rule:nonzero;fill:rgb(0%,47.058824%,23.137255%);fill-opacity:1;" d="M 192.359375 42.160156 C 189.859375 44.210938 187.320312 45.191406 184.085938 45.191406 C 178.960938 45.191406 174.496094 41.75 174.496094 36.382812 C 174.496094 32.285156 177.570312 29.621094 181.050781 27.984375 C 179.660156 26.425781 178.511719 24.625 178.511719 22.453125 C 178.511719 17.988281 182.570312 15.160156 186.746094 15.160156 C 191.050781 15.160156 194.902344 18.027344 194.902344 22.617188 C 194.902344 25.976562 192.851562 28.3125 189.984375 29.746094 L 192.976562 33.351562 C 193.546875 32.492188 193.917969 31.546875 194.039062 30.523438 L 199.941406 30.523438 C 199.695312 33.105469 198.546875 35.644531 196.746094 37.53125 L 202.808594 44.535156 L 194.449219 44.535156 Z M 184.453125 32.492188 C 183.058594 33.148438 181.09375 34.539062 181.09375 36.300781 C 181.09375 38.308594 183.019531 39.621094 184.902344 39.621094 C 186.214844 39.621094 187.648438 38.554688 188.753906 37.570312 Z M 189.289062 22.207031 C 189.289062 20.855469 188.261719 19.996094 186.871094 19.996094 C 185.601562 19.996094 184.617188 20.9375 184.617188 22.125 C 184.617188 23.683594 185.765625 24.625 186.625 25.773438 C 188.015625 24.910156 189.289062 23.929688 189.289062 22.207031 Z M 189.289062 22.207031 "/>
<path style=" stroke:none;fill-rule:nonzero;fill:rgb(0%,47.058824%,23.137255%);fill-opacity:1;" d="M 206.578125 15.734375 L 224.234375 15.734375 L 224.234375 21.796875 L 213.625 21.796875 L 213.625 27.859375 L 222.433594 27.859375 L 222.433594 33.925781 L 213.625 33.925781 L 213.625 44.617188 L 206.578125 44.617188 Z M 206.578125 15.734375 "/>
<path style=" stroke:none;fill-rule:nonzero;fill:rgb(0%,47.058824%,23.137255%);fill-opacity:1;" d="M 240.664062 15.242188 C 249.394531 15.242188 255.742188 21.714844 255.742188 29.992188 C 255.742188 38.472656 249.351562 45.070312 240.664062 45.070312 C 231.9375 45.070312 225.589844 38.433594 225.589844 29.992188 C 225.546875 21.675781 231.9375 15.242188 240.664062 15.242188 Z M 240.664062 38.597656 C 244.96875 38.597656 248.449219 34.867188 248.449219 29.949219 C 248.449219 25.238281 244.96875 21.675781 240.664062 21.675781 C 236.363281 21.675781 232.882812 25.238281 232.882812 29.949219 C 232.839844 34.867188 236.324219 38.597656 240.664062 38.597656 Z M 240.664062 38.597656 "/>
<path style=" stroke:none;fill-rule:nonzero;fill:rgb(0%,47.058824%,23.137255%);fill-opacity:1;" d="M 258.160156 15.734375 L 268.199219 15.734375 C 271.148438 15.734375 272.542969 15.9375 273.8125 16.429688 C 277.089844 17.699219 279.136719 20.609375 279.136719 24.828125 C 279.136719 27.902344 277.703125 31.261719 274.835938 32.695312 L 274.835938 32.777344 C 274.835938 32.777344 275.246094 33.308594 275.941406 34.5 L 281.554688 44.578125 L 273.6875 44.578125 L 268.527344 34.828125 L 265.207031 34.828125 L 265.207031 44.535156 L 258.160156 44.535156 Z M 268.28125 28.804688 C 270.535156 28.804688 271.96875 27.535156 271.96875 25.238281 C 271.96875 23.066406 271.148438 21.757812 267.625 21.757812 L 265.25 21.757812 L 265.25 28.761719 Z M 268.28125 28.804688 "/>
<path style=" stroke:none;fill-rule:nonzero;fill:rgb(0%,47.058824%,23.137255%);fill-opacity:1;" d="M 286.183594 35.5625 C 286.183594 35.5625 289.460938 38.554688 293.066406 38.554688 C 294.503906 38.554688 296.101562 37.980469 296.101562 36.261719 C 296.101562 32.820312 283.113281 32.941406 283.113281 24.089844 C 283.113281 18.765625 287.578125 15.242188 293.3125 15.242188 C 299.542969 15.242188 302.613281 18.519531 302.613281 18.519531 L 299.625 24.296875 C 299.625 24.296875 296.714844 21.757812 293.230469 21.757812 C 291.796875 21.757812 290.160156 22.410156 290.160156 24.007812 C 290.160156 27.65625 303.148438 27 303.148438 36.136719 C 303.148438 40.929688 299.460938 45.109375 292.984375 45.109375 C 286.226562 45.109375 282.457031 41.011719 282.457031 41.011719 Z M 286.183594 35.5625 "/>
<path style=" stroke:none;fill-rule:nonzero;fill:rgb(0%,47.058824%,23.137255%);fill-opacity:1;" d="M 313.183594 21.757812 L 304.417969 21.757812 L 304.417969 15.734375 L 329 15.734375 L 329 21.796875 L 320.230469 21.796875 L 320.230469 44.617188 L 313.183594 44.617188 Z M 313.183594 21.757812 "/>
<path style=" stroke:none;fill-rule:nonzero;fill:rgb(100%,100%,100%);fill-opacity:1;" d="M 10.285156 11.183594 L 10.285156 47.363281 L 33.269531 47.363281 L 33.269531 39.785156 L 19.132812 39.785156 L 19.132812 11.183594 Z M 10.285156 11.183594 "/>
<path style=" stroke:none;fill-rule:nonzero;fill:rgb(100%,100%,100%);fill-opacity:1;" d="M 25.402344 11.183594 L 25.402344 18.804688 L 39.539062 18.804688 L 39.539062 47.363281 L 48.347656 47.363281 L 48.347656 11.183594 Z M 25.402344 11.183594 "/>
<path style=" stroke:none;fill-rule:nonzero;fill:rgb(100%,100%,100%);fill-opacity:1;" d="M 25.402344 25.363281 L 33.269531 25.363281 L 33.269531 33.226562 L 25.402344 33.226562 Z M 25.402344 25.363281 "/>
</g>
</svg>
