<svg xmlns="http://www.w3.org/2000/svg" width="1244.444" height="1372.222" viewBox="0 0 113.4 141.7" style="enable-background:new 0 0 113.4 141.7" xml:space="preserve"><path fill="#E52421" d="M11.9 19.7V76c0 23.9 19.4 43.3 43.4 43.3S98.8 99.9 98.8 76V19.7H11.9z"/><path fill="#1E1E1C" stroke="#1E1E1C" stroke-width=".1" stroke-miterlimit="10" d="M101.1 128.4c-.4-4.7-2.4-9.4-4.2-13.6-1.1-2.5-2.1-4.9-2.6-6.9-.2-.6-.5-1.5-1.7-1.8-2.5-.8-3.5-1.6-3.6-1.9l-2.4-11.1c-.1-.7-.3-1.4-.5-2.1.3-.1.5-.1.7-.3l.1-.1c.1-.1.3-.2.4-.4.3-.4.5-.8.6-1.2 1.2-3 .7-7.3-.2-10.1-.1-.3-.3-.5-.5-.7l-.8-.7c-.4-.4-1-.5-1.6-.4-.5.2-1 .6-1.1 1.1-.5 1.8-1.4 3.4-2.4 4.1-.2.2-.3.3-.4.5l-2.1-2.1c-1.1-1.1-2.3-2.2-3.3-3.3-1.9-2.2-5.3-8.3-7.9-15.5-2.7-7.5-3.7-13.5-2.7-16.6 4.8-6.6 2.9-12.6 1.8-14.9l-.1-.1v-.1c0-.1 4.8-15.2 6.2-19.1.4-1 .9-1.9 1.4-2.8.8-1.4 1.5-2.6 1.2-3.8-.1-.4-.4-1-1.2-1.5-.5-.3-1-.4-1.7-.4-2 0-5.1 1.2-7.5 3.4-.2-.5-.7-1-1.3-1.2-.3-.1-.6-.2-.9-.2-2.4 0-6.9 3.4-7.8 8-.7 3.3.4 6.9 1.1 9.1.2.5.3 1.1.4 1.3 0 .1 0 .7-.5 3.3-.1.5 0 .8.1 1.2-.7.3-1.4.8-2 1.3l-.5.2c-1.6.6-3.3 1.4-3.8 4.1-1.2 1.2-3.7 4-4.2 6.3-.2.9 0 1.5.1 1.8.9 2.4 2.7 3.6 4.4 4.3-.6.4-1.2.8-1.8 1.3l-.9-.4c-2.6-2.1-4.5-4.5-5.8-6.1-.2-.3-.4-.5-.6-.8-.7-.9-2.2-2-4.8-2-.9 0-1.8.1-2.2.2-2.6-.7-4.3-1.1-5.7-1.1-2.8 0-4.7 2-4.7 3.9 0 1.1.5 2.3 1.4 3.2.9 1 2.8 2.1 6.1 2.1 1.2 0 2.6-.2 4.2-.5.8.4 3.2 1.9 5.7 7.5l1 1.9c-.5 1.6-.9 3.3-.8 5.3v.1L39.5 65c-.7.5-2 1.1-3.4 1.7-2.1.9-4.4 1.9-6.5 3.5-.4.3-.7.6-.9.8l-2.5 3.6c-.9.7-4.8 4.2-5.8 7.2-.8 2.3-.4 3.6.1 4.3.6.8 1.9 1.7 4.6.9 3-.8 4.3-3.1 5.5-5.1.3-.6.7-1.2 1.1-1.7l3.3-4.6c0 .1-.1.1-.1.1 4.5-.6 8.9-1.9 12.1-3.1.1.5.3 1.2.8 2.3 1.4 3.8 3.9 7.7 6.6 11.2-.4.5-.5 1.1-.5 1.4v.2c-4.1 20.5-1.5 24.4 3.1 29.1l.3.3c.2.3.5.5.8.8 1 1 3.2 3.2 3.8 4.2-1.1 1.7-7.5 6.2-11.9 8.4-5 .5-6.4 1.4-7.2 4.6-.2.6 0 1.3.4 1.8 1.1 1.4 4.1 1.7 6.4 1.7 2.7 0 6.1-.5 7.6-1.7.6-.5 14.1-12.3 14.4-15.2.1-1.5-1.1-3.4-3.7-7.2-.7-1-1.4-2.1-1.9-2.8 1-.6 2.9-1.5 4.8-2.2.4-.2.7-.4.9-.6 4.5 4.7 10.1 4.7 12.4 4.7 1.3 0 2.5-.1 3.6-.2h1c.9 2.1 1 5.3 1.1 8.6.1 3 .2 6.2.9 9s2.8 5.9 5.7 5.9c.3 0 .5 0 .8-.1 3.6-.5 4.2-5.5 3.9-8.4z"/><path fill="#FFF" d="M62.9 6.5c-1.6 0-5.4 2.9-6.2 6.7-.6 2.9.4 6.2 1 8.2.3.8.4 1.4.4 1.8 0 .5-.2 1.7-.6 3.6v.3h.1c.6-.3 1.1-.5 1.7-.7.4-.1.5-.4.6-.6.5-1.1.9-2 1.1-2.7.2-.4.3-.7.2-1.7-.3-2.9-.8-7.8 1.1-12.2.3-.7.7-1.4 1.2-2.1 0-.2 0-.4-.3-.5 0-.1-.1-.1-.3-.1M35.3 44c.1 0 .3 0 .4.1.9.3 3.9 1.9 6.8 8.5v.1c1.1-1.7 2.3-3.2 3.8-4.5l.1-.1c-2.8-2.2-4.9-4.8-6.2-6.5-.2-.3-.4-.5-.6-.7-.7-.9-1.9-1.4-3.5-1.4-.8 0-1.5.1-1.9.2-.2 0-.4.1-.7 0-2.5-.7-4.1-1.1-5.3-1.1-1.9 0-3 1.3-3 2.3 0 .5.2 1.3 1 2.1.7.7 2.2 1.6 5 1.6 1.2 0 2.5-.2 4-.5-.1-.1 0-.1.1-.1M85.3 78.7c-.5 1.7-1.4 3.8-2.9 5-.3.3-.2.4-.1.5 1.4 1.6 2.6 3.3 3.4 5 0 .1.1.1.1.1l.1-.1c.2-.3.4-.6.5-.9 1-2.4.6-6.2-.2-9l-.9-.6zM55.6 87.9c-.1 0-.2.2-.2.3-4.1 20.7-1.1 23.7 2.6 27.6l.3.3.8.8c2.4 2.4 4.3 4.4 4.4 5.3.1 1.9-8.7 7.8-13.2 10h-.1c-5.1.5-5.5 1.2-6 3.3 0 .1 0 .3.1.4.5.6 2.5 1.1 5.1 1.1 2.9 0 5.6-.6 6.5-1.3 3.9-3.4 13.7-12.5 13.8-14.1.1-1-1.9-3.8-3.4-6-1.1-1.6-2.1-3-2.4-3.7-.1-.2-.3-.7.3-1.1.9-.6 3.2-1.8 5.8-2.7.2-.1.3-.1.3-.2l-.1-.2c-1.7-2.2-3.1-5-4-8.2-.1-.3-.3-.9-.8-1.4-2-1.8-5.8-5.6-9.6-10.1 0 0-.1-.1-.2-.1"/><path fill="#FFF" d="M99.5 128.6c-.4-4.5-2.4-9.1-4.1-13.1-1.1-2.6-2.1-5.1-2.7-7.2-.1-.4-.2-.5-.6-.6-1.6-.5-4.4-1.6-4.8-3.1L85 93.3c-.9-5.2-4.2-8.3-7.3-11.3-1.2-1.1-2.4-2.2-3.4-3.4-4.6-5.3-13.8-26-10.9-33.8v-.1c4.5-6 2.7-11.3 1.8-13.3l-.1-.1c-.2-.4-.3-.6-.1-1.3.2-.6 4.9-15.3 6.3-19.2.4-1.1 1-2.2 1.6-3.1.6-1.1 1.2-2 1.1-2.6-.1-.2-.2-.3-.4-.5-.2-.1-.5-.2-.9-.2-2.3 0-6.9 2.3-8.6 5.8-1.4 3-1 6.8-.7 9.1.1 1 .2 1.7.1 2-.2.9-1.6 4-2.5 5.8-.3.5-.4.8-1.2.9-1 .2-3 .9-4.8 2.3l-.4.2-.4.2c-1.5.6-2.6 1.1-2.9 3 0 .1 0 .3-.3.5-.6.6-3.5 3.6-4 5.7-.1.4 0 .6.1.7 1.3 3.3 5 4 6.1 4.1.2 0 .3.1.4.2.1.1.1.3 0 .4-.1.2-.3.2-.4.3-1.1.5-10.7 4.9-10.4 14.5 0 .4-.1.7-.1.7L41 65.6s-.2.4-.4.6c-.9.7-2.2 1.3-3.8 2-2 .9-4.2 1.9-6.2 3.4-.4.3-.6.6-.6.6l-2.5 3.6v.1s-4.5 3.8-5.4 6.6c-.4 1.3-.5 2.3-.1 2.8.4.6 1.4.7 2.8.3 2.3-.7 3.4-2.4 4.5-4.3.4-.6.7-1.3 1.2-1.9l3.2-4.4s.3-.6 1.2-.7c7.9-1 15.3-4.5 16.4-5.1 1.2-.7 2.8-2.7 3.7-3.9 0 0 .9.1.9.2-.1 2.2-2.1 3.9-3.2 4.6-.8.6-2.2 1.2-3.8 1.9-.4.2.7 2.6.7 2.6 3.5 9.6 14.5 19.9 17.8 22.8.5.5.9 1 1 1.6 3.1 11.8 10.5 13.2 15.9 13.2 1.3 0 2.5-.1 3.5-.2.4 0 .9-.1 1.2-.1h.1c.7 0 .9.4.9.5 1.3 2.4 1.4 5.9 1.5 9.7.1 2.9.2 6 .8 8.6.5 1.9 2 4.7 4.1 4.7h.5c2.5-.5 2.8-4.7 2.6-6.8"/><path fill="#1E1E1C" d="M60.6 34c-.6.9-1.4 1.4-2.6 1.6h-.3c-.3 0-.5-.1-.6-.3-.2-.3-.1-.7-.1-.9.6-2.3 1.9-3.1 3.4-1.9.4.4.6.9.2 1.5"/></svg>