<?xml version="1.0" encoding="utf-8"?>
<!-- Generator: Adobe Illustrator 27.4.1, SVG Export Plug-In . SVG Version: 6.00 Build 0)  -->
<svg version="1.1" id="Ebene_1" xmlns="http://www.w3.org/2000/svg" xmlns:xlink="http://www.w3.org/1999/xlink" x="0px" y="0px"
	 viewBox="0 0 136.9 107.1" style="enable-background:new 0 0 136.9 107.1;" xml:space="preserve">
<style type="text/css">
	.st0{fill:#009933;}
	.st1{fill:#FFFFFF;}
	.st2{clip-path:url(#SVGID_00000114768020460638804200000016717788799595363238_);fill:#FFFFFF;}
	.st3{clip-path:url(#SVGID_00000016789629376811695050000016809204019281136281_);fill:#FFFFFF;}
	.st4{fill:#41342B;}
</style>
<rect x="27.8" class="st0" width="73.5" height="73.5"/>
<rect x="64.4" y="19.3" class="st1" width="3.2" height="24.8"/>
<polygon class="st1" points="77.3,44.2 70.8,27 74.4,27 78.9,39.5 82.9,27 86.5,27 80.6,44.2 "/>
<g>
	<g>
		<defs>
			<rect id="SVGID_1_" x="27.8" width="73.5" height="73.5"/>
		</defs>
		<clipPath id="SVGID_00000075853024869612736820000010458375721258831241_">
			<use xlink:href="#SVGID_1_"  style="overflow:visible;"/>
		</clipPath>
		<path style="clip-path:url(#SVGID_00000075853024869612736820000010458375721258831241_);fill:#FFFFFF;" d="M90.1,44.5
			c0.1-0.1,0.2-0.2,0.3-0.3c0.9-1,2-0.5,1.1,0.7c-2.3,2.9-14,13.1-32.1,10.8C47.2,54.1,39.4,46.8,38,45c-0.8-1-0.6-2.2,1-0.8
			c0.1,0.1,0.2,0.1,0.2,0.2c2.9,2.6,9,8.1,26.9,8C78.7,52.3,85.9,48.5,90.1,44.5"/>
	</g>
	<g>
		<defs>
			<rect id="SVGID_00000015333043101995791780000008924495067389888939_" x="27.8" width="73.5" height="73.5"/>
		</defs>
		<clipPath id="SVGID_00000138562792422407426470000017662651450535414419_">
			<use xlink:href="#SVGID_00000015333043101995791780000008924495067389888939_"  style="overflow:visible;"/>
		</clipPath>
		<path style="clip-path:url(#SVGID_00000138562792422407426470000017662651450535414419_);fill:#FFFFFF;" d="M48.4,35.6
			c0-3.6,0.8-6.4,3.3-6.4c2.9,0,3.7,3.4,3.7,6.4c0,2.8-1.1,6.5-3.7,6.5C48.8,42,48.4,38.2,48.4,35.6 M55.5,44.2h3.2V19.4h-3.2v10.1
			h-0.1c-0.4-1-1.7-2.8-4.6-2.8c-3.9,0-6,3.6-6,9.2c0,4.9,1.7,8.7,5.9,8.7c3,0,4.4-2,4.7-3h0.1V44.2z"/>
	</g>
</g>
<g>
	<g>
		<path class="st4" d="M123.4,89c-0.3,0-0.1-0.4-0.1-0.5C123.6,88.6,123.4,89,123.4,89 M124.8,87.6c-0.3,0-0.2-0.5-0.1-0.6
			C125.1,87.1,124.7,87.5,124.8,87.6 M124.2,84.6c0.4,0.1-0.4,0.8,0,0.9C123.8,85.8,124.1,84.8,124.2,84.6 M125.4,85.4
			c-0.3-0.1-0.1-0.8-0.1-1C125.7,84.5,125.4,85,125.4,85.4 M124.5,83.8h-0.2v-0.2h0.2V83.8z M127.7,82.5c0-0.1,0.2-0.1,0.3-0.1
			C127.9,82.5,127.8,82.5,127.7,82.5 M125.7,83c-0.1-0.5,0.1-0.8,0.2-1.2C126.1,82.1,126,82.9,125.7,83 M130.4,80.9
			c0.3,0.6-0.3,0.6-0.3,1c0.3,0,0.4-0.4,0.6-0.5C130.7,81.2,130.6,81,130.4,80.9 M127.4,82.1c0.5-0.6,1-1.2,1.8-1.6
			C128.8,81.1,128.2,82.1,127.4,82.1 M132.1,79.6c0.1,0,0.1-0.1,0.1-0.1C132.1,79.4,132.1,79.5,132.1,79.6 M132.3,79.5
			c0.1,0,0.1-0.1,0.1-0.2C132.2,79.3,132.3,79.4,132.3,79.5 M132.3,79.3c0.1,0,0.1-0.1,0.1-0.1C132.3,79.2,132.3,79.3,132.3,79.3
			 M129.9,79.6c-0.4,0.2-0.4-0.1-0.4-0.4h0.4V79.6z M132.5,79.2c0.1-0.1,0.3-0.2,0.3-0.5h-0.1C132.7,79,132.3,78.9,132.5,79.2
			 M132.7,78.7c0.1,0,0.1-0.1,0.1-0.2C132.7,78.6,132.7,78.6,132.7,78.7 M126.4,80.8c-0.4-0.5,0-1.6,0.5-1.3
			C126.5,79.8,126.5,80.3,126.4,80.8 M131.8,79.2c-0.1-0.3,0.1-0.3,0.1-0.6c-0.7,0.4-0.8,1.2-1.3,1.7
			C131.5,80.3,131,79.2,131.8,79.2 M130,78.7c0.2,0,0.3,0.1,0.5,0.1C130.5,79.1,130,79.1,130,78.7 M132.8,78.6
			c0.2-0.1,0.3-0.2,0.3-0.4C132.9,78.2,132.8,78.3,132.8,78.6 M124.7,80.1c-0.2,2.1-0.7,4.1-1.1,6.2c-0.5-0.8,0.2-1.9,0.5-3
			C124.2,82.2,124.2,80.7,124.7,80.1c-0.1-0.7,0.2-1.2,0.2-1.8C125.3,78.8,124.8,79.7,124.7,80.1 M127,77.6h0.3v0.2H127V77.6z
			 M126.7,77.5c0.5-0.1,0.1,0.7,0,0.9c0.2,0.4,0.2-0.3,0.5-0.2c-0.4,0.3,0.3,0.9-0.5,0.9c-0.1-0.2,0.3-0.5-0.2-0.5
			C126.4,78.2,126.7,78,126.7,77.5 M133.1,76.3c0,0.2-0.2,0.3-0.2,0.6c0.5,0,0.4-0.3,0.5-0.5C133.3,76.4,133.3,76.2,133.1,76.3
			 M128,76c0.2-0.1,0.3,0.5-0.1,0.3v-0.2C128,76.2,128,76.1,128,76 M131.7,76.1c0.3-0.2,0.4-0.5,0.5-0.9h-0.1
			C131.9,75.6,131.7,75.7,131.7,76.1 M134.7,74.5c-0.1,0.9-0.6,1.4-0.9,2.2C134.3,76.3,135.7,75.2,134.7,74.5 M132.2,75.2
			c0.1-0.1,0.2-0.2,0.1-0.4h-0.1C132.2,75,132.1,75.1,132.2,75.2 M127.2,75.9c0.4-0.1,0.1-0.8,0.6-0.8c0,0.5-0.3,0.7-0.3,1.2
			c0.1-0.1,0.2-0.2,0.2-0.4c0.3,0.2,0,0.8-0.1,1c-0.3-0.1,0.1-0.3-0.1-0.6c-0.2,0.1-0.1,0.5-0.5,0.5
			C127.1,76.6,127.2,76.3,127.2,75.9 M132.5,74.3c0,0.2-0.3,0.2-0.2,0.5C132.6,74.9,132.8,74.4,132.5,74.3 M128.2,74.9
			c0.2,0,0.1,0.4,0.2,0.6C127.9,75.6,128,75,128.2,74.9 M127.9,74.4c0.2,0.1,0,0.2,0,0.3C127.8,74.7,127.9,74.5,127.9,74.4
			 M128.8,74.7h-0.4c-0.3-0.2,0-0.3,0.1-0.6C128.9,74,128.7,74.5,128.8,74.7 M128.9,73.4c0.2,0.1,0.3,0.1,0.4,0.4
			c-0.1,0-0.2,0-0.3,0L128.9,73.4z M128.5,73.4c0-0.1,0.1-0.2,0.2-0.3C128.7,73.2,128.7,73.4,128.5,73.4c0.1,0.5-0.1,0.8-0.5,0.9
			C128.1,73.8,128.2,73.5,128.5,73.4 M129.4,73c0,0.1-0.1,0.2-0.1,0.3c-0.2,0-0.3-0.2-0.2-0.4C129.2,72.9,129.2,73,129.4,73
			 M130,72.2V72c0.1,0,0.1-0.1,0.1-0.2C130.3,71.8,130.3,72.4,130,72.2 M129.2,71.7c0.3,0.2-0.3,0.7-0.2,1.1
			C128.4,72.6,129.2,72.1,129.2,71.7 M130.3,71.8c-0.1-0.2,0.1-0.3,0.1-0.5C130.5,71.3,130.6,72,130.3,71.8 M130.1,71.3
			c0.1-0.3,0.2-0.6,0.5-0.8C130.5,70.7,130.5,71.2,130.1,71.3c0.1,0.3-0.2,0.3-0.2,0.5C129.6,71.7,130,71.3,130.1,71.3 M130.2,70.1
			c0.6,0.2-0.4,0.6-0.3,1.1C129.4,70.8,130.2,70.4,130.2,70.1 M129.5,70c0,0.3-0.5,0.6-0.1,0.7c0.1-0.2,0.3-0.4,0.3-0.7H129.5z
			 M130.9,70c0,0,0,0.1-0.1,0.1C130.8,70,130.8,69.9,130.9,70c-0.2-0.4,0.1-0.3,0.2-0.5h0.1c0,0.2,0,0.4-0.1,0.5h0.2
			c0,0.2,0,0.5-0.3,0.5C130.9,70.3,131,70.1,130.9,70L130.9,70z M131.9,69.5c-0.4,0.2-0.3-0.2-0.3-0.4
			C131.8,69.1,131.9,69.2,131.9,69.5 M130.1,69.1c0,0.1-0.1,0.2-0.1,0.3h0.1C130.2,69.4,130.2,69.1,130.1,69.1 M131,69
			c0-0.1,0-0.1,0.1-0.2C131.1,69,131.1,69,131,69c-0.1,0.3-0.2,0.6-0.5,0.8C130.5,69.4,130.7,69.2,131,69 M131.5,68.3
			c0-0.1,0-0.1,0.1-0.1C131.6,68.3,131.6,68.4,131.5,68.3c0.1,0.2-0.1,0.3-0.3,0.3C131.2,68.5,131.3,68.4,131.5,68.3 M132.1,76.7
			c-0.7,0.5-1.2,1.3-1.8,1.9c0.2-0.9,0.9-1.4,1.3-2.2c-1.6,1.5-2.2,3.8-4.6,4.8c1.4-5.2,3.8-10.1,7.4-14c0.1-0.1,0.2,0,0.2,0.1
			C134.9,70.6,133.2,73.5,132.1,76.7 M136,66c-0.1-0.1-0.3-0.1-0.4,0C135.6,66.3,136.1,66.2,136,66 M135.4,73.7
			c1.3-1.5,1.6-3.6,1.5-6c0-0.4-0.3,0.3-0.4-0.1c0.1-0.4,0-0.7-0.2-1.3c-1-0.3-1.6-0.9-2.6-0.8c-1.7,1.1-2.7,2.8-3.8,4.3
			c-0.1-0.2,0.1-0.3,0-0.5c-0.3,0-0.2,0.4-0.4,0.5c0.1,0,0.2,0,0.3,0.2c-0.2,0.2-0.1,0.5-0.5,0.5c-0.8,1.5-1.4,3.5-2.2,4.5
			c0.4-0.6,0.3-1.9,0.8-2c-0.1-1.5,0.5-3.4,1.1-4.7c-0.5-0.8-0.5-2.1-1.7-1.9c-0.1,0.4-0.9,0.3-1.1,0.6c-1.7,8.9-3.9,16.2-4.3,25.4
			c-0.5,0.8-0.6,1.9-0.7,3c0.7,0.3,0.4,1.2,1.1,1.3c0.2,0,0-0.5,0.3-0.5c0.1,0.4-0.2,0.4,0,0.9l1.1-0.1c0.3-0.8,0.4-1.9,0.3-3.1
			c0.7-3.5,1.5-7.8,2.6-11.3c0.6,0.9,2.8,0.5,2.9-0.3c-0.3,0.4-0.9,0.4-1.2,0.4c0.7-0.5,1.9-1.3,2.3-2.4c-0.2,0.1-0.3,0.1-0.4,0
			c0.8-0.9,1.3-2.2,2.4-2.2c0-0.6-0.4,0.3-0.4-0.3c0.2-0.4,0.4-0.1,0.7-0.1c0-0.1,0.1-0.3,0.2-0.5c-0.3,0-0.1,0.3-0.3,0.3
			c0-0.1-0.1-0.1-0.1-0.2c0.4-0.9,0.9-1.5,1.4-2.3c0-0.1,0-0.2,0.1-0.2c0,0.1,0,0.2-0.1,0.2c0.1,0.6-0.3,0.7-0.3,1.2
			c0.7-0.7,1-1.7,1.2-2.8c-0.1,0-0.2-0.1,0-0.1v0.1c0.5,0,0-0.2,0-0.5c0.1,0.1,0.2,0.1,0.4,0.1c0-0.4,0-0.7,0.4-0.9
			c-0.1-0.3,0-0.5,0.2-0.6c0,0.3,0,0.5-0.2,0.6c-0.1,1.2-0.9,1.7-0.4,2.7c0.4-0.2,0.4-0.6,0.7-0.8C135.9,73.3,135.6,74.3,135.4,73.7
			 M117.4,81.2c-0.4-0.3,0.5-2,0.9-1.1C117.9,80.4,117.8,81,117.4,81.2 M117.7,79.8c-0.4,0-0.1-0.3-0.1-0.6
			C117.9,79.3,117.6,79.6,117.7,79.8 M118.6,79.6c-0.3,0-0.5-0.1-0.5-0.4c0.2-0.3,0.2,0,0.6-0.1C118.7,79.3,118.6,79.4,118.6,79.6
			 M112,80.1c0-0.2,0.1-0.3,0.1-0.5C112.3,79.6,112.4,80.2,112,80.1 M112.1,79.1v-0.3C112.3,78.6,112.4,79.3,112.1,79.1 M114.2,83.9
			c-0.9-2.5,0.1-5.3,0.5-7.3c0.8,0.6,1.4,1.6,2.5,1.9C116.6,80.7,115.4,82.3,114.2,83.9 M112.5,76.8c0.1,0,0.3,0.1,0.3,0.3
			C112.5,77.2,112.5,77,112.5,76.8 M123,75.3h-0.2v-0.2h0.2V75.3z M118.8,75.6c-0.1-0.2,0.1-0.3,0.1-0.5c0.2,0,0.3,0.2,0.3,0.4
			L118.8,75.6z M119.9,74.1c-0.1,0-0.2-0.2-0.2-0.3c0.2-0.1,0.2,0.1,0.3,0.2C119.9,73.9,119.9,74,119.9,74.1 M118.3,76.1
			c0.4,0.2-0.4,1.1-0.5,1.6c-2.4-0.7-2-5.1-0.3-6.2c1,2,0.6,3.5,0.4,5.1C118.1,76.9,118.1,76.2,118.3,76.1 M118.9,75
			c-0.2-1.3,0-3-0.4-4.2c0-0.2,0.2,0,0.3,0C119,72.5,119.8,74,118.9,75 M125,73.6c-0.4,0-0.3,0.3-0.7,0.2c0.1,0.2-0.3,0.7-0.4,0.4
			c-0.1-0.3,0.1-0.4,0.4-0.4c-0.1-0.3,0-0.5,0.2-0.6c0.1,0,0.1,0.2,0.3,0.2c-0.2-0.4,0.4-0.6,0.2-0.8c-0.2,0-0.2-0.1-0.5-0.1
			c-1,1.3-2.6,3-4.1,3.8c0-1.1-0.1-2.3-0.5-3c0.1,0.2-0.1,0.3-0.3,0.3c0.8-2-0.9-5.6-4.2-4.6c0,0.3-0.3,0.4-0.5,0.5
			c-1.7,3-3,7.3-3.1,11.2c0,1.4,0,3.1,1.3,4.1c0.3,0.2,0.1,0,0.5-0.1c0.2,0.7,1,0.8,1.7,0.7c2.5-0.4,3.2-4.7,4.5-6.3
			c0.9-0.5,1.8-1,2.9-1.5c0.6-0.6,1.2-1.4,1.9-2c-0.2-0.9,0.5-1.2,0.7-1.7C124.8,74.1,125,73.8,125,73.6 M106.3,82.4
			c0,0.1,0,0.1-0.1,0.2v0.2C106.5,82.9,106.5,82.3,106.3,82.4 M97.9,82.5c-0.1,0.2-0.1,0.5,0.2,0.5C98.2,82.8,98.2,82.5,97.9,82.5
			 M105.5,81.1v0.2h0.2v-0.2H105.5z M105,78.9c0,0.1-0.2,0.2-0.1,0.5C105.3,79.5,105.2,78.8,105,78.9 M106.4,78.5
			c0.1-0.1,0.2,0,0.2-0.2C106.5,78.4,106.3,78.4,106.4,78.5 M106.1,77.7c0.1,0,0.2,0,0.2-0.1C106.2,77.6,106.1,77.6,106.1,77.7
			 M99.7,78.1c0,0.2,0,0.4,0.2,0.5C99.9,78.4,100.1,77.9,99.7,78.1 M100.9,77.6c-0.3,0.1-0.5,1-0.1,1c-0.1-0.5,0.1-0.1,0.4-0.2
			C101.1,78.1,100.9,77.9,100.9,77.6 M99.3,77.9c0.1,0,0.2,0.2,0.2,0C99.5,77.7,99.3,77.7,99.3,77.9 M101.5,77.1L101.5,77.1
			C101.4,77.3,101.3,77.2,101.5,77.1 M100.2,77.3c-0.3,0-0.3,0.4-0.4,0.7C100.1,77.9,100.1,77.6,100.2,77.3 M101.5,77.5v-0.2h0.3
			c0.2-0.4-0.1-0.3-0.2-0.7C101,76.5,100.7,77.7,101.5,77.5 M99.6,76.5c0.1,0.4-0.1,0.4,0,0.8C99.9,77.3,100.1,76.4,99.6,76.5
			 M102.1,75.8c-0.4,0-0.6,0.2-0.5,0.6C101.8,76.2,102.2,76.2,102.1,75.8 M105.8,75c0.1,1.2-0.7,2.1-0.1,3.3c-0.2,0.5-0.6,2,0.1,2.2
			c-0.2-2.1,0.2-3.7,0.4-5.5C106,75.1,105.9,75,105.8,75 M109.4,79.8c0.9-2.3,2.4-3.8,3.2-6c0.5,0.4-0.2,0.8,0,1.4
			c-0.1,0-0.2-0.1-0.3-0.2C111.4,76.6,110.4,78.6,109.4,79.8 M101.3,75.2l-0.2,0.7C101.4,76,101.6,75.4,101.3,75.2 M102.2,73.8
			c-0.2,0.4-0.6,0.7-0.7,1.3C101.8,74.8,102.7,74.1,102.2,73.8 M103.6,73.1c0.1,0.1,0,0.3,0.2,0.4c0-0.2,0.3-0.1,0.2-0.4H103.6z
			 M103.1,72.9c-0.4,0-0.6,0.3-0.5,0.7C102.9,73.4,103.2,73.3,103.1,72.9 M103.6,72C103.6,72,103.6,72.1,103.6,72l-0.1,0.3h0.2
			c0-0.1,0-0.1,0.1-0.1V72H103.6z M100.1,74.9v0.2h-0.2c0,0.2,0.1,0.4,0.3,0.3c0.2,0.4-0.5,0.1-0.4,0.4c0.4,0,0.3,0.7,0.3,0.9
			C101.2,75.2,100.8,74.9,100.1,74.9 M99.8,73.6c-0.2,0.5-0.1,1-0.5,1.4c-0.9,6.1-0.7,0.7-1.2,6.4c0.3-0.7,0.4-1.6,0.8-2.1
			C99.6,73.4,99.6,77.6,99.8,73.6 M102.1,58.8c0.2-0.6,0.7-1,0.6-1.8c0.9,0,1.9-0.2,2.4,0.4c0,0.1,0,0.3,0.2,0.3
			c-0.1,2.8-1.2,5-1.8,7.2c-0.2,0.8,0,1.7-0.4,2.6c-0.6,1.7-1.1,4.3-1.7,6.7c1.1-1.1,1.9-2.5,3.2-3.5c1.3-0.3,1.7,0.7,2.5,0.8
			c1.3,3.8-0.9,7,0.3,11.1c1,0,0.4-1.1,1.3-1.2c-0.3-0.3,0.3-0.9,0.5-1.5c0.5,0.5-0.6,0.6-0.3,1.4c1.2-1.9,2.6-3.6,3.5-5.8
			c0.2,1.2-0.4,2.4-1,3.1c0.1,0.3,0.1-0.3,0.5-0.2c-0.5,2.6-1.1,5-3.5,6.1c-3-1-3.6-3.7-3.5-6.5c0.3-0.1,0,0.6,0.3,0.4
			c0.1-0.5,0-1.2,0.1-1.8c-0.3,0-0.2,0.5-0.2,0.7c-0.5-1.5,0.3-2.7,0-4.1c-0.6,0.3-1.3,1.4-1.7,2.2c-3,2.6-3.2,7.6-4.4,11.2
			c-0.1,0.4,0.1,0.3,0.1,0.8c-0.4,0.5-0.2,1.1-0.4,1.5c-0.8-0.2-1.4-0.2-1.6-1.4c-0.4-0.1-0.2,0.6-0.5,0.3c0.3-5,1.7-9.3,2.3-13.8
			c1.3-4.7,2.3-9.5,3.6-14.2C102.4,59.3,102.4,59.2,102.1,58.8 M83.2,95.6c0-0.1,0.1-0.1,0.2-0.1C83.4,95.6,83.3,95.6,83.2,95.6
			 M78.9,96.7c1-0.4,2.9-0.6,4.1-1.1C81.9,96.4,80.2,96.5,78.9,96.7 M77.2,96.3c0-0.1,0.1-0.1,0.2-0.2
			C77.4,96.3,77.3,96.3,77.2,96.3 M77.6,96.1c0.3-0.1,1-0.3,1.2,0.1C78.4,96.2,77.7,96.6,77.6,96.1 M86.4,94.6
			c0-0.1,0.1-0.1,0.2-0.2C86.6,94.6,86.5,94.6,86.4,94.6 M83.5,95.5c0.4-0.4,1-0.6,1.5-0.8C84.9,95.2,84.2,95.3,83.5,95.5
			 M78.8,94.9c-0.2,0-0.5,0-0.5,0.2C78.5,95.1,78.7,95.1,78.8,94.9 M80,94.6c-0.3,0.3-0.6-0.1-0.7,0.3C79.6,94.9,80.2,95,80,94.6
			 M77.6,95.1c-0.2,0-0.3-0.2-0.5-0.1C77,95.3,77.6,95.3,77.6,95.1 M85.2,94.8c0.6-0.7,1.8-0.9,2.6-1.4C87.3,94,86.1,94.3,85.2,94.8
			 M89.7,93h-0.2v-0.2h0.2V93z M86,93.5c0.2,0,0.2,0.1,0.5,0c0-0.1,0.1-0.1,0.1-0.2C86.5,93.1,85.9,93.3,86,93.5 M90.6,92.3
			c0-0.1,0.1-0.3,0.3-0.3C90.8,92.2,90.8,92.3,90.6,92.3 M88,92.5c0.1-0.1,0.2,0,0.2-0.2C88.1,92.4,88,92.4,88,92.5 M89.3,92.6
			c0,0.2-0.4,0.1-0.4,0.4C88.5,92.9,89,92.5,89.3,92.6c0.1-0.3,0.5-0.4,0.8-0.6C90.1,92.4,89.6,92.4,89.3,92.6 M90.3,92
			c0-0.1,0.1-0.2,0.3-0.3C90.6,91.9,90.5,92,90.3,92 M92.2,90.6c0-0.1,0.1-0.2,0.3-0.3C92.5,90.4,92.4,90.5,92.2,90.6 M94.4,90.1
			c0-0.1,0.1-0.2,0.2-0.3C94.6,90,94.6,90.1,94.4,90.1 M93,89.5c-0.1-0.3,0.1-0.3,0.1-0.6C93.3,89,93.4,89.5,93,89.5 M91.9,89.5
			c0,0.2,0.3,0.1,0.5,0.1c-0.4,0.5-1.3,0.8-1.6,1.5c-2,0.8-2.4,1.9-4.3,2.4c-0.4,0.3-1.3,0.8-1.7,0.5c-0.4,0.2,0.3,0.2,0.2,0.5
			c-0.5,0-0.7,0.3-1.1,0.3c-1.3,0.9-2.7,1-4.7,1.4c0.8-0.5,2.2-1,2.9-0.8c0.2-0.6,1.3-0.9,2.1-1.3c0.2,0.4-0.8,0.4-0.3,0.7
			c0-0.3,0.4-0.3,0.6-0.5c0.1-0.1-0.1-0.4,0.2-0.6c1.7-0.4,2.4-1.4,3.9-1.8c0.2,0,0.1-0.2,0.2-0.4c1.7-0.5,2.6-2.1,3.8-2.6
			C92.5,89.2,92.2,89.4,91.9,89.5 M90.7,86.1c0.1-0.3,0.4,0.1,0.7-0.1C91.3,86.5,91,86.1,90.7,86.1 M78.8,77.3L78.8,77.3
			c0.1-0.1,0.1-0.2,0.2-0.2C79,77.2,79,77.3,78.8,77.3c0.1,0.2,0.1,0.3,0,0.4C78.7,77.7,78.7,77.4,78.8,77.3 M79.3,76.3
			C79.3,76.2,79.3,76.2,79.3,76.3C79.5,76.2,79.5,76.3,79.3,76.3c0,0.1,0,0.2-0.1,0.2C79.3,76.4,79.3,76.3,79.3,76.3 M80.1,75.3
			c0,0.2-0.2,0.2-0.2,0.4C79.6,75.6,79.8,75.2,80.1,75.3 M80.7,74.9v-0.2c0.1,0,0.1-0.1,0.1-0.1C81,74.5,81,75.1,80.7,74.9
			 M80.7,74.2c0,0.3-0.1,0.5-0.4,0.5C80.4,74.5,80.6,74.4,80.7,74.2 M82.2,73c0,0.1-0.1,0.3-0.3,0.3C81.9,73.1,82,73,82.2,73
			 M81.5,73.2c0-0.2,0.1-0.4,0.3-0.4C81.7,72.9,81.9,73.2,81.5,73.2c0,0.1,0,0.1-0.1,0.2C81.4,73.2,81.4,73.2,81.5,73.2 M82.4,72.1
			c0.1,0.4-0.3,0.4-0.3,0.7C81.8,72.7,82.1,72.2,82.4,72.1 M83,71.8c0.3,0.1-0.1,0.6-0.4,0.7C82.7,72.2,83,72.1,83,71.8 M83.1,71.3
			c0,0.3,0,0.4-0.3,0.4C82.8,71.5,82.9,71.4,83.1,71.3 M83.6,71.2c0.1,0.3-0.2,0.3-0.1,0.5C83.2,71.8,83.4,71.2,83.6,71.2
			 M84.1,70.9c0.2-0.2,0.2-0.5,0.5-0.5C84.5,70.5,84.4,70.8,84.1,70.9C84.1,70.9,84.1,71,84.1,70.9C84,70.9,84,70.8,84.1,70.9
			 M85.8,69c-0.2,0.3-0.3,0.7-0.7,0.8C85.2,69.4,85.5,69.1,85.8,69 M84.3,68.8c-0.1,0.1-0.1,0.2-0.1,0.4h0.1
			C84.4,69.1,84.5,68.8,84.3,68.8 M85.5,68.5c0.3,0,0.1,0.4-0.2,0.4C85.4,68.7,85.5,68.7,85.5,68.5 M86.6,68.3
			c0-0.1,0.1-0.2,0.1-0.3C87,67.9,86.9,68.3,86.6,68.3c0.1,0.2-0.1,0.2-0.1,0.4C86.1,68.7,86.2,68.1,86.6,68.3 M86.5,67.8
			C86.5,67.7,86.5,67.7,86.5,67.8C86.6,67.7,86.6,67.8,86.5,67.8c0,0.1-0.1,0.2-0.2,0.2C86.3,67.9,86.4,67.8,86.5,67.8 M88.2,66.6
			c0-0.1,0.1-0.2,0.3-0.1C88.5,66.6,88.4,66.7,88.2,66.6c-0.2,0.6-0.7,0.9-1.2,1.2C87.2,67.3,87.9,67.1,88.2,66.6 M95.8,65.4
			c0-0.1,0.1-0.1,0.2-0.1C96,65.4,95.9,65.4,95.8,65.4 M89.3,65.8c-0.1,0.2-0.1,0.3-0.3,0.3C88.9,65.8,89.1,65.8,89.3,65.8
			 M97.4,63.2L97.4,63.2c-0.1-0.3,0.2-0.3,0.1-0.6c0.1,0,0.1,0.2,0.3,0.2L97.4,63.2c0.1,0.1,0,0.2,0,0.3
			C97.2,63.6,97.3,63.3,97.4,63.2 M97.8,62c0.3,0,0.3,0.6-0.1,0.6C97.7,62.3,97.9,62.3,97.8,62 M91.8,62.6c-0.5,0.5-0.7,0.7-1.4,0.9
			C90.6,63.1,91.1,62.8,91.8,62.6 M98.2,61.4C98.1,61.4,98.1,61.5,98.2,61.4c-0.2,0.1-0.2-0.1-0.3-0.2
			C98.1,61.2,98.1,61.3,98.2,61.4 M92.3,62.1c0-0.2,0.3-0.3,0.5-0.2C92.7,62.3,92.5,62.1,92.3,62.1c0,0.1,0,0.1-0.1,0.2
			C92.2,62.1,92.2,62.1,92.3,62.1 M92.9,61.5h0.2c0.1,0.3-0.2,0.3-0.3,0.3C92.8,61.7,92.9,61.7,92.9,61.5 M94.4,60.9
			c0,0.1-0.2,0.1-0.3,0.2C94.1,60.9,94.3,60.9,94.4,60.9 M86.7,84.4c-3-0.6-6-0.4-7.1-3c-0.1-0.5-0.1-0.9-0.3-1.2
			c0.2-1.8,1-3.2,1.9-4.5c-0.1,0-0.4-0.2-0.2-0.2c0.1,0,0.2,0.1,0.3,0c0.1-1.2,1.5-1.5,1.6-2.7c0,0.2,0,0.4,0.2,0.3
			c0.2-0.3,0-0.3-0.1-0.6c1.1-0.5,1.9-1.7,2.6-2.7c0.9-0.6,2-1.4,2.2-2.2c0.4-0.2,0.8-0.4,0.8-0.8c0.1,0.1,0.2,0.2,0.3,0.2
			c-0.3-0.8,2-0.9,1.3-1.6c0.3-0.1,0.3,0.1,0.6,0c0.6-1,1.5-1.1,2-1.8c1-0.3,2.2-1.7,3.8-1.8c-1.9,3.7-4.1,7.2-6.1,10.7
			c-0.2,0.7-0.3,1.5-0.4,2.3c0.6,0.4,1.2,1,2.1,1c0.3-0.1,0.3-0.4,0.5-0.5c-0.1-0.4,0.1-0.5,0-0.9c2.1-4.8,5.9-8.4,7.1-13.9
			c0-0.4-0.3-0.4-0.3-0.9c-2.3-2.4-5.1-0.4-7.6,1.1c-0.1,0.2-0.1,0.3-0.3,0.5c-5.5,4.1-10.6,8.5-13.4,14.7c1.2-2,2.5-4,4-5.9h0.3
			l-0.1-0.5c0.2,0.1,0.3,0.1,0.4,0.1c1.6-1.8,3.4-4.1,5.8-5c0.1-0.5,0.9-1.3,1.3-0.9c-0.6,0.1-0.7,0.7-1.3,0.9
			c-0.2,0.4-0.5,0.8-1.1,1c0.1,0.1,0.2,0.2,0,0.2c-0.9,0.5-1.4,1.6-2.3,1.9c-0.1,0-0.3,0-0.3,0.1c0.2-0.1,0.3,0.2,0.3,0.3
			c-1,0-1,1.8-2,1.3c-0.6,1.5-1.7,2-2.4,3.3c0-0.1-0.2-0.1-0.2-0.1c-0.2,0.1,0.1,0.1,0,0.4c-0.6,0.2-0.7,1.1-1.2,1.7
			c-0.2,0.3-0.6,0.4-0.8,0.7c-0.1,0.2,0.1,0.4,0,0.6c-0.4,0.6-0.8,0.5-0.9,1c-0.3,0.8-0.1,1.7-0.2,3.1c1.3,5.1,6,5.7,10.6,6.3
			c0.2,0,0-0.3,0.2-0.4c0.1,0.1,0.1,0.2,0.2,0.5c1.8,0.4,3.3,0.2,4.4,1.4c-3.4,2.4-7.6,5.1-11.7,6.3c-0.1,0.2,0,0.5-0.4,0.5
			c0.1-0.4,0.1-0.4-0.4-0.3c-0.3,0.3,0.2,0.1,0.2,0.5c-1.5,0.2-3.6,1.1-5,0.4c-0.3,0.1-0.4-0.2-0.4-0.4c0.2,0.1,0.4,0.1,0.4,0.4
			c0.4-0.2,1,0.2,1-0.3c-0.8,0-0.9,0-1.5-0.4c0.1-0.7-0.2-1.3-0.6-1.3l-0.1-0.6c0.5,0.2,0.5-1.4,0.5-1.7c-0.5,0.3-0.4,1.1-1,1.3
			c0.1,0.7-0.2,1,0,2.1c1.5,5.3,8.6,2.5,11.7,1c0,0,0.4,0.3,0.4-0.2c0.7,0.2,0.9-0.5,1.7-0.5c0.3-0.6,1.1-0.8,2.2-1.2
			c0-0.1,0.1-0.1,0.1-0.2c-0.1,0-0.2-0.2,0-0.2v0.2c0.1,0,0.1,0.1,0.2,0.1c-0.2-0.7,0.9-0.4,0.9-0.9c0.1,0.2,0.3-0.4,0.8-0.2
			c0-0.2,0-0.3,0-0.4c0.9,0,1.6-1.2,2.4-1.6c-0.1-0.7,0.3-1,0.2-1.9C93.6,85.6,90,85,86.7,84.4 M60.7,88.8h-0.2v-0.2h0.2V88.8z
			 M62.1,88.3c0.1,0,0.2,0.1,0.2,0.1c0,0.1-0.1,0.2-0.1,0.2c-0.1,0-0.2-0.1-0.2-0.1S62.1,88.4,62.1,88.3 M61.1,88.6
			c0-0.1,0.1-0.1,0.2-0.1C61.3,88.5,61.2,88.6,61.1,88.6 M58.1,88.9h-0.2v-0.2h0.2V88.9z M52.7,87.1c0-0.2,0.3-0.1,0.4,0
			C53.1,87.2,52.8,87.1,52.7,87.1 M57.7,86.1c0,0.1-0.1,0-0.2,0C57.5,86,57.7,85.9,57.7,86.1 M58.4,87.7c0-0.8,0.3-1.6-0.2-2.2
			c0.4,0,0.7,0.3,0.5-0.1c0-0.1,0.2-0.1,0.4-0.2c0,0.3,0,0.6-0.4,0.5C59,86.2,58.9,87.4,58.4,87.7 M52.9,86.6
			c-0.1-0.3,0.2-0.3,0.2-0.5c0.2,0.1,0.3,0.2,0.3,0.4C53.1,86.5,53.1,86.7,52.9,86.6 M59,85c0,0.1-0.1,0.1-0.2,0.1
			C58.7,85,58.9,85,59,85 M58.7,84.8c0-0.2,0.2-0.2,0.2-0.4C59.2,84.4,58.9,84.8,58.7,84.8 M57.6,84.9c-0.1,0-0.1-0.3-0.2-0.5
			C57.8,84.5,57.6,84.6,57.6,84.9 M58.1,83.8c-0.1,0.4,0.1,0.5-0.1,0.9C57.7,84.3,57.5,83.8,58.1,83.8 M59.1,83.3
			c0,0.3-0.3,0.5-0.6,0.6C58.4,83.4,59,83.6,59.1,83.3 M63.8,82.2c0.1-0.1,0.2-0.2,0.2-0.4h-0.1C63.8,81.9,63.8,82,63.8,82.2
			 M64,81.8c0.1-0.1,0.3-0.2,0.3-0.4C64,81.4,63.9,81.6,64,81.8 M54.7,82.8c0.2,0,0.4-0.1,0.3-0.4C54.7,82.4,54.8,82.7,54.7,82.8
			 M55.5,81.5c-0.2,0-0.3,0.1-0.3,0.3C55.4,81.8,55.5,81.7,55.5,81.5 M55.9,81.5c0-0.1,0.2-0.2,0.2-0.4c0.1,0,0.1,0.2,0.3,0.2
			C56.3,81.4,56.1,81.4,55.9,81.5 M55.6,80.9c0,0.3,0.3-0.1,0.2-0.3C55.7,80.7,55.6,80.8,55.6,80.9 M55.8,80.7
			c0.1-0.1,0.2-0.2,0.2-0.4C55.8,80.3,55.8,80.4,55.8,80.7 M56,80.3C56.1,80.3,56.1,80.2,56,80.3C56,80.1,56,80.2,56,80.3
			 M56.1,80.2c0.1,0,0.1-0.1,0.1-0.2C56.1,80,56,80.1,56.1,80.2 M56.2,80C56.3,80,56.3,79.9,56.2,80C56.2,79.9,56.2,80,56.2,80
			 M57.2,78.7c-0.1,0-0.1,0.1-0.1,0.2C57.2,78.8,57.2,78.8,57.2,78.7 M57.2,78.7C57.2,78.7,57.3,78.7,57.2,78.7
			C57.2,78.6,57.2,78.6,57.2,78.7 M57.7,78.9c-0.6-0.3-0.1,0.4-0.7,0.3c0-0.1,0-0.2,0.1-0.3c-0.2,0-0.3,0-0.5,0.2
			c0,0.3,0.3,0.2,0.4,0.3c-0.1,0.2-0.1,0.4-0.4,0.4l-0.1-0.5c-0.2,0.2-0.1,0.5-0.3,0.7c0.4,0,0.1,0.2,0.2,0.5
			c-0.5,0.2-0.9,0.8-0.7,1.3c-0.4-0.1,0,0.4-0.4,0.3c0-0.1-0.1-0.1-0.1-0.2c-0.1,0-0.1,0.1-0.2,0.2c0.4,0.2,0.3,0.2,0.4,0.7
			c-0.5,0.2-0.6,1.1-1.3,1c0.8,0.8-0.4,1.5-0.7,2.1c0.1,0,0.3,0,0.3,0.2h-0.2v-0.2c0.4-3.2,1.9-5.9,4.2-7.9c0.1,0.4-0.3,0.4-0.4,0.8
			C57.5,78.5,57.7,78.6,57.7,78.9 M60,89.1c0.2-0.1,0.2,0.1,0.3,0.3C59.5,89,60,90.1,59.2,90c-0.3-0.5,0.2-1-0.3-1.4
			c0.4-0.5,0.7-1.4,0.5-2.7c0.5-2.2,0.8-4.7,0.7-7.5c-0.3-0.8-1.1-0.8-1.6-1.3c-1.7,0-2.2,1.6-3.4,2.3c-1.1-3.7-3.8,0.9-3.6,3.1
			c-0.2,0-0.2,0.2-0.4,0.2c-0.4,3.4-2.1,6.8-2.1,9.8c0.7,0.4,1.1,0.9,1.6,1.3c0.2-0.4,0.5,0.1,0.7,0c2.5-4,2.9-9.1,5.7-13
			c0.1-0.3-0.2-0.8,0-0.9c0.6,0.6,0.5-0.5,1-0.6c-0.5,3.6-0.9,6.8-0.8,10.5c0.2,0.3,0.5,0.7,0.6,1.2c0.8,0.2,1.2,0.9,2.1,1
			c1.6-0.7,2.1-2.2,2.7-3.5c0-0.4-0.2-0.4-0.2-0.7c0.2-0.3,0.4-0.6,0.3-1c-0.6,0.4-0.5,1.2-1.2,1.4c0.3-0.7,0.7-1.2,0.7-2.2
			c1.2-0.8,1.3-2.5,1.8-3.9C62.2,84.2,61.5,87,60,89.1 M40.9,93c0.1,0,0.2,0,0.2-0.1C41.1,92.9,40.9,92.9,40.9,93 M45.2,91.6
			c0,0.1,0,0.3-0.2,0.3v-0.2L45.2,91.6c-0.1-0.3,0-0.4,0.3-0.4C45.5,91.4,45.4,91.5,45.2,91.6 M42.4,91.4c0-0.1,0.1-0.1,0.2-0.1
			C42.6,91.3,42.5,91.3,42.4,91.4 M41.5,90.4h-0.2C41.3,90.6,41.6,90.5,41.5,90.4 M48.7,88.2h-0.2V88h0.2V88.2z M47.7,88.3
			c0,0.2,0.2,0.2,0.2,0.4c-0.1,0-0.2,0-0.2-0.1c-0.2,0.1-0.2,0.3-0.2,0.5c-0.2,0-0.4,0.1-0.4,0.2c-0.5,0.7-0.8,1.5-1.5,1.9
			c0.5-0.6,0.7-1.5,1.5-1.9C47,88.7,47.3,88.4,47.7,88.3c0-0.2,0-0.4,0.3-0.4C48.1,88.1,48,88.3,47.7,88.3 M49.1,87.6
			c-0.1,0-0.1-0.2-0.1-0.3c0.2-0.1,0.2,0.1,0.3,0.2C49.1,87.5,49.1,87.6,49.1,87.6 M48.7,87.5h-0.2c-0.1-0.1-0.2-0.2-0.2-0.3h0.4
			L48.7,87.5z M49.8,86.5c0-0.1,0.2-0.2,0.2,0C50,86.6,49.9,86.5,49.8,86.5 M48.9,87l-0.1-0.5c0.3-0.1,0.3,0.2,0.5,0.2
			C49.2,86.9,49.1,86.9,48.9,87 M49.4,86.4h-0.2v-0.2h0.2V86.4z M49.5,85.9c0-0.3,0.1-0.4,0.4-0.5C50,85.8,49.8,86,49.5,85.9
			 M50.1,85.4c-0.3,0-0.3-0.2-0.2-0.4C50.2,84.9,50.2,85.2,50.1,85.4 M42,89.4c-0.6,0.2-0.1,0.7-0.4,1c0.1,0,0.3,1.2-0.2,1.1
			c0.2,0.5,0.4,1-0.1,1.2c0,0.2,0.3,0.1,0.4,0.2c-0.1,0.3-0.3,0.3-0.6,0.6c-0.7-1.8-0.2-3,0.1-4.8c0.9-0.9,0.4-2.9,1.2-3.8
			c-0.1,0.3,0,0.8,0.1,1.1c-0.6,0.3,0,1.4-0.6,1.7c-0.1,0.3,0.3,0.2,0.4,0.3c-0.5,0.3-0.1,0.2,0,0.7c-0.3,0.1-0.3-0.2-0.5-0.2
			C41.9,88.9,41.7,89,42,89.4 M42.5,84.4c0,0.1-0.1,0.1-0.2,0.1C42.3,84.4,42.4,84.4,42.5,84.4 M50.8,84.5c-0.3-0.7,0.8-1.3,0.8-2.5
			c-3.3,3.5-5.3,7.9-8.8,11.2c0.2-4,1.8-7.8,2.9-11.6c-0.5-0.5,0-0.7-0.4-1.3C44.8,80,44.1,80,43.4,80c-0.4,0.3-0.5,0.8-1,0.9
			c-0.1,3.2-2.4,7.7-2.1,11.1c0.1,1.4,0.9,2,2,2.8c0.1-0.5,0.5,0.2,0.7,0.3c3.4-0.4,3.4-4.2,5.5-5.9c0.1-1.1,0.9-1.7,1.6-2.5
			c0.1-0.2,0-0.5,0.1-0.7c0.2,0,0.6-0.3,0.3-0.4c0,0.1-0.2,0.1-0.2,0c0.4-0.3,0-0.7-0.1-1.1C50.5,84.8,50.6,84.7,50.8,84.5
			 M45.2,75.3c0.6-0.6,1.4-1.2,1.1-2.2c-0.4-1.7-2.9-0.8-2.6,1.2C44.2,74.7,44.5,75.3,45.2,75.3 M35.2,95c0-0.1,0.1-0.2,0.3-0.3
			C35.4,94.9,35.3,95,35.2,95 M35.8,94.7h-0.2v-0.2h0.2V94.7z M29.6,91.9c-0.3-0.1,0-0.4-0.1-0.6C30,91.3,29.6,91.6,29.6,91.9
			 M37.6,89.6c0,0.2-0.1,0.3-0.3,0.3C37.2,89.6,37.4,89.6,37.6,89.6 M29.5,90.5c0.2,0,0.1,0.2,0,0.3C29.3,90.7,29.5,90.6,29.5,90.5
			 M29.9,90.6c-0.2,0-0.1-0.2,0-0.3C30,90.3,29.8,90.5,29.9,90.6 M37.6,89.2c0.3-0.2,0.4,0.5,0,0.3V89.2z M38.4,88.4
			c0,0.3-0.3,0.4-0.4,0.8C37.7,89,38,88.4,38.4,88.4 M36.5,92.8L36,92.9c0,0.3-0.3,0.5-0.5,0.6c0-0.3,0.2-0.5,0.5-0.6
			c1.3-2,2.7-3.9,4.2-5.7C39.5,89.1,37.7,90.9,36.5,92.8 M30.2,88.7c0.2,0,0.2,0.1,0.3,0.2c0.1,0,0.1-0.2,0.2-0.3
			c-0.1-0.1-0.2-0.1-0.3-0.3c1,0.2-0.2,0.8-0.2,1.2C29.8,89.3,30.3,89,30.2,88.7 M29.4,88.4L29.4,88.4c-0.1,0.4-0.4,0.6-0.3,1
			c0.3,0,0.2-0.3,0.3-0.3C29.4,88.9,29.6,88.8,29.4,88.4 M29.5,88.2c-0.1,0-0.1,0.2-0.1,0.2C29.6,88.4,29.5,88.3,29.5,88.2
			 M29.7,87.1c0,0.4-0.5,0.8-0.2,1.1C29.7,87.9,29.8,87.6,29.7,87.1L29.7,87.1z M31.1,86.8c-0.1,0.5-0.4,0.8,0.1,1.3
			C30.6,88,30.6,86.9,31.1,86.8 M40,85.2c-0.1,0-0.1,0.1-0.1,0.2C40,85.4,40,85.3,40,85.2 M40.1,85.1C40,85.1,40,85.2,40.1,85.1
			C40.1,85.3,40.1,85.2,40.1,85.1 M31.3,85.7c0.3,0,0.1,0.4,0.1,0.5C31.1,86.2,31.3,85.8,31.3,85.7 M35.9,82.5
			c0-0.1,0.1-0.3,0.2-0.4C36.3,82,36.1,82.5,35.9,82.5 M31.8,82.9c0-0.4,0.2-0.7,0.6-0.8C32.2,82.4,32.2,82.8,31.8,82.9 M36.2,81.5
			c0.2-0.1,0.2,0,0.3,0.2c-0.1,0-0.1,0.1-0.1,0.2C36.2,81.9,36.2,81.7,36.2,81.5 M35.5,81.7c0.1,0,0.1-0.2,0.1-0.2
			C35.5,81.5,35.5,81.6,35.5,81.7 M32.7,81.7c0,0.2-0.1,0.3-0.3,0.3C32.4,81.9,32.5,81.8,32.7,81.7 M32.9,81.2
			c0.3,0.1,0.1,0.5-0.2,0.4C32.7,81.5,32.9,81.4,32.9,81.2 M35.7,80.8c0.1,0.4-0.3,0.3-0.1,0.7c0.3-0.2,0.4-0.5,0.2-1
			c0.6,0.3,0.1,1.3-0.3,1.5v-0.2c-0.6,2.2-2.6,4.3-3.8,6.3C32.3,85.4,33.9,82.7,35.7,80.8 M40.4,86.5c-0.2,0-0.3-0.1-0.5-0.1
			c-0.3,0.8-1,1.7-1.4,1.8c0.6-1.9,3.1-3,2.9-5.2c-0.5,0.8-0.7,2.3-1.6,2.5c0.1,0,0.1-0.1,0.1-0.2c-0.1,0-0.1,0.1-0.1,0.2
			c-0.2,0.1-0.2,0.2-0.1,0.3c-2.1,2.4-4,6-6.6,8.3c-0.4,0.3-1,0.6-1.8,0.7c-0.9-1.1-0.7-2.7-0.4-4c0.4,0,0.4,0.3,0.9,0.1
			c3.1-2.1,4.1-5.5,5.7-8.5c0.1-0.6-0.1-1.4,0-2c-0.6-0.9-1.7-1.1-2.8-1.4c-2.6,1.9-4,4.8-4.8,8.1H30c0.2-0.5,0.3-1.1,0.7-1.5
			c0.2-1,0.7-1.9,1.3-2.6c-0.4,0.9-0.9,1.8-1.3,2.6c-0.4,1.2-0.7,2.4-1.2,3.6c-1.4,3,0.4,7.2,3.3,7.5c2-0.5,2.9-1.7,4.2-2.9
			c0-0.4,0.1-0.2-0.1-0.6c0.7,0.3,0.6-0.8,0.8-1c0.2-1.1,1.3-1.4,1.2-2.6c0.2,0,0.3,0.3,0.5,0.1c0.5-1.2,1.2-2.1,1.5-3.4
			c-0.1-0.1-0.2-0.1-0.3-0.3c0.4-0.2,0.5-0.6,0.6-1C40.6,85.2,40.5,86,40.4,86.5 M23.1,100.7v-0.3C23.3,100.2,23.4,100.9,23.1,100.7
			 M23.9,100.2c0-0.1,0.3-0.1,0.3,0C24.4,100.3,23.9,100.4,23.9,100.2 M10.2,100.8c-0.1,0-0.1-0.3-0.2-0.5
			C10.4,100.4,10.2,100.5,10.2,100.8 M12.3,99.7c0-0.2,0.2-0.2,0.2-0.4C12.8,99.3,12.6,99.8,12.3,99.7 M23.6,96.9
			c0.2-0.1,0.3,0.6,0,0.5C23.5,97.1,23.6,97,23.6,96.9 M11.2,98.7H11v-0.3h0.2V98.7z M10,100.1c0-0.6,0.1-1.1,0-1.7
			C10.4,98.4,10.4,99.9,10,100.1 M2.9,100c-0.5-0.2,0.2-0.5,0-0.9C3.4,99.1,3,99.7,2.9,100 M24.2,96c-0.1,0-0.1-0.2-0.1-0.3
			c0.2-0.1,0.2,0.1,0.3,0.2C24.2,95.9,24.2,95.9,24.2,96 M10.2,98c-0.1-0.4,0-0.5,0-0.8C10.7,97.1,10.6,98.1,10.2,98 M10.6,97.1
			c-0.3,0-0.2-0.5-0.1-0.6C10.9,96.5,10.7,96.9,10.6,97.1 M10.4,96.1c-0.1-0.2,0.1-0.2,0-0.5h0.4C10.8,95.9,10.7,96.1,10.4,96.1
			 M11.1,95.5c0-0.1,0.2-0.1,0.2,0C11.3,95.6,11.2,95.5,11.1,95.5 M23.8,96.4c-0.3,0.1-0.3-0.2-0.4-0.3c-0.1,1.2-0.5,2.5,0,3.5
			c-0.5-0.2,0.1,0.5-0.3,0.7c-0.5-2-0.2-3.9,0-5.5c0.2,0.1,0.2,0.6,0.3,0.8c0.3-0.1,0.4-0.4,0.3-0.8c-0.1,0.1-0.1,0.2-0.3,0.3
			c-0.1-0.7-0.2-0.9-0.2-1.5c0.7,0-0.2,1,0.5,1c0.4-0.3,0-0.5-0.1-0.8c0.1,0.1,0.3,0.1,0.5,0.1L23.8,96.4z M11.7,95.3
			c-0.1,0-0.1-0.2-0.2-0.4c0.2-0.1,0.2,0.1,0.3,0.2C11.7,95.2,11.7,95.2,11.7,95.3 M23.5,92.8c0,0.1-0.1,0.2-0.1,0.3h-0.2v-0.4
			C23.4,92.6,23.4,92.8,23.5,92.8 M15.6,93.8c-0.1-0.3,0.2-0.2,0.2-0.5C16.1,93.3,15.9,93.8,15.6,93.8 M10.6,95.1
			c-0.1-0.6,0.2-0.9,0.3-1.3C11,93.9,11.2,95,10.6,95.1 M23.1,91.9c0.4,0,0.1,0.3,0.1,0.6C22.8,92.4,23.2,92.1,23.1,91.9 M10.5,93
			c0,0.2-0.1,0-0.2,0C10.2,92.9,10.5,92.8,10.5,93 M23.9,91c0,0.1-0.2,0.3-0.3,0.3C23.5,91,23.7,91,23.9,91 M17.1,92.1h-0.2v-0.2
			h0.2V92.1z M24,90.1c0,0.1-0.1,0.1-0.2,0.1C23.8,90.2,23.9,90.1,24,90.1 M17.2,91.6L17.1,91C17.5,91,17.6,91.6,17.2,91.6
			 M23.5,89.6c0.2,0,0.3,0.7-0.1,0.6C23.3,89.9,23.6,89.9,23.5,89.6 M17.8,90.5h-0.2v-0.3h0.2V90.5z M23.7,88.9
			c0.5,0.1,0.5,0.3,0.5,0.8C23.9,89.7,23.6,89.3,23.7,88.9 M17.3,89.9v-0.2c0.1,0,0.1-0.1,0.1-0.2C17.6,89.5,17.6,90.1,17.3,89.9
			 M18.1,89c-0.3-0.2-0.1,0.1-0.5,0.1C17.5,88.8,17.9,88.5,18.1,89L18.1,89z M24.3,88.8c-0.7-0.2,0.1-0.6,0-1.1
			C24.7,88,24.1,88.4,24.3,88.8 M23.8,87.6c0.3,0.1,0.3,0.9-0.1,0.8C23.6,88,23.9,87.9,23.8,87.6 M23.9,87.2h0.2v0.2h-0.2V87.2z
			 M11.3,91.4c0.6,0-0.1,0.5,0.1,0.9c0.2-0.4,0.4-1,0.2-1.4c0.6-0.8,0.1-2.3,0.9-2.9c-0.2,1.6-0.5,3-0.8,4.6c-0.2,0.2-0.1,0-0.5,0.1
			c0.9,0.5,0,1.3,0.2,2.2c-0.5-0.5,0-1.2,0-1.7c-0.3,0-0.2,0.3-0.3,0.4C10.6,92.8,11.3,92,11.3,91.4 M18.5,88.7
			c-0.2,0.1-0.2-0.2-0.4-0.2c0.2-0.5,0.2-0.9,0.1-1.4c0.3-0.1,0,0.7,0.4,0.4C18.7,88,18.2,88.3,18.5,88.7 M25.7,86.5
			c-0.1,0-0.2-0.2-0.2,0h-0.1c0.2,0.1,0.2,0.4,0.2,0.7c-0.1,0-0.2-0.1-0.2-0.2c-0.4,0.7,0.4,1.3-0.2,1.7c0-0.2,0-0.4-0.2-0.5
			c0.1,1-0.4,1.8,0,2.7c-0.5,0.2,0.1-0.3-0.3-0.1c-0.4,0.2,0.2,0.5,0.1,0.8c-0.7-0.4,0,1.6-0.8,2c-0.3-0.6,0.5-1.1,0-1.9
			c0.7-0.1,0.2-0.8,0.3-1.1c1-0.4-0.2-1.9,0.8-2.3c-0.4-0.7,0.3-1.1-0.1-1.5c0-0.2,0.3-0.2,0.4-0.2c0-0.1-0.2-0.1-0.1-0.3
			c0.1-0.2,0.3-0.2,0.5-0.2C25.7,86.2,25.8,86.4,25.7,86.5 M18.7,87.4c-0.3-0.5,0.2-0.5,0.2-0.7C19.2,86.7,18.9,87.3,18.7,87.4
			 M24.2,85.9c0.3,0.1,0.2,0.9,0,1C23.9,86.5,24.2,86.2,24.2,85.9 M24.7,85.8c0.2-0.1,0.3,0.6-0.1,0.5C24.5,86,24.6,86,24.7,85.8
			 M24.9,85.5c0,0.1-0.1,0.1-0.2,0.1C24.6,85.6,24.8,85.6,24.9,85.5 M25.9,85.7c-0.3,0-0.4-0.1-0.6-0.2c0-0.1,0.1-0.2,0-0.4
			C25.7,85.2,25.9,85.4,25.9,85.7 M19.3,86.4c-0.1-0.3,0.2-0.4,0.4-0.4C19.8,86.3,19.6,86.4,19.3,86.4 M19.3,85.9v-0.2h0.2v0.2H19.3
			z M25.9,85.3c-0.5-0.2-0.1-0.7-0.4-1.1c0.2-0.2,0.4-0.2,0.6-0.1C25.7,84.5,26.2,85,25.9,85.3 M20,84.4c0-0.1,0.1-0.1,0.2-0.2
			C20.2,84.4,20.1,84.3,20,84.4 M25.1,83.4c0.3,0.1,0.1,0.8-0.2,0.5C25,83.7,25.3,83.7,25.1,83.4 M26.4,82.9c-0.3,0-0.1-0.4-0.1-0.4
			C26.7,82.5,26.2,82.8,26.4,82.9 M19.9,84.1c0.2-0.4-0.1-1,0.6-1.1C20.3,83.4,20.3,83.9,19.9,84.1 M26.3,82.1
			c0-0.1,0.1-0.1,0.2-0.1C26.5,82.1,26.4,82.1,26.3,82.1 M20.7,82.9c-0.2-0.1-0.3-0.2-0.3-0.4c0.3-0.2,0.5-0.5,0.7,0
			C20.8,82.4,20.8,82.7,20.7,82.9 M26,81.1h0.2v0.2H26V81.1z M21.2,82c-0.5-0.1-0.1-0.8,0-1.2C21.6,81.2,21.3,81.6,21.2,82
			 M22.3,79.7c-0.4,0.2-0.6,0.5-0.4,1.1c-0.9,0-0.1-1.1,0-1.5C22.1,79.4,22.3,79.4,22.3,79.7 M22.6,79.4c-0.5-0.2-0.3-0.5-0.1-0.9
			C22.9,78.7,22.5,79.1,22.6,79.4 M22.5,78.2c0-0.1,0.1-0.1,0.2-0.1C22.7,78.1,22.6,78.1,22.5,78.2 M23.4,77.3
			c-0.1,0-0.1,0.1-0.1,0.2C23.4,77.4,23.5,77.4,23.4,77.3 M23.3,78.1c-0.1-0.3,0.1-0.3,0.1-0.6h-0.2L23.1,77h0.3v0.4h0.2
			C23.6,77.6,23.6,78,23.3,78.1 M23.6,76.9c-0.1,0-0.1-0.2-0.1-0.3c0.2-0.1,0.2,0.1,0.3,0.2C23.6,76.8,23.6,76.9,23.6,76.9
			 M23.5,76.5v-0.3c0.3,0,0.4,0,0.4,0.3H23.5z M24.5,75.8c-0.1,0-0.2-0.1-0.3-0.2C24,75.7,24.1,75.9,24,76c-0.2-0.1-0.2-0.8,0.1-0.8
			l0.1,0.5c0.1-0.1,0.2-0.2,0.2-0.3C24.7,75.3,24.5,75.7,24.5,75.8 M27.4,74.8c-0.3,0-0.1-0.6-0.2-0.8c0.2-0.1,0.2,0.1,0.4,0.1
			C27.6,74.4,27.4,74.4,27.4,74.8 M24.6,73.8c0-0.2,0.2-0.2,0.2,0C24.8,73.9,24.7,73.7,24.6,73.8 M25.6,73.3
			C25.5,73.3,25.5,73.4,25.6,73.3c-0.4-0.1-0.5-0.7,0-0.9c0.1,0.2-0.2,0.6,0.1,0.7C25.7,73.2,25.6,73.3,25.6,73.3 M3.2,98.7
			c2.7-8.1,6-16.7,9.4-24.6c0.2,0,0.2,0.1,0.3,0.2C9.3,82.2,6.7,90.8,3.2,98.7 M25.9,71.7c0-0.3,0.1-0.4,0.4-0.5
			C26.3,71.5,26.1,71.6,25.9,71.7 M14.4,95.9c-0.7,0.9-0.7,2.4-1.7,3.2c4.2-10.2,7.9-20.7,13.8-29.7l0.5-0.1
			C21.8,77.4,18.3,86.8,14.4,95.9 M28.9,69.5c-0.6-0.2-0.9-0.9-1.9-0.6v-0.4c-2.5,2.3-3.8,5.6-5.2,8.7c-1.2,1.5-1.6,3.6-2.7,5.2
			c-1.3,3.8-3.3,7.1-4.4,11.1h-0.4c-0.6,2.2-1.8,4.6-2.7,6.2c0.2-3.4,1-6.2,1.1-9.3c0.6-0.4,0.2-1.4,0.7-1.8
			c0.4-5.2,2.1-9.5,1.5-15.1c-0.4-0.3-0.7,0.1-0.9-0.5c-0.4,0-0.4,0.3-0.8,0.3c0-0.2,0.1-0.2,0.1-0.5c-2.2,1.2-2.1,4.1-3.5,5.9
			c-0.1,1.3-0.9,2.1-1,3.5c-0.7,0.9-1.2,2-1.3,3.5C4.7,92.4,1.8,99.1,0,106.5c0.6,0.3,1,0.8,2,0.6c3.2-9.5,6.8-18.8,10.3-28
			c-0.3,3.4-1.2,6.3-1.4,9.7c0.1-0.1,0.4-0.3,0.3,0.1c-0.2-0.1-0.3,0.4-0.3-0.1C10,93,9,96.9,9.6,101.8c0.7,0.8,1.3,1.7,2.3,1.8
			c1.6-1.2,1.7-3.6,3-5.2l-0.1-0.8c0.7-0.4,0.8-1.4,1.1-2c-0.3,0-0.3-0.3,0-0.3v0.3c0.8-1.8,1.6-3.5,2.3-5.6c0-0.2-0.5-0.4-0.3-0.6
			c0.1,0,0.1,0.2,0.3,0.2c0-0.3,0.1-0.4,0.3-0.5v0.3c1.5-3.7,3.3-7.2,4.8-11c-0.1,0-0.2,0-0.2-0.1c0.1,0,0.2,0,0.2,0.1
			c0.1-0.1,0.2-0.2,0.4-0.2c0.2-0.5,0.5-0.9,0.4-1.6c1.2-1.1,1.7-3.2,2.6-3.9c-0.3,3.3-1.1,5.7-1.7,8.6c0.3-0.1,0.3,0.2,0.3,0.3
			c-0.6,0.1-0.8,1.9-0.9,3c0.1,0,0.2-0.5,0.3-0.1c0,0.1-0.3,0.6-0.3,0.1c-0.8,3.1-1.4,6.3-1.8,9.8c0.2-0.2,0.4,0,0.3,0.2
			c-0.1,0-0.3,0-0.3-0.2h-0.1c0.1,1.1-0.1,1.4-0.2,2.3c0.2,0,0.3,0,0.4,0c-0.3,3.6,0,6.8,2.6,8.6c0.3-0.2,0.5,0.1,0.8-0.2
			c-0.4-0.5-0.6-1.1-0.4-1.8c-0.4-0.1-0.1,0.4-0.5,0.4c-0.9-3.4-0.9-7.3-0.1-10.5c1-6.9,2.7-13.3,3.9-20.3
			C28.9,71.8,29,70.4,28.9,69.5"/>
	</g>
</g>
</svg>
